<svg width="500" height="500" viewBox="0 0 500 500" fill="none" xmlns="http://www.w3.org/2000/svg">
<path d="M268.68 419.47V410.38H241.88V419.47C241.882 422.439 240.881 425.322 239.04 427.65L237.86 429.14H272.7L271.53 427.65C269.681 425.325 268.676 422.441 268.68 419.47Z" fill="white" stroke="#263238" stroke-linecap="round" stroke-linejoin="round"/>
<g style="mix-blend-mode:multiply">
<path d="M240.24 425.85H270.33C269.245 423.899 268.677 421.703 268.68 419.47V410.38H241.88V419.47C241.881 421.701 241.317 423.896 240.24 425.85Z" fill="#8B18FF"/>
</g>
<path d="M268.68 411.75H241.88V415.59H268.68V411.75Z" fill="#263238" stroke="#263238" stroke-width="1.09543" stroke-linecap="round" stroke-linejoin="round"/>
<path d="M299.84 332.47H210.72C205.589 332.47 201.43 336.629 201.43 341.76V403.96C201.43 409.091 205.589 413.25 210.72 413.25H299.84C304.971 413.25 309.13 409.091 309.13 403.96V341.76C309.13 336.629 304.971 332.47 299.84 332.47Z" fill="#263238" stroke="#263238" stroke-width="1.09543" stroke-linecap="round" stroke-linejoin="round"/>
<path d="M201.43 400.69H309.13V404C309.13 405.22 308.89 406.428 308.423 407.555C307.956 408.682 307.272 409.706 306.409 410.569C305.546 411.432 304.522 412.116 303.395 412.583C302.268 413.05 301.06 413.29 299.84 413.29H210.72C209.5 413.29 208.292 413.05 207.165 412.583C206.038 412.116 205.014 411.432 204.151 410.569C203.288 409.706 202.604 408.682 202.137 407.555C201.67 406.428 201.43 405.22 201.43 404V400.74V400.69Z" fill="white" stroke="#263238" stroke-linecap="round" stroke-linejoin="round"/>
<path d="M303.72 337.49H206.85V394.56H303.72V337.49Z" fill="#8B18FF" stroke="#263238" stroke-width="1.09543" stroke-linecap="round" stroke-linejoin="round"/>
<path d="M257.27 407C257.27 406.604 257.153 406.218 256.933 405.889C256.713 405.56 256.401 405.304 256.035 405.152C255.67 405.001 255.268 404.961 254.88 405.038C254.492 405.116 254.136 405.306 253.856 405.586C253.576 405.865 253.386 406.222 253.308 406.61C253.231 406.998 253.271 407.4 253.422 407.765C253.574 408.131 253.83 408.443 254.159 408.663C254.488 408.883 254.874 409 255.27 409C255.8 409 256.309 408.789 256.684 408.414C257.059 408.039 257.27 407.53 257.27 407Z" fill="#263238" stroke="#263238" stroke-width="1.09543" stroke-linecap="round" stroke-linejoin="round"/>
<path d="M272.7 429.14H237.86V430.76H272.7V429.14Z" fill="white" stroke="#263238" stroke-linecap="round" stroke-linejoin="round"/>
<path d="M243 336.59C243 336.59 238.29 335.28 234.88 337.9C231.47 340.52 231.22 347.32 233.31 350.73C235.4 354.14 238.31 356.22 234.62 358.58C230.93 360.94 228.34 362.51 228.86 366.69C229.38 370.87 233.31 376.38 239.59 376.64C245.87 376.9 253.47 371.41 253.47 365.39C253.47 359.37 249.02 355.44 250.59 352.04C252.16 348.64 256.87 344.18 253.21 339.47C249.55 334.76 243 336.59 243 336.59Z" fill="#263238" stroke="#263238" stroke-linecap="round" stroke-linejoin="round"/>
<path d="M289.12 393.69L278.48 371.06H230.44L221.44 393.69H289.12Z" fill="white" stroke="#263238" stroke-linecap="round" stroke-linejoin="round"/>
<path d="M271.18 393.69L278.48 371.06L254.37 357.93L230.44 371.06L236.12 393.69H271.18Z" fill="white" stroke="#263238" stroke-linecap="round" stroke-linejoin="round"/>
<path d="M250.24 360.19L243.39 364C242.13 367.41 241 372.64 244.39 375.64C246.49 377.54 254.59 371.46 254.59 371.46C254.59 371.46 260.35 377.74 265.06 375.64C268.4 374.16 266.88 368.23 264.87 363.64L257.4 359.58L250.24 360.19Z" fill="white" stroke="#263238" stroke-linecap="round" stroke-linejoin="round"/>
<path d="M247.77 351.8V361.8L250.32 369.24C250.575 369.994 251.062 370.647 251.71 371.108C252.359 371.569 253.136 371.814 253.932 371.807C254.727 371.801 255.5 371.543 256.141 371.071C256.782 370.6 257.257 369.938 257.5 369.18L259.95 361.65V351.22L247.77 351.8Z" fill="white" stroke="#263238" stroke-linecap="round" stroke-linejoin="round"/>
<path d="M245.14 340.51C245.14 340.51 242.61 336.02 241.21 338.51C239.81 341 241.77 346.36 242.61 347.76C243.45 349.16 244.86 346.92 244.86 346.92" fill="white"/>
<path d="M245.14 340.51C245.14 340.51 242.61 336.02 241.21 338.51C239.81 341 241.77 346.36 242.61 347.76C243.45 349.16 244.86 346.92 244.86 346.92" stroke="#263238" stroke-linecap="round" stroke-linejoin="round"/>
<path d="M263.2 340.51C263.2 340.51 265.73 336.02 267.13 338.51C268.53 341 266.57 346.36 265.73 347.76C264.89 349.16 263.48 346.92 263.48 346.92" fill="white"/>
<path d="M263.2 340.51C263.2 340.51 265.73 336.02 267.13 338.51C268.53 341 266.57 346.36 265.73 347.76C264.89 349.16 263.48 346.92 263.48 346.92" stroke="#263238" stroke-linecap="round" stroke-linejoin="round"/>
<path d="M264.47 339.67C264.47 347.56 259.83 358.44 254.1 358.44C248.37 358.44 243.73 347.56 243.73 339.67C243.73 331.78 248.38 325.37 254.1 325.37C259.82 325.37 264.47 331.77 264.47 339.67Z" fill="white" stroke="#263238" stroke-linecap="round" stroke-linejoin="round"/>
<path d="M250.09 333.45C250.09 333.45 252.19 328.74 255.59 333.45C258.99 338.16 257.42 341.57 260.3 342.61C261.038 342.937 261.871 342.984 262.641 342.743C263.412 342.502 264.069 341.989 264.49 341.3C264.49 341.3 272.61 335.81 264.49 326.91C262.905 325.189 260.953 323.845 258.779 322.98C256.605 322.115 254.264 321.749 251.93 321.91C247.74 322.18 247.22 327.41 247.22 327.41C247.22 327.41 244.07 326.63 242.77 330.29C241.47 333.95 244.07 344.16 244.07 341.55C244.07 338.94 247.48 330.83 250.09 333.45Z" fill="#263238" stroke="#263238" stroke-linecap="round" stroke-linejoin="round"/>
<path d="M394.9 292.3V283.2H368.1V292.3C368.102 295.271 367.097 298.154 365.25 300.48L364.08 302H398.92L397.74 300.52C395.891 298.18 394.89 295.282 394.9 292.3Z" fill="white" stroke="#263238" stroke-linecap="round" stroke-linejoin="round"/>
<g style="mix-blend-mode:multiply">
<path d="M366.45 298.67H396.54C395.464 296.719 394.9 294.528 394.9 292.3V283.2H368.1V292.3C368.101 294.529 367.533 296.722 366.45 298.67Z" fill="#8B18FF"/>
</g>
<path d="M394.9 284.57H368.1V288.41H394.9V284.57Z" fill="#263238" stroke="#263238" stroke-width="1.09543" stroke-linecap="round" stroke-linejoin="round"/>
<path d="M426.06 205.29H336.94C331.809 205.29 327.65 209.449 327.65 214.58V276.78C327.65 281.911 331.809 286.07 336.94 286.07H426.06C431.191 286.07 435.35 281.911 435.35 276.78V214.58C435.35 209.449 431.191 205.29 426.06 205.29Z" fill="#263238" stroke="#263238" stroke-width="1.09543" stroke-linecap="round" stroke-linejoin="round"/>
<path d="M327.65 273.51H435.35V276.77C435.35 277.99 435.11 279.198 434.643 280.325C434.176 281.452 433.492 282.477 432.629 283.339C431.766 284.202 430.742 284.886 429.615 285.353C428.488 285.82 427.28 286.06 426.06 286.06H336.94C335.72 286.06 334.512 285.82 333.385 285.353C332.258 284.886 331.234 284.202 330.371 283.339C329.508 282.477 328.824 281.452 328.357 280.325C327.89 279.198 327.65 277.99 327.65 276.77V273.51Z" fill="white" stroke="#263238" stroke-linecap="round" stroke-linejoin="round"/>
<path d="M429.93 210.32H333.06V267.39H429.93V210.32Z" fill="#8B18FF" stroke="#263238" stroke-width="1.09543" stroke-linecap="round" stroke-linejoin="round"/>
<path d="M383.48 279.79C383.48 279.394 383.363 279.008 383.143 278.679C382.923 278.35 382.611 278.094 382.245 277.942C381.88 277.791 381.478 277.751 381.09 277.828C380.702 277.906 380.345 278.096 380.066 278.376C379.786 278.656 379.596 279.012 379.518 279.4C379.441 279.788 379.481 280.19 379.632 280.555C379.784 280.921 380.04 281.233 380.369 281.453C380.698 281.673 381.084 281.79 381.48 281.79C382.01 281.79 382.519 281.579 382.894 281.204C383.269 280.829 383.48 280.32 383.48 279.79Z" fill="#263238" stroke="#263238" stroke-width="1.09543" stroke-linecap="round" stroke-linejoin="round"/>
<path d="M398.92 301.96H364.08V303.58H398.92V301.96Z" fill="white" stroke="#263238" stroke-linecap="round" stroke-linejoin="round"/>
<path d="M415.15 266.98L404.69 244.74H356.65L347.82 266.98H415.15Z" fill="white" stroke="#263238" stroke-linecap="round" stroke-linejoin="round"/>
<path d="M404.69 266.98V244.74L386.09 234.07L380.58 231.61L374.38 234.07L356.65 244.74V266.98H404.69Z" fill="white" stroke="#263238" stroke-linecap="round" stroke-linejoin="round"/>
<path d="M376.25 248L379.53 253.16L377.89 266.75H383.75L380.94 253.16L384.69 247.77L379.77 242.14L376.25 248Z" fill="#263238" stroke="#263238" stroke-linecap="round" stroke-linejoin="round"/>
<path d="M380.22 246.59L375.08 250.58L371.33 236.28L374.38 234.07H386.09L388.67 235.82L386.56 250.81L380.22 246.59Z" fill="white" stroke="#263238" stroke-linecap="round" stroke-linejoin="round"/>
<path d="M373.98 225.48V235.49L380.22 246.59L386.17 235.35V224.9L373.98 225.48Z" fill="white" stroke="#263238" stroke-linecap="round" stroke-linejoin="round"/>
<path d="M371.35 214.19C371.35 214.19 368.83 209.7 367.43 212.19C366.03 214.68 367.99 220.03 368.83 221.44C369.67 222.85 371.07 220.6 371.07 220.6" fill="white"/>
<path d="M371.35 214.19C371.35 214.19 368.83 209.7 367.43 212.19C366.03 214.68 367.99 220.03 368.83 221.44C369.67 222.85 371.07 220.6 371.07 220.6" stroke="#263238" stroke-linecap="round" stroke-linejoin="round"/>
<path d="M389.42 214.19C389.42 214.19 391.94 209.7 393.34 212.19C394.74 214.68 392.78 220.03 391.94 221.44C391.1 222.85 389.7 220.6 389.7 220.6" fill="white"/>
<path d="M389.42 214.19C389.42 214.19 391.94 209.7 393.34 212.19C394.74 214.68 392.78 220.03 391.94 221.44C391.1 222.85 389.7 220.6 389.7 220.6" stroke="#263238" stroke-linecap="round" stroke-linejoin="round"/>
<path d="M390.69 213.35C390.69 221.24 386.05 232.13 380.32 232.13C374.59 232.13 370 221.24 370 213.35C370 205.46 374.64 199.05 380.37 199.05C386.1 199.05 390.69 205.45 390.69 213.35Z" fill="white" stroke="#263238" stroke-linecap="round" stroke-linejoin="round"/>
<path d="M367.82 256.2L375.2 266.98H385.65L393.36 259.01L388.44 252.92L394.53 252.45L393.83 238.86L388.67 235.82L380 266.75L371.33 236.28L367.11 238.86L365.47 251.05L370.63 251.98L367.82 256.2Z" fill="white" stroke="#263238" stroke-linecap="round" stroke-linejoin="round"/>
<path d="M369.93 215.43C369.93 215.43 372.25 215.73 371.8 214.96C371.35 214.19 371.8 211.45 371.8 211.45C372.334 211.023 372.74 210.455 372.97 209.81C373.44 208.64 372.27 206.99 372.27 205.59C372.27 204.19 379.53 206.99 380.7 206.99C381.87 206.99 388.44 205.35 388.44 205.35C388.44 205.35 387.26 209.57 387.97 210.04C388.68 210.51 389.14 212.62 389.14 212.62C389.14 212.62 388.44 216.37 388.67 217.07C388.9 217.77 390.31 218.24 390.55 217.54C390.79 216.84 390.78 210.74 390.78 210.74C390.78 210.74 392.42 210.98 392.42 207.74C392.42 204.5 390.55 197.19 387.26 195.79C383.97 194.39 376.49 194.38 373.44 196.02C370.39 197.66 368.28 205.16 368.99 207.74C369.504 210.275 369.818 212.846 369.93 215.43Z" fill="#263238" stroke="#263238" stroke-linecap="round" stroke-linejoin="round"/>
<path d="M268.68 168.2V159.1H241.88V168.2C241.88 171.165 240.879 174.044 239.04 176.37L237.86 177.86H272.7L271.53 176.37C269.683 174.047 268.679 171.167 268.68 168.2Z" fill="white" stroke="#263238" stroke-linecap="round" stroke-linejoin="round"/>
<g style="mix-blend-mode:multiply">
<path d="M240.24 174.57H270.33C269.247 172.622 268.679 170.429 268.68 168.2V159.1H241.88V168.2C241.88 170.428 241.316 172.619 240.24 174.57Z" fill="#8B18FF"/>
</g>
<path d="M268.68 160.47H241.88V164.31H268.68V160.47Z" fill="#263238" stroke="#263238" stroke-width="1.09543" stroke-linecap="round" stroke-linejoin="round"/>
<path d="M299.84 81.1899H210.72C205.589 81.1899 201.43 85.3492 201.43 90.4799V152.68C201.43 157.811 205.589 161.97 210.72 161.97H299.84C304.971 161.97 309.13 157.811 309.13 152.68V90.4799C309.13 85.3492 304.971 81.1899 299.84 81.1899Z" fill="#263238" stroke="#263238" stroke-width="1.09543" stroke-linecap="round" stroke-linejoin="round"/>
<path d="M201.43 149.41H309.13V152.67C309.13 155.134 308.151 157.496 306.409 159.239C304.667 160.981 302.304 161.96 299.84 161.96H210.72C208.256 161.96 205.893 160.981 204.151 159.239C202.409 157.496 201.43 155.134 201.43 152.67V149.41Z" fill="white" stroke="#263238" stroke-linecap="round" stroke-linejoin="round"/>
<path d="M303.72 86.21H206.85V143.28H303.72V86.21Z" fill="#8B18FF" stroke="#263238" stroke-width="1.09543" stroke-linecap="round" stroke-linejoin="round"/>
<path d="M255.28 157.68C256.379 157.68 257.27 156.789 257.27 155.69C257.27 154.591 256.379 153.7 255.28 153.7C254.181 153.7 253.29 154.591 253.29 155.69C253.29 156.789 254.181 157.68 255.28 157.68Z" fill="#263238" stroke="#263238" stroke-width="1.09543" stroke-linecap="round" stroke-linejoin="round"/>
<path d="M272.7 177.86H237.86V179.48H272.7V177.86Z" fill="white" stroke="#263238" stroke-linecap="round" stroke-linejoin="round"/>
<path d="M289.12 143.03L278.48 120.4H230.44L221.44 143.03H289.12Z" fill="white" stroke="#263238" stroke-linecap="round" stroke-linejoin="round"/>
<path d="M238.29 92.0898C238.29 92.0898 236.56 100.16 238.29 103.45C240.02 106.74 242.46 110.68 241.14 113.53C239.82 116.38 238.51 117.03 238.07 122.53C237.63 128.03 246.4 138.96 256.48 137.86C266.56 136.76 272.48 128.44 270.72 121.65C268.96 114.86 266.12 113.98 266.99 109.65C267.86 105.32 270.06 102.42 268.99 96.5098C267.92 90.5998 262.64 80.9498 256.29 78.7598C249.94 76.5698 245.94 79.6398 243.58 83.7598C241.22 87.8798 238.71 90.3798 238.29 92.0898Z" fill="#263238" stroke="#263238" stroke-linecap="round" stroke-linejoin="round"/>
<path d="M271.18 143.03L278.48 120.4L254.37 107.27L230.44 120.4L236.12 143.03H271.18Z" fill="white" stroke="#263238" stroke-linecap="round" stroke-linejoin="round"/>
<path d="M244.97 112.43L242.47 120.1L248.17 121.63L243.13 125.36L253.65 135.65L263.51 126.45L258.69 121.85L265.48 120.1L263.7 112.36L254.37 107.27L244.97 112.43Z" fill="white" stroke="#263238" stroke-linecap="round" stroke-linejoin="round"/>
<path d="M247.77 101.14V111.15L254 129.3L259.95 111V100.56L247.77 101.14Z" fill="white" stroke="#263238" stroke-linecap="round" stroke-linejoin="round"/>
<path d="M245.14 89.8498C245.14 89.8498 242.61 85.3598 241.21 87.8498C239.81 90.3398 241.77 95.6898 242.61 97.0998C243.45 98.5098 244.86 96.2498 244.86 96.2498" fill="white"/>
<path d="M245.14 89.8498C245.14 89.8498 242.61 85.3598 241.21 87.8498C239.81 90.3398 241.77 95.6898 242.61 97.0998C243.45 98.5098 244.86 96.2498 244.86 96.2498" stroke="#263238" stroke-linecap="round" stroke-linejoin="round"/>
<path d="M263.2 89.8498C263.2 89.8498 265.73 85.3598 267.13 87.8498C268.53 90.3398 266.57 95.6898 265.73 97.0998C264.89 98.5098 263.48 96.2498 263.48 96.2498" fill="white"/>
<path d="M263.2 89.8498C263.2 89.8498 265.73 85.3598 267.13 87.8498C268.53 90.3398 266.57 95.6898 265.73 97.0998C264.89 98.5098 263.48 96.2498 263.48 96.2498" stroke="#263238" stroke-linecap="round" stroke-linejoin="round"/>
<path d="M264.47 88.9997C264.47 96.8897 259.83 107.78 254.1 107.78C248.37 107.78 243.73 96.8997 243.73 88.9997C243.73 81.0997 248.38 74.6997 254.1 74.6997C259.82 74.6997 264.47 81.1097 264.47 88.9997Z" fill="white" stroke="#263238" stroke-linecap="round" stroke-linejoin="round"/>
<path d="M252.11 78.6897C252.11 76.3697 251.41 73.2497 248.19 74.3297C244.4 75.6197 241.9 83.7197 240.07 87.0197C239.132 88.5682 238.526 90.2947 238.29 92.0897C237.39 97.6897 242.04 102.35 242.04 102.35C242.04 102.35 240.94 96.4397 241.6 92.4897C241.97 90.2897 243.08 89.4897 245.02 88.6997C249.46 86.9997 252.11 83.7197 252.11 78.6897Z" fill="#263238" stroke="#263238" stroke-linecap="round" stroke-linejoin="round"/>
<path d="M272.22 89.6999C270.805 87.3182 269.046 85.1583 267 83.2899C264.59 80.8799 263.28 74.9699 257.8 72.9899C252.32 71.0099 249.91 73.6499 250.13 77.5999C250.164 78.2316 250.244 78.8599 250.37 79.4799C250.365 79.5097 250.365 79.54 250.37 79.5699C250.37 79.5699 250.37 79.6699 250.47 79.8599C250.633 80.9162 251.139 81.8896 251.91 82.6299L252.05 82.7299C253.173 84.3489 254.445 85.8588 255.85 87.2399C260.45 91.8399 266.15 95.9999 266.37 100.82C266.54 104.76 265.13 107.82 264.37 111.82H264.18C263.746 113.96 262.852 115.98 261.56 117.74C259.56 120.15 259.36 121.9 263.97 122.12C270.13 122.41 273.2 114.24 274.05 109.28C274.893 104.691 274.927 99.9903 274.15 95.3899C273.813 93.4028 273.161 91.4822 272.22 89.6999Z" fill="#263238" stroke="#263238" stroke-linecap="round" stroke-linejoin="round"/>
<path d="M142.47 292.3V283.2H115.67V292.3C115.667 295.269 114.663 298.151 112.82 300.48L111.65 302H146.48L145.31 300.52C143.461 298.18 142.46 295.282 142.47 292.3Z" fill="white" stroke="#263238" stroke-linecap="round" stroke-linejoin="round"/>
<g style="mix-blend-mode:multiply">
<path d="M114 298.67H144.09C143.014 296.719 142.45 294.527 142.45 292.3V283.2H115.65V292.3C115.647 294.528 115.079 296.72 114 298.67Z" fill="#8B18FF"/>
</g>
<path d="M142.47 284.57H115.67V288.41H142.47V284.57Z" fill="#263238" stroke="#263238" stroke-width="1.09543" stroke-linecap="round" stroke-linejoin="round"/>
<path d="M173.63 205.29H84.51C79.3792 205.29 75.22 209.449 75.22 214.58V276.78C75.22 281.911 79.3792 286.07 84.51 286.07H173.63C178.761 286.07 182.92 281.911 182.92 276.78V214.58C182.92 209.449 178.761 205.29 173.63 205.29Z" fill="#263238" stroke="#263238" stroke-width="1.09543" stroke-linecap="round" stroke-linejoin="round"/>
<path d="M75.22 273.51H182.92V276.77C182.92 277.99 182.68 279.198 182.213 280.325C181.746 281.452 181.062 282.476 180.199 283.339C179.336 284.201 178.312 284.886 177.185 285.353C176.058 285.819 174.85 286.06 173.63 286.06H84.51C83.29 286.06 82.082 285.819 80.9548 285.353C79.8277 284.886 78.8036 284.201 77.9409 283.339C77.0783 282.476 76.394 281.452 75.9271 280.325C75.4603 279.198 75.22 277.99 75.22 276.77V273.51Z" fill="white" stroke="#263238" stroke-linecap="round" stroke-linejoin="round"/>
<path d="M177.5 210.32H80.6299V267.39H177.5V210.32Z" fill="#8B18FF" stroke="#263238" stroke-width="1.09543" stroke-linecap="round" stroke-linejoin="round"/>
<path d="M131.05 279.79C131.05 279.394 130.933 279.008 130.713 278.679C130.493 278.35 130.181 278.094 129.815 277.942C129.45 277.791 129.048 277.751 128.66 277.828C128.272 277.906 127.916 278.096 127.636 278.376C127.356 278.656 127.166 279.012 127.088 279.4C127.011 279.788 127.051 280.19 127.202 280.555C127.354 280.921 127.61 281.233 127.939 281.453C128.268 281.673 128.654 281.79 129.05 281.79C129.58 281.79 130.089 281.579 130.464 281.204C130.839 280.829 131.05 280.32 131.05 279.79Z" fill="#263238" stroke="#263238" stroke-width="1.09543" stroke-linecap="round" stroke-linejoin="round"/>
<path d="M146.49 301.96H111.65V303.58H146.49V301.96Z" fill="white" stroke="#263238" stroke-linecap="round" stroke-linejoin="round"/>
<path d="M162.9 267.14L152.26 244.5H104.22L95.23 267.14H162.9Z" fill="white" stroke="#263238" stroke-linecap="round" stroke-linejoin="round"/>
<path d="M152.26 267.14V244.5L136.7 233.84L128.15 231.37L119.6 233.84L104.22 244.5V267.14H152.26Z" fill="white" stroke="#263238" stroke-linecap="round" stroke-linejoin="round"/>
<path d="M123 229.39C123 229.39 119.58 230.39 118.89 231.1C118.2 231.81 117.69 235.38 117.01 237.26C116.33 239.14 114.1 242.39 114.79 242.56C115.48 242.73 121.29 239.82 121.29 239.82L127.96 247.38L134.29 239.48C134.29 239.48 139.29 243.25 139.59 242.73C139.89 242.21 137.37 236.06 137.2 233.49C137.03 230.92 133.26 230.07 131.04 229.9C128.82 229.73 123 229.39 123 229.39Z" fill="white" stroke="#263238" stroke-linecap="round" stroke-linejoin="round"/>
<path d="M121.55 225.25V235.25L127.79 246.74L133.74 235.11V224.66L121.55 225.25Z" fill="white" stroke="#263238" stroke-linecap="round" stroke-linejoin="round"/>
<path d="M118.92 214C118.92 214 116.4 209.52 115 212C113.6 214.48 115.56 219.85 116.4 221.25C117.24 222.65 118.64 220.41 118.64 220.41" fill="white"/>
<path d="M118.92 214C118.92 214 116.4 209.52 115 212C113.6 214.48 115.56 219.85 116.4 221.25C117.24 222.65 118.64 220.41 118.64 220.41" stroke="#263238" stroke-linecap="round" stroke-linejoin="round"/>
<path d="M137 214C137 214 139.52 209.52 140.92 212C142.32 214.48 140.36 219.85 139.52 221.25C138.68 222.65 137.28 220.41 137.28 220.41" fill="white"/>
<path d="M137 214C137 214 139.52 209.52 140.92 212C142.32 214.48 140.36 219.85 139.52 221.25C138.68 222.65 137.28 220.41 137.28 220.41" stroke="#263238" stroke-linecap="round" stroke-linejoin="round"/>
<path d="M138.26 213.11C138.26 221 133.62 231.89 127.89 231.89C122.16 231.89 117.52 221 117.52 213.11C117.52 205.22 122.16 198.82 127.89 198.82C133.62 198.82 138.26 205.22 138.26 213.11Z" fill="white" stroke="#263238" stroke-linecap="round" stroke-linejoin="round"/>
<path d="M136.06 209.15C136.06 209.15 135.33 211.15 136.2 212.05C137.07 212.95 136.93 214.22 136.78 215.96C136.63 217.7 137.07 218.72 137.65 218.14C138.23 217.56 138.81 209.44 138.81 208.86C138.81 208.28 136.06 209.15 136.06 209.15Z" fill="#263238" stroke="#263238" stroke-linecap="round" stroke-linejoin="round"/>
<path d="M117.64 211.9L117.93 216.4C118.044 216.44 118.165 216.457 118.286 216.45C118.407 216.443 118.525 216.411 118.633 216.357C118.742 216.303 118.838 216.227 118.916 216.135C118.995 216.043 119.054 215.936 119.09 215.82C119.38 214.95 118.65 212.19 119.38 210.74C120.11 209.29 122.86 208.57 123 207.55C123.14 206.53 121.55 204.65 121.55 203.93C121.55 203.21 121.99 202.48 125.61 205.93C129.23 209.38 135.91 210.13 139.39 209.26C142.87 208.39 138.67 203.17 137.8 202.01C136.93 200.85 140.12 201.72 138.38 198.82C136.64 195.92 130.54 194.03 124.45 196.21C118.36 198.39 114.88 201.43 115.75 204.48C116.62 207.53 117.64 211.9 117.64 211.9Z" fill="#263238" stroke="#263238" stroke-linecap="round" stroke-linejoin="round"/>
<path d="M255.69 285.86V317.27" stroke="#263238" stroke-width="2" stroke-miterlimit="10"/>
<path d="M250.6 315.78L255.69 324.58L260.77 315.78H250.6Z" fill="#263238"/>
<path d="M255.69 218.61V187.2" stroke="#263238" stroke-width="2" stroke-miterlimit="10"/>
<path d="M260.77 188.69L255.69 179.89L250.6 188.69H260.77Z" fill="#263238"/>
<path d="M222.07 252.24H190.66" stroke="#263238" stroke-width="2" stroke-miterlimit="10"/>
<path d="M192.15 247.15L183.34 252.24L192.15 257.32V247.15Z" fill="#263238"/>
<path d="M201.03 173.49L178.06 196.46" stroke="#263238" stroke-width="2" stroke-miterlimit="10"/>
<path d="M196.38 170.94L206.2 168.31L203.57 178.14L196.38 170.94Z" fill="#263238"/>
<path d="M175.51 191.81L172.88 201.64L182.71 199.01L175.51 191.81Z" fill="#263238"/>
<path d="M311.93 173.49L334.9 196.46" stroke="#263238" stroke-width="2" stroke-miterlimit="10"/>
<path d="M309.38 178.14L306.75 168.31L316.57 170.95L309.38 178.14Z" fill="#263238"/>
<path d="M330.25 199.01L340.07 201.64L337.44 191.81L330.25 199.01Z" fill="#263238"/>
<path d="M201.03 326.59L178.06 303.62" stroke="#263238" stroke-width="2" stroke-miterlimit="10"/>
<path d="M203.57 321.95L206.21 331.77L196.38 329.14L203.57 321.95Z" fill="#263238"/>
<path d="M182.71 301.08L172.88 298.45L175.51 308.27L182.71 301.08Z" fill="#263238"/>
<path d="M311.93 326.59L334.9 303.62" stroke="#263238" stroke-width="2" stroke-miterlimit="10"/>
<path d="M316.57 329.14L306.75 331.77L309.38 321.95L316.57 329.14Z" fill="#263238"/>
<path d="M337.44 308.27L340.07 298.45L330.25 301.08L337.44 308.27Z" fill="#263238"/>
<path d="M289.31 252.24H320.72" stroke="#263238" stroke-width="2" stroke-miterlimit="10"/>
<path d="M319.23 257.32L328.04 252.24L319.23 247.15V257.32Z" fill="#263238"/>
<path d="M256.91 254.59H253.83V265.79H256.91C261.55 265.79 262.98 263.7 262.98 260C262.98 256.3 261.55 254.59 256.91 254.59Z" fill="#F9CB07"/>
<path d="M255.28 212.44C247.507 212.44 239.909 214.745 233.446 219.063C226.983 223.382 221.946 229.519 218.972 236.7C215.997 243.882 215.219 251.784 216.735 259.407C218.252 267.03 221.995 274.033 227.491 279.529C232.987 285.025 239.989 288.768 247.613 290.285C255.236 291.801 263.138 291.023 270.319 288.048C277.501 285.074 283.638 280.037 287.957 273.574C292.275 267.111 294.58 259.513 294.58 251.74C294.58 241.317 290.439 231.321 283.069 223.951C275.699 216.58 265.703 212.44 255.28 212.44ZM255.28 285.25C248.65 285.25 242.17 283.284 236.657 279.601C231.145 275.918 226.849 270.682 224.312 264.557C221.775 258.433 221.111 251.693 222.404 245.191C223.697 238.688 226.89 232.716 231.578 228.028C236.266 223.34 242.238 220.147 248.741 218.854C255.243 217.561 261.983 218.224 268.108 220.761C274.233 223.299 279.468 227.595 283.151 233.107C286.834 238.62 288.8 245.1 288.8 251.73C288.792 260.618 285.258 269.139 278.973 275.423C272.689 281.708 264.168 285.242 255.28 285.25Z" fill="#263238"/>
<path d="M262.1 244.06C262.1 240.8 260.67 239.2 256.58 239.2H253.83V249H256.58C260.61 249 262.1 247.31 262.1 244.06Z" fill="#F9CB07"/>
<path d="M255.28 220.52C249.104 220.518 243.067 222.348 237.931 225.777C232.796 229.207 228.792 234.083 226.428 239.788C224.064 245.493 223.445 251.771 224.649 257.828C225.854 263.885 228.827 269.449 233.194 273.816C237.561 278.183 243.125 281.156 249.182 282.361C255.239 283.565 261.517 282.946 267.222 280.582C272.927 278.217 277.803 274.214 281.232 269.079C284.662 263.943 286.492 257.906 286.49 251.73C286.482 243.455 283.191 235.521 277.34 229.67C271.489 223.819 263.555 220.528 255.28 220.52ZM261.54 270V277H257.54V270.28H253.86V277H249.86V270.29H241.01V265.02H242.75C243.13 264.957 243.481 264.773 243.749 264.496C244.017 264.219 244.189 263.863 244.24 263.48V241.23C244.191 240.847 244.019 240.49 243.751 240.212C243.482 239.935 243.131 239.752 242.75 239.69H241.01V234.46H249.86V227.7H253.86V234.46H257H257.62V227.7H261.62V234.76C267.87 235.65 271.17 238.57 271.17 243.68C271.17 248.19 268.61 250.4 263.9 251.37V251.57C269.38 252.39 272.4 255.06 272.4 259.92C272.32 265.74 268.27 269.09 261.54 270Z" fill="#F9CB07"/>
</svg>
