<svg width="500" height="500" viewBox="0 0 500 500" fill="none" xmlns="http://www.w3.org/2000/svg">
<path d="M89.0001 296.84H138C138 296.84 152.28 298.71 146.38 312.67H159.38C161.423 309.835 162.745 306.546 163.231 303.085C163.717 299.625 163.353 296.098 162.17 292.81C158.17 281.33 144.79 279.16 144.79 279.16H93.0001C93.0001 279.16 80.2601 284.43 89.0001 296.84Z" fill="#263238" stroke="#263238" stroke-width="1.1326" stroke-linecap="round" stroke-linejoin="round"/>
<path d="M200.54 365.41C195.37 349.41 187.84 337.2 189.72 319.34C190.52 311.79 193.72 304.45 194.01 296.88C194.7 276.16 168.88 276.36 162.46 258.7C156.82 243.19 156.35 236.61 145.07 236.14C133.79 235.67 95.71 231.44 86.78 233.79C77.85 236.14 71.26 257.79 63.78 267.16C56.3 276.53 47.33 289.73 53.44 307.16C59.55 324.59 68 347.54 68.91 367.29C69.82 387.04 69.85 405.83 69.85 405.83H204.77C204.77 405.83 205.71 381.39 200.54 365.41ZM141.78 310.41H106.05C102.745 310.317 99.606 308.939 97.301 306.568C94.9959 304.198 93.7063 301.022 93.7063 297.715C93.7063 294.408 94.9959 291.232 97.301 288.862C99.606 286.491 102.745 285.113 106.05 285.02H141.78C145.085 285.113 148.224 286.491 150.529 288.862C152.834 291.232 154.124 294.408 154.124 297.715C154.124 301.022 152.834 304.198 150.529 306.568C148.224 308.939 145.085 310.317 141.78 310.41Z" fill="#8B18FF" stroke="#263238" stroke-width="1.1326" stroke-linecap="round" stroke-linejoin="round"/>
<path d="M68.8501 259.06C77.5501 263.6 90.2701 272.49 97.8501 288.06C100.135 286.097 103.047 285.015 106.06 285.01H141.79C143.541 285.013 145.271 285.38 146.872 286.087C148.473 286.795 149.91 287.828 151.09 289.12L151.36 289.3C155.36 282.45 161.11 273.68 167.63 266.78C165.355 264.481 163.596 261.723 162.47 258.69C156.83 243.18 156.36 236.6 145.08 236.13C133.8 235.66 95.7201 231.43 86.7901 233.78C79.9101 235.59 74.4301 248.79 68.8501 259.06Z" fill="#263238" stroke="#263238" stroke-width="1.1326" stroke-linecap="round" stroke-linejoin="round"/>
<path d="M93.53 406.3H192.21C191.5 397.37 189.77 376.3 188.31 364C186.43 348 185.49 337.67 180.79 333C176.09 328.33 146.48 306.18 138 305.24C138 305.24 113.55 303.36 106 304.77C98.45 306.18 83 330.62 83 334.85C83 338.86 94 380 93.53 406.3Z" fill="#263238" stroke="#263238" stroke-width="1.1326" stroke-linecap="round" stroke-linejoin="round"/>
<path d="M74.08 363.06C72.67 343.31 57.63 297.72 54.34 290.2C53.4875 287.813 53.3656 285.226 53.99 282.77C50.7146 290.519 50.5037 299.222 53.4 307.12C59.51 324.51 67.97 347.54 68.91 367.29C69.85 387.04 69.85 405.83 69.85 405.83H73.76C74.17 396 75.25 379.39 74.08 363.06Z" fill="#263238" stroke="#263238" stroke-width="1.1326" stroke-linecap="round" stroke-linejoin="round"/>
<path d="M156.35 333.91C150.71 324.98 132.35 329.21 117.8 328.74C103.25 328.27 101.8 332.5 101.8 340.49C101.8 347.28 108.93 392.42 111.07 405.83H171C171 379.58 161.73 342.43 156.35 333.91Z" fill="#8B18FF" stroke="#263238" stroke-width="1.1326" stroke-linecap="round" stroke-linejoin="round"/>
<path d="M137.21 328.17C131.11 328.29 124.45 328.9 118.4 328.76C120.97 337.08 131.02 371.6 131.89 405.83H150.77C149.8 390.21 146.68 355.9 137.21 328.17Z" fill="white" stroke="#263238" stroke-width="1.1326" stroke-linecap="round" stroke-linejoin="round"/>
<path d="M265.463 84.488L158.092 76.8857L148.197 216.626L255.569 224.228L265.463 84.488Z" fill="#8B18FF"/>
<path opacity="0.5" d="M158.093 76.8941L148.199 216.634L255.57 224.237L265.464 84.4964L158.093 76.8941Z" fill="white"/>
<path d="M236.87 185.22L172.44 180C171.983 179.963 171.537 179.837 171.129 179.628C170.721 179.419 170.358 179.132 170.061 178.783C169.764 178.434 169.538 178.03 169.397 177.593C169.256 177.157 169.203 176.697 169.24 176.24L174 116.42C174.074 115.499 174.51 114.645 175.213 114.045C175.916 113.445 176.828 113.148 177.75 113.22L242.18 118.41C243.101 118.484 243.955 118.92 244.555 119.623C245.155 120.326 245.452 121.239 245.38 122.16L240.63 182C240.596 182.459 240.471 182.906 240.264 183.317C240.056 183.727 239.769 184.093 239.42 184.392C239.07 184.691 238.665 184.919 238.227 185.061C237.79 185.203 237.328 185.257 236.87 185.22Z" fill="white"/>
<path opacity="0.08" d="M209.63 154.74C209.554 154.086 209.691 153.425 210.02 152.854C210.349 152.284 210.852 151.834 211.456 151.572C212.06 151.309 212.733 151.248 213.374 151.397C214.016 151.546 214.592 151.897 215.019 152.399C215.445 152.901 215.699 153.527 215.743 154.184C215.787 154.841 215.618 155.495 215.261 156.048C214.905 156.602 214.38 157.027 213.764 157.259C213.148 157.492 212.473 157.52 211.84 157.34C211.256 157.173 210.735 156.837 210.342 156.374C209.949 155.912 209.701 155.343 209.63 154.74Z" fill="black"/>
<path opacity="0.08" d="M198.54 153.86C198.463 153.205 198.598 152.543 198.926 151.971C199.255 151.4 199.758 150.949 200.363 150.685C200.967 150.422 201.64 150.36 202.282 150.509C202.925 150.658 203.502 151.01 203.929 151.512C204.355 152.015 204.609 152.641 204.652 153.299C204.695 153.957 204.525 154.611 204.168 155.165C203.81 155.719 203.284 156.143 202.666 156.374C202.049 156.606 201.374 156.632 200.74 156.45C200.158 156.284 199.639 155.949 199.247 155.488C198.856 155.028 198.61 154.461 198.54 153.86Z" fill="black"/>
<path opacity="0.08" d="M177.57 163.52C177.423 162.273 177.68 161.012 178.305 159.923C178.929 158.834 179.888 157.974 181.038 157.472C182.189 156.969 183.471 156.85 184.694 157.133C185.917 157.415 187.018 158.083 187.832 159.038C188.646 159.994 189.132 161.186 189.216 162.439C189.301 163.692 188.98 164.938 188.302 165.995C187.623 167.051 186.623 167.861 185.448 168.305C184.274 168.749 182.988 168.803 181.78 168.46C180.67 168.143 179.678 167.505 178.929 166.626C178.18 165.747 177.707 164.667 177.57 163.52Z" fill="black"/>
<path opacity="0.08" d="M222.62 167.23C222.474 165.986 222.733 164.728 223.357 163.641C223.981 162.555 224.938 161.698 226.086 161.198C227.235 160.697 228.513 160.579 229.734 160.861C230.955 161.142 232.053 161.809 232.865 162.763C233.678 163.716 234.162 164.906 234.247 166.156C234.332 167.406 234.012 168.65 233.336 169.704C232.659 170.759 231.662 171.568 230.49 172.012C229.319 172.456 228.035 172.511 226.83 172.17C225.72 171.853 224.728 171.215 223.979 170.336C223.23 169.457 222.757 168.377 222.62 167.23Z" fill="black"/>
<path opacity="0.08" d="M213.41 167.94L208.42 167.54L208.82 162.54L204 162.16L203.6 167.15L198.6 166.75L198.22 171.57L203.21 171.97L202.81 176.97L207.63 177.35L208.03 172.36L213.03 172.76L213.41 167.94Z" fill="black"/>
<path opacity="0.08" d="M234.18 148.61L180.92 144.23C180.425 144.192 179.964 143.961 179.637 143.587C179.31 143.213 179.142 142.726 179.17 142.23L180.87 121.57C180.908 121.074 181.139 120.612 181.512 120.284C181.886 119.955 182.373 119.785 182.87 119.81L236.13 124.2C236.626 124.236 237.088 124.466 237.416 124.841C237.743 125.215 237.91 125.703 237.88 126.2L236.14 147C236.087 147.471 235.853 147.902 235.487 148.203C235.121 148.503 234.652 148.649 234.18 148.61Z" fill="black"/>
<path opacity="0.7" d="M163.44 84.6304L154.37 209.74L250.49 216.74L259.56 91.6404L163.44 84.6304ZM246.5 210.63L159.18 204.3L167.42 90.6504L254.75 97.0004L246.5 210.63Z" fill="white"/>
<path d="M425.723 111.945L318.647 122.954L332.974 262.309L440.05 251.301L425.723 111.945Z" fill="#8B18FF"/>
<path opacity="0.5" d="M425.723 111.945L318.647 122.954L332.974 262.309L440.05 251.301L425.723 111.945Z" fill="white"/>
<path d="M405.477 134.021L342.344 140.457C340.41 140.654 339.002 142.381 339.199 144.315L348.548 236.04C348.745 237.974 350.473 239.382 352.407 239.185L415.54 232.75C417.474 232.553 418.882 230.825 418.685 228.891L409.335 137.166C409.138 135.232 407.411 133.824 405.477 134.021Z" fill="white"/>
<path opacity="0.08" d="M383.35 199.12C383.13 198.402 383.148 197.632 383.4 196.924C383.652 196.216 384.125 195.608 384.749 195.19C385.373 194.772 386.116 194.565 386.866 194.602C387.617 194.638 388.336 194.915 388.917 195.391C389.498 195.868 389.91 196.518 390.092 197.247C390.275 197.976 390.218 198.744 389.93 199.438C389.643 200.132 389.139 200.715 388.494 201.101C387.849 201.487 387.098 201.655 386.35 201.58C385.664 201.509 385.014 201.238 384.481 200.801C383.947 200.364 383.554 199.779 383.35 199.12Z" fill="black"/>
<path opacity="0.08" d="M370.7 200.41C370.48 199.691 370.498 198.921 370.75 198.213C371.002 197.506 371.475 196.898 372.099 196.479C372.723 196.061 373.466 195.855 374.216 195.891C374.967 195.928 375.685 196.204 376.266 196.681C376.847 197.157 377.26 197.808 377.442 198.537C377.625 199.266 377.568 200.034 377.28 200.728C376.992 201.422 376.489 202.005 375.844 202.391C375.199 202.776 374.448 202.944 373.7 202.87C373.013 202.8 372.363 202.53 371.829 202.092C371.296 201.655 370.903 201.069 370.7 200.41Z" fill="black"/>
<path opacity="0.08" d="M377.81 207.47C377.59 206.751 377.608 205.981 377.86 205.273C378.112 204.566 378.585 203.958 379.209 203.539C379.833 203.121 380.576 202.915 381.326 202.951C382.077 202.988 382.796 203.264 383.377 203.741C383.958 204.217 384.37 204.868 384.552 205.597C384.735 206.326 384.678 207.094 384.39 207.788C384.102 208.482 383.599 209.065 382.954 209.451C382.309 209.837 381.558 210.005 380.81 209.93C380.123 209.862 379.472 209.591 378.938 209.154C378.404 208.716 378.012 208.13 377.81 207.47Z" fill="black"/>
<path opacity="0.08" d="M411.33 208.85L405.64 209.43L405.06 203.73L399.56 204.29L400.14 209.99L394.44 210.57L395 216.07L400.7 215.49L401.28 221.19L406.78 220.63L406.2 214.93L411.9 214.35L411.33 208.85Z" fill="black"/>
<path opacity="0.08" d="M369.74 213.09L364.04 213.67L363.46 207.98L357.96 208.54L358.54 214.23L352.84 214.81L353.4 220.31L359.1 219.73L359.68 225.43L365.18 224.87L364.6 219.17L370.3 218.59L369.74 213.09Z" fill="black"/>
<path opacity="0.08" d="M399.63 141.848L349.658 146.941C348.653 147.044 347.921 147.942 348.023 148.948L352.433 192.213C352.536 193.219 353.434 193.951 354.44 193.848L404.411 188.755C405.416 188.652 406.148 187.754 406.046 186.749L401.636 143.483C401.533 142.477 400.635 141.745 399.63 141.848Z" fill="black"/>
<path opacity="0.08" d="M389.598 220.997L375.809 222.402L376.581 229.973L390.369 228.568L389.598 220.997Z" fill="black"/>
<path d="M224.19 319.58C224.19 319.58 228.52 321.51 232.85 329.21C237.18 336.91 298.18 371.54 299.15 381.21C300.12 390.88 303.41 392.33 290.89 394.21C278.37 396.09 260.78 383.21 239.59 371.61C218.4 360.01 208.3 361 208.3 361L224.19 319.58Z" fill="white" stroke="#263238" stroke-width="1.1326" stroke-linecap="round" stroke-linejoin="round"/>
<path d="M286.54 370.74C286.54 370.74 273.06 372.48 268.28 378.13C263.5 383.78 270.87 392.61 275.44 394.28C280.01 395.95 293.93 394.65 297.84 387.28C301.75 379.91 298.71 378.15 293.49 374.28" fill="white"/>
<path d="M286.54 370.74C286.54 370.74 273.06 372.48 268.28 378.13C263.5 383.78 270.87 392.61 275.44 394.28C280.01 395.95 293.93 394.65 297.84 387.28C301.75 379.91 298.71 378.15 293.49 374.28" stroke="#263238" stroke-width="1.1326" stroke-linecap="round" stroke-linejoin="round"/>
<path d="M275.33 383.28C275.33 383.28 270.33 387.07 269.18 388.13C268.03 389.19 266.34 393.81 265.18 394.63C264.02 395.45 259.74 396.17 259.26 397.35C258.78 398.53 263.05 399.84 266.36 399.72C269.67 399.6 272.27 395.72 275.46 394.28C277.527 393.402 279.729 392.881 281.97 392.74C281.97 392.74 284.92 386.24 283.74 383.64C282.56 381.04 278 381.39 275.33 383.28Z" fill="white" stroke="#263238" stroke-width="1.1326" stroke-linecap="round" stroke-linejoin="round"/>
<path d="M287.19 376.3C286.135 376.11 285.055 376.11 284 376.3C281.439 376.664 278.906 377.206 276.42 377.92C275.19 378.54 273.29 386.35 272.37 390.04C271.45 393.73 267.8 400.38 269.37 400.69C270.94 401 274.81 401.87 275.47 399.5C276.54 395.72 278.91 388.69 278.91 388.69C278.91 388.69 277.06 395.46 277.98 396.69C278.9 397.92 293.67 397.61 295.52 396.99C297.37 396.37 301.67 388.38 301.98 384.07C302.21 380.4 291.84 377.19 287.19 376.3Z" fill="white" stroke="#263238" stroke-width="1.1326" stroke-linecap="round" stroke-linejoin="round"/>
<path d="M284.31 397.23L288.1 382.45" stroke="#263238" stroke-width="1.1326" stroke-linecap="round" stroke-linejoin="round"/>
<path d="M292.35 397L295.9 383.05" stroke="#263238" stroke-width="1.1326" stroke-linecap="round" stroke-linejoin="round"/>
<path d="M278.88 388.67L280.76 381.98" stroke="#263238" stroke-width="1.1326" stroke-linecap="round" stroke-linejoin="round"/>
<path d="M250.67 339.8C235.77 326.56 219.02 308.65 199.72 302.22C194.736 300.618 190.116 298.052 186.12 294.67C186.12 294.67 172.55 285.05 163.96 284.58C154.13 284.03 146.54 294.43 141.96 301.89C121.6 335.16 118.96 373.64 118.18 411.89H208.3C208.3 411.89 203.06 403.78 208.78 380.42C209.859 375.978 211.249 371.617 212.94 367.37C214.61 368.09 216.45 368.86 218.41 369.67C226.59 373.04 245.41 383.67 245.41 383.67L266.58 352.96C266.58 352.96 255 343.66 250.67 339.8Z" fill="white" stroke="#263238" stroke-width="1.1326" stroke-linecap="round" stroke-linejoin="round"/>
<path d="M168.46 290.86C165.82 286.15 160.08 281.3 151.09 286.48C139.45 293.18 104.84 362.29 102.46 372.78C100.08 383.27 148.7 390 167.77 390C179.578 389.978 191.376 389.354 203.12 388.13L206.87 390.47C206.87 390.47 206.87 399.53 210.21 400.47C213.55 401.41 224.04 401.47 227.37 399.52C230.7 397.57 229.76 392.37 229.76 392.37C229.76 392.37 232.14 402.86 235.95 403.81C237.213 404.139 238.537 404.16 239.81 403.87C240.11 403.798 240.386 403.65 240.611 403.439C240.836 403.229 241.003 402.963 241.095 402.669C241.187 402.374 241.2 402.061 241.135 401.76C241.069 401.459 240.926 401.18 240.72 400.95L239.72 399.76L233.13 385.22C233.13 385.22 231.31 377.36 228.93 377.36C226.55 377.36 207.39 377.11 207.39 377.11C207.39 377.11 174.97 373.3 161.14 369.48C147.31 365.66 140 360.33 140 360.33L166.52 317.07" fill="white"/>
<path d="M202.28 384.11C195.12 383.27 173.2 383.69 144.95 379.89C116.7 376.09 109.95 369.35 115.44 367.67C120.93 365.99 139.44 362.19 140.74 362.19C142.04 362.19 117.13 357.55 117.13 357.55L130.54 315.14C117.54 337.77 103.92 366.34 102.46 372.78C100.07 383.27 148.7 390 167.77 390C179.578 389.978 191.376 389.354 203.12 388.13L206.87 390.47C206.87 390.47 206.87 399.53 210.21 400.47C211.194 400.718 212.198 400.876 213.21 400.94C214.589 399.771 215.51 398.152 215.81 396.37C216.52 391.87 209.45 385 202.28 384.11Z" fill="#8B18FF"/>
<path opacity="0.5" d="M202.28 384.11C195.12 383.27 173.2 383.69 144.95 379.89C116.7 376.09 109.95 369.35 115.44 367.67C120.93 365.99 139.44 362.19 140.74 362.19C142.04 362.19 117.13 357.55 117.13 357.55L130.54 315.14C117.54 337.77 103.92 366.34 102.46 372.78C100.07 383.27 148.7 390 167.77 390C179.578 389.978 191.376 389.354 203.12 388.13L206.87 390.47C206.87 390.47 206.87 399.53 210.21 400.47C211.194 400.718 212.198 400.876 213.21 400.94C214.589 399.771 215.51 398.152 215.81 396.37C216.52 391.87 209.45 385 202.28 384.11Z" fill="white"/>
<path d="M168.46 290.86C165.82 286.15 160.08 281.3 151.09 286.48C139.45 293.18 104.84 362.29 102.46 372.78C100.08 383.27 148.7 390 167.77 390C179.578 389.978 191.376 389.354 203.12 388.13L206.87 390.47C206.87 390.47 206.87 399.53 210.21 400.47C213.55 401.41 224.04 401.47 227.37 399.52C230.7 397.57 229.76 392.37 229.76 392.37C229.76 392.37 232.14 402.86 235.95 403.81C237.213 404.139 238.537 404.16 239.81 403.87C240.11 403.798 240.386 403.65 240.611 403.439C240.836 403.229 241.003 402.963 241.095 402.669C241.187 402.374 241.2 402.061 241.135 401.76C241.069 401.459 240.926 401.18 240.72 400.95L239.72 399.76L233.13 385.22C233.13 385.22 231.31 377.36 228.93 377.36C226.55 377.36 207.39 377.11 207.39 377.11C207.39 377.11 174.97 373.3 161.14 369.48C147.31 365.66 140 360.33 140 360.33L166.52 317.07" stroke="#263238" stroke-width="1.1326" stroke-linecap="round" stroke-linejoin="round"/>
<path d="M222.23 385.06C222.23 385.06 225.77 395.44 225.77 397.14C225.718 398.319 225.429 399.475 224.92 400.54" stroke="#263238" stroke-width="1.1326" stroke-linecap="round" stroke-linejoin="round"/>
<path d="M216.15 386.66C216.15 386.66 219.54 396.29 219.83 398.27C219.945 398.775 219.927 399.301 219.778 399.797C219.629 400.293 219.354 400.742 218.98 401.1" stroke="#263238" stroke-width="1.1326" stroke-linecap="round" stroke-linejoin="round"/>
<path d="M229.76 392.33L227.47 383.55" stroke="#263238" stroke-width="1.1326" stroke-linecap="round" stroke-linejoin="round"/>
<path d="M206.87 390.42L211.61 392.04C211.61 392.04 214.45 393.46 212.18 395.44" fill="white"/>
<path d="M206.87 390.42L211.61 392.04C211.61 392.04 214.45 393.46 212.18 395.44" stroke="#263238" stroke-width="1.1326" stroke-linecap="round" stroke-linejoin="round"/>
<path d="M170.27 292.09C170.27 292.09 167.73 283.59 157.53 283.31C147.33 283.03 140 294.92 135.16 302C130.32 309.08 117.61 336.54 116.16 339.94C114.71 343.34 106.54 358.06 106.54 358.06C106.54 358.06 110.78 362.06 120.98 362.06H143.35C143.35 362.06 144.19 361.77 144.76 359.23C145.052 358.116 145.243 356.978 145.33 355.83L170.81 313.64" fill="white"/>
<path d="M170.27 292.09C170.27 292.09 167.73 283.59 157.53 283.31C147.33 283.03 140 294.92 135.16 302C130.32 309.08 117.61 336.54 116.16 339.94C114.71 343.34 106.54 358.06 106.54 358.06C106.54 358.06 110.78 362.06 120.98 362.06H143.35C143.35 362.06 144.19 361.77 144.76 359.23C145.052 358.116 145.243 356.978 145.33 355.83L170.81 313.64" stroke="#263238" stroke-width="1.1326" stroke-linecap="round" stroke-linejoin="round"/>
<path d="M239.83 390.53L241.85 395.59" stroke="#263238" stroke-width="1.1326" stroke-linecap="round" stroke-linejoin="round"/>
<path d="M241.35 386.99L243.88 393.06" stroke="#263238" stroke-width="1.1326" stroke-linecap="round" stroke-linejoin="round"/>
<path d="M223.94 346.39L212.94 367.36L230.03 352.05" stroke="#263238" stroke-width="1.1326" stroke-linecap="round" stroke-linejoin="round"/>
<path d="M199.72 302.22C194.736 300.617 190.116 298.052 186.12 294.67C186.12 294.67 183.88 293.08 180.65 291.17C182.44 299.94 187.91 325.17 192.21 329.44C196.34 333.57 205.09 315.92 208.57 306C205.724 304.509 202.765 303.245 199.72 302.22Z" fill="white" stroke="#263238" stroke-width="1.1326" stroke-linecap="round" stroke-linejoin="round"/>
<path d="M227.11 285.87C233.787 285.87 239.2 278.931 239.2 270.37C239.2 261.81 233.787 254.87 227.11 254.87C220.433 254.87 215.02 261.81 215.02 270.37C215.02 278.931 220.433 285.87 227.11 285.87Z" fill="white" stroke="#263238" stroke-width="1.1326" stroke-linecap="round" stroke-linejoin="round"/>
<path d="M186.7 266.9C186.7 266.9 184.96 286.57 186.12 294.67C187.28 302.77 191.9 328.22 195.37 321.28C198.84 314.34 211 291.78 211 291.78C211 291.78 190.17 276.16 186.7 266.9Z" fill="white"/>
<path d="M186.7 266.9C186.7 266.9 184.96 286.57 186.12 294.67C186.57 297.87 187.58 303.78 188.83 309.33L203.13 301.49L209.13 295.19L210.96 291.78C210.96 291.78 190.17 276.16 186.7 266.9Z" fill="#8B18FF"/>
<path opacity="0.5" d="M186.7 266.9C186.7 266.9 184.96 286.57 186.12 294.67C186.57 297.87 187.58 303.78 188.83 309.33L203.13 301.49L209.13 295.19L210.96 291.78C210.96 291.78 190.17 276.16 186.7 266.9Z" fill="white"/>
<path d="M186.7 266.9C186.7 266.9 184.96 286.57 186.12 294.67C187.28 302.77 191.9 328.22 195.37 321.28C198.84 314.34 211 291.78 211 291.78C211 291.78 190.17 276.16 186.7 266.9Z" stroke="#263238" stroke-width="1.1326" stroke-linecap="round" stroke-linejoin="round"/>
<path d="M183.22 263.43C183.22 263.43 179.22 239.13 182.65 229.87C186.08 220.61 198.85 215.99 213.89 220.62C228.93 225.25 237.61 229.87 239.89 240.29C242.17 250.71 234.11 257.07 234.11 257.07C234.11 257.07 227.16 240.87 219.11 239.13C211.06 237.39 203.49 236.82 204.65 242.6C205.81 248.38 206.39 255.91 202.92 258.8C199.45 261.69 198.87 262.85 197.13 267.48C195.39 272.11 190.19 276.74 186.13 271.48C182.07 266.22 183.22 263.43 183.22 263.43Z" fill="#263238" stroke="#263238" stroke-width="1.1326" stroke-linecap="round" stroke-linejoin="round"/>
<path d="M187.27 265.16C187.27 265.16 186.12 257.64 180.91 260.54C175.7 263.44 183.22 274.42 183.22 274.42C184.058 282.227 187.065 289.644 191.9 295.83C200 306.24 214 307.65 222 301C231 293.52 235.3 259.35 235.3 259.35C235.3 259.35 238.77 254.72 231.3 243.15C223.83 231.58 198.3 231.58 196.59 236.21C194.88 240.84 201.8 250.09 200.06 253.56C198.32 257.03 193.12 252.99 191.96 259.35C190.8 265.71 189.59 270.37 187.27 265.16Z" fill="white"/>
<path d="M231.24 243.18C223.72 231.61 198.24 231.61 196.53 236.24C194.82 240.87 201.74 250.12 200 253.59C198.26 257.06 193.06 253.02 191.9 259.38C190.74 265.74 189.59 270.38 187.27 265.16C187.27 265.16 186.12 257.64 180.91 260.54C175.7 263.44 183.22 274.42 183.22 274.42C184.058 282.227 187.065 289.643 191.9 295.83C194.325 299.034 197.545 301.549 201.24 303.128C204.935 304.706 208.978 305.293 212.97 304.83C209.513 304.306 206.179 303.161 203.13 301.45C195.13 296.81 193.01 287.96 195.54 278.26C198.07 268.56 203.97 244.96 206.94 242.56C209.91 240.16 211.94 242.01 218.3 247.91C224.66 253.81 228 253.39 228 253.39L234.51 249.18C233.599 247.088 232.504 245.08 231.24 243.18Z" fill="#8B18FF"/>
<path opacity="0.5" d="M231.24 243.18C223.72 231.61 198.24 231.61 196.53 236.24C194.82 240.87 201.74 250.12 200 253.59C198.26 257.06 193.06 253.02 191.9 259.38C190.74 265.74 189.59 270.38 187.27 265.16C187.27 265.16 186.12 257.64 180.91 260.54C175.7 263.44 183.22 274.42 183.22 274.42C184.058 282.227 187.065 289.643 191.9 295.83C194.325 299.034 197.545 301.549 201.24 303.128C204.935 304.706 208.978 305.293 212.97 304.83C209.513 304.306 206.179 303.161 203.13 301.45C195.13 296.81 193.01 287.96 195.54 278.26C198.07 268.56 203.97 244.96 206.94 242.56C209.91 240.16 211.94 242.01 218.3 247.91C224.66 253.81 228 253.39 228 253.39L234.51 249.18C233.599 247.088 232.504 245.08 231.24 243.18Z" fill="white"/>
<path d="M187.27 265.16C187.27 265.16 186.12 257.64 180.91 260.54C175.7 263.44 183.22 274.42 183.22 274.42C184.058 282.227 187.065 289.644 191.9 295.83C200 306.24 214 307.65 222 301C231 293.52 235.3 259.35 235.3 259.35C235.3 259.35 238.77 254.72 231.3 243.15C223.83 231.58 198.3 231.58 196.59 236.21C194.88 240.84 201.8 250.09 200.06 253.56C198.32 257.03 193.12 252.99 191.96 259.35C190.8 265.71 189.59 270.37 187.27 265.16Z" stroke="#263238" stroke-width="1.1326" stroke-linecap="round" stroke-linejoin="round"/>
<path d="M209.39 285.18C202.08 283.59 200.49 278.18 200.49 278.18" stroke="#263238" stroke-width="1.1326" stroke-linecap="round" stroke-linejoin="round"/>
<path d="M211.3 269.92C207.8 266.43 204.62 266.11 204.62 266.11" stroke="#263238" stroke-width="1.1326" stroke-linecap="round" stroke-linejoin="round"/>
<path d="M202.4 277.55L197.94 278.51" stroke="#263238" stroke-width="1.1326" stroke-linecap="round" stroke-linejoin="round"/>
<path d="M200.49 278.19C199.785 279.137 199.281 280.218 199.007 281.366C198.734 282.515 198.697 283.707 198.9 284.87C199.49 288.81 203.96 289.78 203.96 289.78C203.96 289.78 204.3 284.55 206.85 284.87C206.85 284.87 201.76 282 200.49 278.19Z" stroke="#263238" stroke-width="1.1326" stroke-linecap="round" stroke-linejoin="round"/>
<path d="M200 278.42C200 278.42 199.31 285.03 204 286.77" stroke="#263238" stroke-width="0.566302" stroke-linecap="round" stroke-linejoin="round"/>
<path d="M225.51 260.47C225.51 260.47 220.69 265.29 220.69 270.54C220.69 275.79 225.51 279.3 221.57 280.62C217.63 281.94 216.31 281.05 216.31 281.05" stroke="#263238" stroke-width="1.1326" stroke-linecap="round" stroke-linejoin="round"/>
<path d="M211.2 266.05C210.79 267.67 210.2 266.95 209.39 266.74C208.58 266.53 207.8 266.92 208.21 265.3C208.62 263.68 209.62 262.52 210.44 262.73C211.26 262.94 211.6 264.42 211.2 266.05Z" fill="#263238"/>
<path d="M227.84 268.67C227.43 270.3 226.43 271.45 225.61 271.24C224.79 271.03 224.44 269.55 224.85 267.92C225.26 266.29 226.26 265.15 227.08 265.35C227.9 265.55 228.25 267.05 227.84 268.67Z" fill="#263238"/>
<path d="M204.93 255.22C204.93 255.22 211 253.34 216.84 261.3" stroke="#263238" stroke-width="1.1326" stroke-linecap="round" stroke-linejoin="round"/>
<path d="M227.26 259.16C227.26 259.16 231.64 257.41 232.52 261.79" stroke="#263238" stroke-width="1.1326" stroke-linecap="round" stroke-linejoin="round"/>
<path d="M196.53 236.24C196.53 236.24 199.42 241.44 206.94 242.6C214.46 243.76 223.72 242.6 225.46 248.97C227.2 255.34 235.29 262.85 244.55 258.8C253.81 254.75 254.96 236.8 249.18 229.3C243.4 221.8 236.45 222.93 229.51 220.04C222.57 217.15 222.57 211.94 212.15 211.94C201.73 211.94 189.59 221.77 196.53 227.56" fill="#263238"/>
<path d="M196.53 236.24C196.53 236.24 199.42 241.44 206.94 242.6C214.46 243.76 223.72 242.6 225.46 248.97C227.2 255.34 235.29 262.85 244.55 258.8C253.81 254.75 254.96 236.8 249.18 229.3C243.4 221.8 236.45 222.93 229.51 220.04C222.57 217.15 222.57 211.94 212.15 211.94C201.73 211.94 189.59 221.77 196.53 227.56" stroke="#263238" stroke-width="1.1326" stroke-linecap="round" stroke-linejoin="round"/>
<path d="M184.49 279.87C191.167 279.87 196.58 272.931 196.58 264.37C196.58 255.81 191.167 248.87 184.49 248.87C177.813 248.87 172.4 255.81 172.4 264.37C172.4 272.931 177.813 279.87 184.49 279.87Z" fill="white" stroke="#263238" stroke-width="1.1326" stroke-linecap="round" stroke-linejoin="round"/>
<path d="M182.59 275.63C187.406 275.63 191.31 270.62 191.31 264.44C191.31 258.26 187.406 253.25 182.59 253.25C177.774 253.25 173.87 258.26 173.87 264.44C173.87 270.62 177.774 275.63 182.59 275.63Z" fill="#263238" stroke="#263238" stroke-width="1.1326" stroke-linecap="round" stroke-linejoin="round"/>
<path d="M180.91 262.8C180.364 262.803 179.835 262.606 179.423 262.247C179.01 261.888 178.743 261.392 178.67 260.85C178.075 255.532 178.092 250.164 178.72 244.85C178.754 244.555 178.846 244.269 178.991 244.009C179.135 243.749 179.33 243.52 179.563 243.335C179.796 243.151 180.063 243.013 180.349 242.932C180.635 242.85 180.935 242.826 181.23 242.86C181.526 242.894 181.811 242.986 182.071 243.131C182.331 243.276 182.56 243.47 182.745 243.703C182.93 243.936 183.067 244.203 183.148 244.489C183.23 244.775 183.254 245.075 183.22 245.37C182.648 250.316 182.625 255.309 183.15 260.26C183.192 260.555 183.176 260.854 183.101 261.142C183.027 261.43 182.896 261.701 182.717 261.938C182.538 262.175 182.313 262.374 182.056 262.524C181.799 262.674 181.515 262.771 181.22 262.81C181.117 262.816 181.013 262.813 180.91 262.8Z" fill="white" stroke="#263238" stroke-width="1.1326" stroke-linecap="round" stroke-linejoin="round"/>
<path d="M227 218.83C227.776 219.311 228.588 219.729 229.43 220.08C233.61 221.82 237.8 222.08 241.73 223.69C241.644 223.171 241.453 222.674 241.17 222.23C235.68 213.52 219.64 199.81 198.23 210.23C186.32 216 179 227.9 177 244.62C176.887 245.663 177.188 246.709 177.839 247.532C178.49 248.355 179.439 248.89 180.48 249.02H180.95C181.919 249.01 182.852 248.649 183.575 248.004C184.298 247.358 184.761 246.472 184.88 245.51C186 235.82 189.88 223.06 201.74 217.28C212.84 211.92 221.43 214.89 227 218.83Z" fill="white" stroke="#263238" stroke-width="1.1326" stroke-linecap="round" stroke-linejoin="round"/>
<path d="M323.46 401.55H182.96V407.22H323.46V401.55Z" fill="white" stroke="#263238" stroke-width="1.1326" stroke-linecap="round" stroke-linejoin="round"/>
<path d="M363.07 401.55H222.57V407.22H363.07V401.55Z" fill="white" stroke="#263238" stroke-width="1.1326" stroke-linecap="round" stroke-linejoin="round"/>
<path d="M139 392.4H159.74C162.029 392.4 164.224 393.309 165.842 394.928C167.461 396.546 168.37 398.741 168.37 401.03V411.4H130.37V401C130.378 398.716 131.291 396.529 132.908 394.917C134.526 393.305 136.716 392.4 139 392.4Z" fill="#8B18FF" stroke="#263238" stroke-width="1.1326" stroke-linecap="round" stroke-linejoin="round"/>
<path d="M140 396.75H148.8C151.089 396.75 153.284 397.659 154.902 399.278C156.521 400.896 157.43 403.091 157.43 405.38V415.75H131.42V405.37C131.423 403.092 132.326 400.907 133.934 399.292C135.541 397.677 137.722 396.763 140 396.75Z" fill="#263238" stroke="#263238" stroke-width="1.1326" stroke-linecap="round" stroke-linejoin="round"/>
<path d="M140 399.46H145.55C147.839 399.46 150.034 400.369 151.652 401.988C153.271 403.606 154.18 405.801 154.18 408.09V411.95H131.38V408.09C131.38 405.803 132.288 403.609 133.904 401.991C135.521 400.373 137.713 399.463 140 399.46Z" fill="#8B18FF" stroke="#263238" stroke-width="1.1326" stroke-linecap="round" stroke-linejoin="round"/>
<path d="M396.93 285.84H267.17V384.9H396.93V285.84Z" fill="white" stroke="#263238" stroke-width="1.1326" stroke-linecap="round" stroke-linejoin="round"/>
<path d="M402.29 285.84H272.53V384.9H402.29V285.84Z" fill="#263238" stroke="#263238" stroke-width="1.1326" stroke-linecap="round" stroke-linejoin="round"/>
<path d="M354.74 349.89H324.5V407.21H354.74V349.89Z" fill="white" stroke="#263238" stroke-width="1.1326" stroke-linecap="round" stroke-linejoin="round"/>
<path d="M459.96 405.33H57.8401V415.92H459.96V405.33Z" fill="white" stroke="#263238" stroke-width="1.1326" stroke-linecap="round" stroke-linejoin="round"/>
<path d="M459.96 405.33H197.17V415.92H459.96V405.33Z" fill="#263238" stroke="#263238" stroke-width="1.1326" stroke-linecap="round" stroke-linejoin="round"/>
</svg>
