<svg width="590" height="440" viewBox="0 0 590 440" fill="none" xmlns="http://www.w3.org/2000/svg">
<g clip-path="url(#clip0_57_770)">
<path d="M163.737 129.36H64.1135V53.1431H163.737V129.36ZM64.9002 128.48H162.95V54.0231H64.9002V128.48Z" fill="#EBEBEB"/>
<path d="M71.9013 58.0799C71.9013 58.5185 71.7851 58.9473 71.5672 59.3119C71.3494 59.6766 71.0398 59.9609 70.6776 60.1287C70.3153 60.2965 69.9167 60.3405 69.5322 60.2549C69.1476 60.1693 68.7944 59.9581 68.5172 59.648C68.2399 59.3378 68.0511 58.9427 67.9746 58.5125C67.8981 58.0824 67.9374 57.6365 68.0874 57.2313C68.2375 56.8261 68.4916 56.4797 68.8176 56.236C69.1436 55.9924 69.5268 55.8623 69.9189 55.8623C70.4447 55.8623 70.9489 56.0959 71.3207 56.5118C71.6925 56.9277 71.9013 57.4918 71.9013 58.0799Z" fill="#A6A6A6"/>
<path d="M80.0042 58.0799C80.0058 58.521 79.8902 58.9527 79.6721 59.3201C79.454 59.6876 79.1432 59.9743 78.7792 60.1439C78.4152 60.3135 78.0144 60.3584 77.6276 60.2728C77.2408 60.1871 76.8854 59.9749 76.6066 59.663C76.3278 59.3511 76.1381 58.9536 76.0615 58.5209C75.985 58.0882 76.0251 57.6398 76.1767 57.2326C76.3283 56.8255 76.5846 56.4778 76.9131 56.2339C77.2416 55.9899 77.6275 55.8606 78.0218 55.8623C78.5476 55.8623 79.0518 56.096 79.4236 56.5118C79.7953 56.9277 80.0042 57.4918 80.0042 58.0799Z" fill="#EBEBEB"/>
<path d="M88.1066 58.0799C88.1066 58.5185 87.9904 58.9473 87.7725 59.3119C87.5547 59.6766 87.2451 59.9609 86.8829 60.1287C86.5206 60.2965 86.122 60.3405 85.7375 60.2549C85.353 60.1693 84.9997 59.9581 84.7225 59.648C84.4452 59.3378 84.2564 58.9427 84.1799 58.5125C84.1034 58.0824 84.1427 57.6365 84.2927 57.2313C84.4428 56.8261 84.6969 56.4797 85.0229 56.236C85.3489 55.9924 85.7322 55.8623 86.1242 55.8623C86.65 55.8623 87.1542 56.0959 87.526 56.5118C87.8978 56.9277 88.1066 57.4918 88.1066 58.0799Z" fill="#8B18FF"/>
<path d="M163.344 61.9604H64.5068V62.8404H163.344V61.9604Z" fill="#EBEBEB"/>
<path d="M58.0876 133.47C58.434 133.231 58.833 133.104 59.24 133.104C59.6471 133.104 60.0461 133.231 60.3925 133.47C60.5813 133.605 60.778 133.728 60.9825 133.839C61.1792 133.962 61.3837 134.077 61.5882 134.191C61.9562 134.378 62.2708 134.675 62.4972 135.049C62.7235 135.423 62.8527 135.861 62.8705 136.312L62.957 139.48L72.1689 139.154L72.0824 135.995C72.0705 135.539 72.1724 135.089 72.3766 134.694C72.5809 134.299 72.8794 133.976 73.2388 133.76C73.6429 133.518 74.0342 133.251 74.4109 132.959C74.7396 132.697 75.1273 132.542 75.5303 132.513C75.9333 132.483 76.3357 132.58 76.6922 132.792L79.1781 134.288L83.5362 125.198L81.0268 123.728C80.671 123.514 80.3758 123.193 80.1742 122.801C79.9727 122.409 79.8729 121.962 79.8861 121.51C79.894 120.997 79.8783 120.483 79.8389 119.97C79.8002 119.519 79.8746 119.064 80.0539 118.657C80.2331 118.249 80.51 117.906 80.8537 117.665L83.2137 116.002L78.36 107.202L75.9449 108.874C75.6009 109.111 75.2046 109.237 74.8003 109.237C74.396 109.237 73.9997 109.111 73.6557 108.874C73.4669 108.745 73.2702 108.621 73.0657 108.504C72.869 108.381 72.6645 108.266 72.46 108.161C72.0902 107.972 71.7745 107.672 71.5481 107.295C71.3217 106.917 71.1935 106.477 71.1777 106.022L71.0912 102.863L61.8793 103.18L61.9658 106.33C61.9779 106.784 61.8769 107.233 61.674 107.626C61.4712 108.019 61.1745 108.342 60.8173 108.557C60.4161 108.803 60.0306 109.076 59.6452 109.366C59.3149 109.629 58.9259 109.783 58.5217 109.813C58.1175 109.842 57.714 109.746 57.356 109.534L54.8701 108.046L50.512 117.128L52.9978 118.624C53.3554 118.838 53.652 119.161 53.8537 119.554C54.0554 119.948 54.1541 120.397 54.1385 120.85C54.1614 121.372 54.2087 121.892 54.2801 122.408C54.317 122.86 54.2417 123.314 54.0627 123.721C53.8836 124.127 53.6077 124.471 53.2653 124.714L50.9053 126.377L55.759 135.133L58.0876 133.47ZM60.4004 117.198C61.1064 115.729 62.1858 114.527 63.5023 113.743C64.8189 112.96 66.3134 112.631 67.7972 112.797C69.2809 112.963 70.6874 113.618 71.8389 114.677C72.9904 115.737 73.8352 117.155 74.2667 118.752C74.6983 120.349 74.6971 122.053 74.2633 123.649C73.8296 125.245 72.9828 126.661 71.8298 127.719C70.6768 128.777 69.2695 129.429 67.7855 129.593C66.3015 129.756 64.8074 129.424 63.492 128.638C61.7269 127.579 60.4099 125.779 59.8303 123.634C59.2506 121.489 59.4556 119.174 60.4004 117.198Z" fill="#EBEBEB"/>
<path d="M513.977 228.377C514.321 228.138 514.719 228.011 515.125 228.011C515.531 228.011 515.929 228.138 516.274 228.377L516.864 228.756L517.477 229.099C517.845 229.286 518.16 229.582 518.386 229.957C518.613 230.331 518.742 230.768 518.759 231.22L518.846 234.388L528.058 234.062L527.971 230.903C527.961 230.45 528.063 230.002 528.267 229.61C528.472 229.218 528.77 228.898 529.128 228.685C529.528 228.438 529.916 228.167 530.292 227.876C530.623 227.615 531.012 227.462 531.416 227.433C531.819 227.403 532.223 227.499 532.581 227.709L535.067 229.205L539.425 220.114L536.939 218.627C536.583 218.411 536.287 218.089 536.086 217.695C535.884 217.302 535.785 216.854 535.799 216.401C535.807 215.89 535.791 215.379 535.751 214.869C535.713 214.416 535.788 213.96 535.967 213.552C536.146 213.143 536.423 212.798 536.766 212.555L539.126 210.892L534.273 202.092L531.857 203.773C531.513 204.01 531.117 204.136 530.713 204.136C530.309 204.136 529.912 204.01 529.568 203.773L528.978 203.403C528.782 203.28 528.577 203.165 528.373 203.06C528.003 202.873 527.687 202.575 527.46 202.199C527.234 201.823 527.106 201.383 527.09 200.93L527.004 197.762L517.792 198.079L517.878 201.238C517.891 201.691 517.79 202.138 517.587 202.53C517.384 202.922 517.087 203.243 516.73 203.456C516.325 203.701 515.933 203.975 515.558 204.274C515.227 204.535 514.837 204.688 514.433 204.716C514.029 204.744 513.626 204.646 513.269 204.433L510.783 202.945L506.464 212.08L508.95 213.567C509.305 213.784 509.599 214.107 509.801 214.5C510.002 214.893 510.102 215.341 510.09 215.793C510.083 216.307 510.098 216.821 510.138 217.333C510.175 217.786 510.099 218.241 509.918 218.648C509.737 219.055 509.459 219.398 509.115 219.639L506.755 221.302L511.609 230.102L513.977 228.377ZM516.289 212.08C516.996 210.611 518.076 209.409 519.393 208.626C520.71 207.844 522.205 207.515 523.689 207.682C525.173 207.85 526.579 208.505 527.73 209.566C528.881 210.627 529.725 212.045 530.155 213.643C530.586 215.24 530.584 216.944 530.149 218.54C529.714 220.136 528.866 221.551 527.712 222.608C526.558 223.665 525.15 224.316 523.666 224.478C522.182 224.64 520.688 224.307 519.373 223.52C518.498 222.996 517.724 222.285 517.096 221.426C516.467 220.567 515.996 219.578 515.71 218.515C515.423 217.453 515.327 216.337 515.426 215.233C515.526 214.129 515.819 213.057 516.289 212.08Z" fill="#EBEBEB"/>
<path d="M76.6686 160.433C76.9182 160.593 77.1236 160.828 77.2623 161.11C77.401 161.393 77.4678 161.712 77.4553 162.034C77.4553 162.21 77.4553 162.386 77.4553 162.562C77.4553 162.738 77.4553 162.923 77.4553 163.099C77.4712 163.419 77.4058 163.738 77.2665 164.018C77.1273 164.298 76.92 164.529 76.6686 164.683L74.9458 165.792L78.179 172.049L79.8939 170.94C80.1369 170.789 80.412 170.717 80.6894 170.729C80.9668 170.741 81.2358 170.839 81.4673 171.01C81.7347 171.204 82.0179 171.38 82.3011 171.547C82.5551 171.688 82.7691 171.904 82.9192 172.173C83.0693 172.442 83.1494 172.752 83.1507 173.069V175.278H89.6801V173.069C89.6814 172.752 89.7616 172.442 89.9116 172.173C90.0617 171.904 90.2757 171.688 90.5297 171.547C90.8129 171.38 91.0882 171.204 91.3163 171.01C91.5481 170.84 91.817 170.743 92.0943 170.73C92.3715 170.718 92.6465 170.79 92.8897 170.94L94.6046 172.049L97.8299 165.792L96.1071 164.683C95.8551 164.528 95.6475 164.295 95.5083 164.014C95.3691 163.732 95.304 163.412 95.3205 163.09C95.3205 162.914 95.3205 162.738 95.3205 162.562C95.3205 162.386 95.3205 162.21 95.3205 162.034C95.304 161.713 95.3691 161.393 95.5083 161.111C95.6475 160.829 95.8551 160.597 96.1071 160.441L97.8221 159.333L94.5967 153.076L92.8897 154.185C92.6409 154.338 92.3597 154.414 92.0757 154.403C91.7918 154.392 91.5158 154.295 91.277 154.123C91.0081 153.924 90.7297 153.742 90.4431 153.577C90.1886 153.438 89.9741 153.221 89.8239 152.952C89.6737 152.683 89.5939 152.372 89.5935 152.055V149.846H83.135V152.055C83.1346 152.372 83.0548 152.683 82.9046 152.952C82.7545 153.221 82.54 153.438 82.2854 153.577C81.9978 153.74 81.7194 153.922 81.4515 154.123C81.2172 154.287 80.9485 154.379 80.6723 154.39C80.3961 154.401 80.1222 154.33 79.8782 154.185L78.1869 153.12L74.9537 159.377L76.6686 160.433ZM86.4154 156.64C87.4628 156.638 88.4872 156.984 89.3589 157.634C90.2305 158.283 90.9104 159.208 91.3123 160.29C91.7142 161.372 91.8202 162.563 91.6168 163.712C91.4134 164.862 90.9098 165.918 90.1697 166.747C89.4296 167.576 88.4862 168.141 87.459 168.37C86.4318 168.599 85.3669 168.483 84.3991 168.035C83.4312 167.587 82.6039 166.828 82.0218 165.853C81.4397 164.879 81.129 163.734 81.129 162.562C81.1311 160.994 81.6884 159.49 82.6792 158.38C83.6699 157.27 85.0133 156.644 86.4154 156.64Z" fill="#EBEBEB"/>
<path d="M72.1061 250.8C72.1061 249.806 72.2241 247.157 72.2241 246.03C72.2241 241.199 70.6507 238.99 66.6623 238.885C64.7743 238.753 63.6494 237.494 63.6494 235.708C63.6494 233.922 64.7743 232.663 66.6623 232.531C70.6901 232.329 72.2241 230.208 72.2241 225.315C72.2241 224.189 72.1061 221.54 72.1061 220.546C72.1061 214.13 74.5369 209.986 83.7094 207.777C84.3332 207.614 84.9888 207.719 85.5466 208.072C86.1043 208.424 86.5236 208.997 86.7214 209.679C86.9192 210.36 86.8811 211.1 86.6147 211.752C86.3483 212.403 85.873 212.919 85.2827 213.198C79.5401 215.186 78.7141 217.237 78.7141 221.742C78.7141 223.062 78.8321 225.262 78.8321 226.635C78.8321 231.801 76.5822 234.318 72.6725 235.708C76.6058 237.16 78.8321 239.615 78.8321 244.772C78.8321 246.162 78.7141 248.345 78.7141 249.674C78.7141 254.17 79.5007 256.23 85.2827 258.21C85.8858 258.478 86.3749 258.993 86.6509 259.651C86.9269 260.308 86.9691 261.058 86.7689 261.749C86.5688 262.439 86.1413 263.019 85.5731 263.37C85.0049 263.721 84.3387 263.817 83.7094 263.639C74.5369 261.36 72.1061 257.259 72.1061 250.8Z" fill="#EBEBEB"/>
<path d="M106.782 220.519C106.782 221.513 106.664 224.162 106.664 225.289C106.664 230.181 108.238 232.329 112.289 232.505C114.122 232.637 115.247 233.895 115.247 235.681C115.247 237.468 114.122 238.726 112.289 238.858C108.261 238.99 106.664 241.173 106.664 246.004C106.664 247.13 106.782 249.779 106.782 250.773C106.782 257.259 104.359 261.333 95.1867 263.613C94.5431 263.846 93.8429 263.784 93.2403 263.44C92.6376 263.096 92.1818 262.498 91.9732 261.778C91.7646 261.058 91.8202 260.275 92.1277 259.6C92.4353 258.926 92.9697 258.416 93.6134 258.183C99.2931 256.203 100.127 254.144 100.127 249.647C100.127 248.318 100.009 246.127 100.009 244.745C100.009 239.589 102.251 237.072 106.161 235.681C102.227 234.221 100.009 231.774 100.009 226.609C100.009 225.218 100.127 223.036 100.127 221.716C100.127 217.21 99.2931 215.16 93.6134 213.171C93.1015 212.992 92.6563 212.63 92.3465 212.14C92.0366 211.65 91.8792 211.06 91.8985 210.461C91.8889 210.016 91.9748 209.575 92.1491 209.175C92.3233 208.775 92.5808 208.428 92.8998 208.163C93.2189 207.897 93.5902 207.721 93.9827 207.649C94.3751 207.577 94.7772 207.612 95.1553 207.75C104.359 209.994 106.782 214.104 106.782 220.519Z" fill="#EBEBEB"/>
<path d="M488.67 115.509C489.131 115.996 489.451 116.628 489.586 117.321C489.721 118.015 489.665 118.738 489.426 119.396C489.187 120.054 488.776 120.615 488.246 121.007C487.717 121.398 487.094 121.601 486.459 121.59C485.585 121.609 484.738 121.246 484.099 120.578L469.939 104.509C469.782 104.456 469.734 104.342 469.687 104.174C469.64 104.128 469.587 104.089 469.53 104.06C469.463 103.918 469.413 103.767 469.38 103.611C469.341 103.59 469.306 103.558 469.28 103.518C469.254 103.478 469.237 103.431 469.231 103.382C469.184 103.268 469.184 103.101 469.129 103.048C469.074 102.995 469.026 102.819 469.026 102.766V102.37C469.026 102.256 468.979 102.203 468.979 102.027C468.979 101.851 469.026 101.807 469.026 101.746V101.358C469.026 101.244 469.129 101.182 469.129 101.13C469.129 101.077 469.184 100.848 469.231 100.681C469.278 100.514 469.278 100.619 469.278 100.566C469.278 100.514 469.436 100.17 469.53 100.056C469.53 100.026 469.541 99.9965 469.56 99.975C469.579 99.9536 469.605 99.9415 469.632 99.9415C469.704 99.7858 469.809 99.6526 469.939 99.5543L484.099 83.4855C484.709 82.8335 485.521 82.4697 486.365 82.4697C487.208 82.4697 488.02 82.8335 488.63 83.4855C488.935 83.8139 489.177 84.2075 489.342 84.643C489.508 85.0784 489.593 85.5467 489.593 86.0199C489.593 86.4931 489.508 86.9614 489.342 87.3968C489.177 87.8323 488.935 88.2259 488.63 88.5543L476.72 102.027L488.67 115.509Z" fill="#EBEBEB"/>
<path d="M501.524 117.313L513.866 84.48C514.011 84.1012 514.221 83.7583 514.485 83.4708C514.749 83.1833 515.061 82.957 515.403 82.8049C515.745 82.6527 516.111 82.5778 516.479 82.5844C516.847 82.591 517.21 82.6789 517.548 82.8432C517.876 83.002 518.173 83.2316 518.421 83.5191C518.67 83.8065 518.865 84.1459 518.996 84.5179C519.127 84.89 519.19 85.2872 519.184 85.687C519.177 86.0867 519.1 86.481 518.956 86.8472L506.613 119.733C506.394 120.29 506.033 120.762 505.576 121.092C505.119 121.422 504.585 121.595 504.041 121.59C503.695 121.597 503.352 121.522 503.034 121.37C502.692 121.221 502.38 120.997 502.117 120.71C501.855 120.424 501.647 120.08 501.506 119.701C501.364 119.322 501.293 118.916 501.296 118.505C501.3 118.095 501.377 117.689 501.524 117.313Z" fill="#EBEBEB"/>
<path d="M543.351 104.06C543.351 104.074 543.346 104.087 543.337 104.097C543.328 104.107 543.316 104.113 543.304 104.113C543.198 104.257 543.079 104.39 542.95 104.509L528.79 120.577C528.177 121.228 527.365 121.591 526.52 121.591C525.675 121.591 524.863 121.228 524.251 120.577C523.952 120.245 523.715 119.85 523.553 119.415C523.391 118.981 523.308 118.514 523.308 118.043C523.308 117.572 523.391 117.105 523.553 116.67C523.715 116.235 523.952 115.841 524.251 115.509L536.192 102.027L524.251 88.5542C523.952 88.2221 523.715 87.8272 523.553 87.3923C523.391 86.9573 523.308 86.4909 523.308 86.0198C523.308 85.5487 523.391 85.0822 523.553 84.6472C523.715 84.2123 523.952 83.8174 524.251 83.4854C524.862 82.8328 525.675 82.4687 526.52 82.4688C527.365 82.4688 528.178 82.8328 528.79 83.4854L542.95 99.5542C543.079 99.6697 543.197 99.7994 543.304 99.9414C543.351 99.9414 543.351 100.056 543.351 100.056C543.444 100.22 543.528 100.39 543.603 100.566C543.603 100.619 543.658 100.619 543.658 100.681C543.689 100.854 543.74 101.022 543.807 101.182C543.807 101.244 543.854 101.244 543.854 101.358V101.745C543.854 101.807 543.909 101.974 543.909 102.027C543.909 102.08 543.854 102.256 543.854 102.309V102.766C543.854 102.819 543.807 102.819 543.807 102.881C543.746 103.043 543.696 103.211 543.658 103.382C543.658 103.444 543.603 103.444 543.603 103.549C543.603 103.655 543.453 103.84 543.351 104.06Z" fill="#EBEBEB"/>
<path d="M46.8225 306.416C205.824 305.87 384.177 305.87 543.209 306.416C384.208 306.953 205.855 306.953 46.8225 306.416Z" fill="#263238"/>
<path d="M543.587 175.798C525.21 203.641 506.047 235.946 501.382 270.838C501.327 271.366 502.082 271.542 502.169 271.014C504.282 261.494 506.997 252.154 510.295 243.065C522.378 239.343 534.233 236.289 540.582 222.878C547.048 209.088 546.23 191.11 544.995 176.088C544.955 175.305 543.98 175.261 543.587 175.798Z" fill="#8B18FF"/>
<path d="M510.547 242.818C518.807 222.094 529.427 201.291 542.871 184.254C542.957 184.14 543.099 184.298 543.02 184.413C534.202 196.548 527.499 209.766 520.994 223.212C527.074 216.304 533.745 210.118 539.512 202.787C539.622 202.646 539.803 202.858 539.693 202.998C533.974 210.681 527.72 219.023 520.27 224.708C518.266 228.815 516.245 232.951 514.205 237.116C514.708 236.799 515.219 236.526 515.739 236.236C515.825 236.192 515.904 236.342 515.817 236.394C515.251 236.711 514.684 237.054 514.094 237.327C513.127 239.29 512.175 241.252 511.176 243.206C510.893 243.637 510.35 243.258 510.547 242.818Z" fill="#263238"/>
<path d="M516.667 235.585C521.609 232.485 526.325 228.954 530.772 225.025C530.89 224.92 531.063 225.104 530.945 225.219C526.629 229.399 521.896 233.008 516.84 235.972C516.643 236.104 516.439 235.735 516.667 235.585Z" fill="#263238"/>
<path d="M499.282 265.663C499.321 266.086 499.958 266.086 499.95 265.663C500.053 254.171 499.95 242.625 500.116 231.071C502.751 225.131 508.399 221.839 512.333 217.079C515.158 213.59 517.618 209.752 519.664 205.639C524.518 195.959 527.153 184.976 528.16 173.959C529.246 161.639 525.077 121.088 520.443 122.496C518.044 123.227 510.264 143.326 508.203 149.97C504.856 160.927 502.407 172.203 500.886 183.656C497.126 210.663 497.441 238.48 499.282 265.663Z" fill="#8B18FF"/>
<path d="M499.211 216.076L499.258 216.023C499.817 201.476 502.751 186.789 505.488 172.683C508.446 157.485 511.9 143.168 518.862 129.616C518.89 129.565 518.934 129.529 518.986 129.515C519.037 129.5 519.092 129.509 519.138 129.539C519.184 129.568 519.217 129.617 519.232 129.674C519.247 129.731 519.241 129.792 519.216 129.844C514.549 140.385 510.937 151.47 508.446 162.897C508.918 162.079 509.485 161.304 509.973 160.53C510.161 160.222 510.618 160.53 510.429 160.82C509.801 162.047 509.069 163.202 508.242 164.27C508.216 164.298 508.183 164.316 508.147 164.323C505.74 175.182 504.017 186.323 502.538 197.384C502.649 197.244 502.751 197.085 502.861 196.953C502.879 196.938 502.9 196.93 502.923 196.93C502.945 196.93 502.966 196.938 502.984 196.953C503.002 196.968 503.015 196.989 503.021 197.013C503.027 197.037 503.026 197.062 503.018 197.085C502.83 197.455 502.625 197.816 502.428 198.185C501.642 203.808 500.989 209.423 500.296 214.993C509.249 206.431 516.903 196.337 521.214 183.903C521.218 183.893 521.224 183.885 521.231 183.88C521.239 183.874 521.248 183.871 521.257 183.871C521.266 183.871 521.275 183.874 521.283 183.88C521.291 183.885 521.297 183.893 521.3 183.903C517.076 196.795 510.413 208.261 500.155 216.093L499.588 220.581C499.549 220.889 499.109 220.81 499.109 220.511C499.109 219.182 499.172 217.871 499.219 216.524C499.19 216.497 499.166 216.463 499.15 216.425C499.134 216.386 499.125 216.344 499.124 216.302C499.124 216.26 499.131 216.217 499.146 216.178C499.161 216.139 499.183 216.104 499.211 216.076Z" fill="#263238"/>
<path d="M503.467 194.991C510.311 183.551 516.699 172.471 521.71 159.843C521.765 159.703 521.985 159.843 521.93 159.949C517.713 172.498 511.805 185.214 503.836 195.29C503.608 195.492 503.286 195.228 503.467 194.991Z" fill="#263238"/>
<path d="M512.521 157.019C515.353 151.413 518.343 145.948 521.017 140.228C521.088 140.07 521.285 140.228 521.222 140.36C519.038 146.335 516.268 152.019 512.962 157.309C512.773 157.6 512.356 157.344 512.521 157.019Z" fill="#263238"/>
<path d="M511.412 159.465C511.421 159.469 511.428 159.476 511.433 159.484C511.438 159.493 511.44 159.503 511.44 159.513C511.44 159.524 511.438 159.534 511.433 159.542C511.428 159.551 511.421 159.558 511.412 159.562C511.404 159.558 511.397 159.551 511.392 159.542C511.386 159.534 511.384 159.524 511.384 159.513C511.384 159.503 511.386 159.493 511.392 159.484C511.397 159.476 511.404 159.469 511.412 159.465Z" fill="#263238"/>
<path d="M492.328 232.417C492.189 240.037 491.385 247.623 489.928 255.068C490.031 255.887 490.133 256.705 490.243 257.55C492.339 249.324 493.554 240.849 493.862 232.303C493.924 232.184 493.957 232.049 493.957 231.911C493.957 231.773 493.924 231.638 493.862 231.519C494.178 220.055 493.442 208.584 491.667 197.287C488.481 176.167 481.527 155.883 468.358 140.043C468.249 139.94 468.12 139.866 467.981 139.826C467.843 139.786 467.698 139.782 467.557 139.815C467.417 139.847 467.285 139.914 467.172 140.012C467.059 140.109 466.966 140.235 466.903 140.378C461.585 155.496 463.441 173.545 467.972 188.628C470.437 196.783 473.954 204.491 478.411 211.508C482.895 218.645 488.654 224.655 492.328 232.417Z" fill="#8B18FF"/>
<path d="M469.876 147.118C482.36 169.787 491.045 196.654 492.107 223.432C492.107 223.907 491.415 224.03 491.32 223.546C491.029 221.135 490.699 218.75 490.353 216.383C485.192 210.848 479.89 205.005 476.193 198.097C476.122 197.974 476.279 197.833 476.366 197.938C480.858 203.685 485.019 209.572 490.125 214.658C489.238 208.733 488.171 202.905 486.923 197.173C486.585 196.742 486.262 196.293 485.932 195.87C485.719 195.589 486.073 195.175 486.302 195.457L486.6 195.826C484.842 187.962 482.664 180.221 480.079 172.647C476.932 168.406 473.345 164.727 471.032 159.632C471.02 159.608 471.016 159.578 471.023 159.551C471.03 159.524 471.046 159.501 471.068 159.487C471.09 159.473 471.116 159.469 471.14 159.477C471.164 159.484 471.185 159.502 471.198 159.526C472.993 162.49 474.92 165.35 476.972 168.098C477.813 169.18 478.734 170.192 479.607 171.239C476.725 163.026 473.307 155.061 469.38 147.409C469.346 147.335 469.339 147.249 469.361 147.17C469.383 147.091 469.433 147.025 469.498 146.986C469.564 146.948 469.641 146.94 469.712 146.965C469.782 146.99 469.842 147.045 469.876 147.118Z" fill="#263238"/>
<path d="M472.401 175.12C476.437 181.201 481.054 186.991 484.783 193.275C484.893 193.451 484.657 193.635 484.524 193.495C479.701 188.443 475.626 181.535 472.126 175.305C472 175.059 472.283 174.9 472.401 175.12Z" fill="#263238"/>
<path d="M485.373 194.639L485.546 194.832C485.664 194.964 485.475 195.167 485.357 195.035L485.184 194.841C485.043 194.709 485.232 194.48 485.373 194.639Z" fill="#263238"/>
<path d="M450.319 190.687C451.319 202.347 456.802 216.278 463.488 225.263C466.431 229.169 470.069 232.346 474.171 234.591C478.797 237.151 483.611 240.099 488.433 242.203C490.705 248.678 492.395 255.39 493.476 262.24C493.633 261.659 493.783 261.052 493.94 260.48C490.864 230.965 473.794 205.727 451.948 189.526C451.777 189.402 451.578 189.336 451.375 189.335C451.171 189.335 450.972 189.399 450.8 189.522C450.629 189.644 450.492 189.819 450.407 190.026C450.322 190.232 450.291 190.462 450.319 190.687Z" fill="#8B18FF"/>
<path d="M457.84 199.417C457.683 199.259 457.895 198.951 458.06 199.092C469.64 208.684 480.087 222.676 485.9 237.468C486.058 237.873 485.562 238.225 485.358 237.82C484.343 235.832 483.304 233.896 482.211 231.995C477.224 230.948 472.504 227.023 468.838 223.292C468.735 223.195 468.885 223.028 468.979 223.124C470.883 225.066 472.998 226.734 475.273 228.088C477.31 229.24 479.497 229.971 481.613 230.895C479.764 227.612 477.837 224.462 475.831 221.408C470.458 219.367 465.353 215.68 460.885 211.992C460.743 211.878 460.884 211.614 461.026 211.72C465.532 214.769 470.18 217.548 474.95 220.044C471.908 215.551 468.625 211.269 465.117 207.223C463.425 206.22 461.703 205.216 460.059 204.143C459.925 204.055 460.059 203.8 460.169 203.861C461.534 204.393 462.836 205.108 464.047 205.991C462.072 203.764 460.035 201.564 457.84 199.417Z" fill="#263238"/>
<path d="M458.328 209.607C458.624 209.804 458.906 210.028 459.169 210.276C459.248 210.355 459.169 210.47 459.059 210.435C458.757 210.272 458.466 210.087 458.186 209.88C458.037 209.766 458.178 209.502 458.328 209.607Z" fill="#263238"/>
<path d="M474.407 251.768H521.796L517.131 306.407H479.072L474.407 251.768Z" fill="#455A64"/>
<path d="M475.304 262.258L474.407 251.768H521.796L521.222 258.535L475.304 262.258Z" fill="#37474F"/>
<path d="M525.006 242.361H471.206V255.666H525.006V242.361Z" fill="#455A64"/>
<path d="M477.318 36.8984H112.69V309.742H477.318V36.8984Z" fill="#DBDBDB"/>
<path d="M474.667 40.2246H115.341V306.416H474.667V40.2246Z" fill="#263238"/>
<path d="M524.801 373.12H65.199V392.023H524.801V373.12Z" fill="#C7C7C7"/>
<path d="M65.199 373.12L112.69 309.743H477.31L524.801 373.12H65.199Z" fill="#DBDBDB"/>
<path d="M477.294 338.475H114.083L132.703 309.743H458.674L477.294 338.475Z" fill="#263238"/>
<path d="M470.789 328.434H120.588L121.343 327.264H470.033L470.789 328.434Z" fill="#37474F"/>
<path d="M463.984 317.944H127.393L128.148 316.765H463.229L463.984 317.944Z" fill="#37474F"/>
<path d="M238.777 365.992L250.545 345.77H340.013L352.608 365.992H238.777Z" fill="#263238"/>
<path d="M328.709 380.715H262.668L261.032 373.12H330.353L328.709 380.715Z" fill="#DBDBDB"/>
<path d="M454.63 60.4473H135.377V286.572H454.63V60.4473Z" fill="#37474F"/>
<path d="M454.63 60.4473H135.377V69.1505H454.63V60.4473Z" fill="#8B18FF"/>
<path d="M142.694 64.7945C142.694 65.12 142.607 65.4382 142.446 65.7088C142.284 65.9794 142.054 66.1903 141.785 66.3149C141.517 66.4394 141.221 66.472 140.936 66.4085C140.65 66.345 140.388 66.1883 140.182 65.9582C139.977 65.728 139.836 65.4348 139.78 65.1156C139.723 64.7964 139.752 64.4655 139.863 64.1648C139.975 63.8641 140.163 63.6071 140.405 63.4263C140.647 63.2455 140.932 63.1489 141.223 63.1489C141.416 63.1478 141.608 63.1895 141.787 63.2718C141.966 63.3541 142.128 63.4753 142.265 63.6283C142.402 63.7814 142.51 63.9632 142.584 64.1634C142.657 64.3636 142.695 64.5781 142.694 64.7945Z" fill="#C7C7C7"/>
<path d="M148.68 64.7945C148.68 65.12 148.594 65.4382 148.432 65.7088C148.27 65.9794 148.041 66.1903 147.772 66.3149C147.503 66.4394 147.207 66.472 146.922 66.4085C146.637 66.345 146.374 66.1883 146.169 65.9582C145.963 65.728 145.823 65.4348 145.766 65.1156C145.709 64.7964 145.738 64.4655 145.85 64.1648C145.961 63.8641 146.15 63.6071 146.392 63.4263C146.633 63.2455 146.918 63.1489 147.209 63.1489C147.402 63.1478 147.594 63.1895 147.773 63.2718C147.952 63.3541 148.115 63.4753 148.251 63.6283C148.388 63.7814 148.497 63.9632 148.57 64.1634C148.644 64.3636 148.681 64.5781 148.68 64.7945Z" fill="white"/>
<path d="M154.714 64.7945C154.714 65.12 154.628 65.4382 154.466 65.7088C154.304 65.9794 154.075 66.1903 153.806 66.3149C153.537 66.4394 153.241 66.472 152.956 66.4085C152.67 66.345 152.408 66.1883 152.203 65.9582C151.997 65.728 151.857 65.4348 151.8 65.1156C151.743 64.7964 151.772 64.4655 151.884 64.1648C151.995 63.8641 152.184 63.6071 152.426 63.4263C152.667 63.2455 152.952 63.1489 153.243 63.1489C153.436 63.1478 153.628 63.1895 153.807 63.2718C153.986 63.3541 154.149 63.4753 154.285 63.6283C154.422 63.7814 154.53 63.9632 154.604 64.1634C154.678 64.3636 154.715 64.5781 154.714 64.7945Z" fill="#455A64"/>
<path d="M164.76 107.809H155.776V110.862H164.76V107.809Z" fill="#EBEBEB"/>
<path d="M374.461 107.809H175.356V110.862H374.461V107.809Z" fill="#EBEBEB"/>
<path d="M397.046 107.809H379.984V110.862H397.046V107.809Z" fill="#8B18FF"/>
<path d="M164.76 122.25H155.776V125.303H164.76V122.25Z" fill="#EBEBEB"/>
<path d="M251.726 122.25H184.112V125.303H251.726V122.25Z" fill="#A6A6A6"/>
<path d="M403.23 180.03H377.655V183.084H403.23V180.03Z" fill="#A6A6A6"/>
<path d="M239.941 165.581H175.356V168.635H239.941V165.581Z" fill="#A6A6A6"/>
<path d="M229.424 136.699H184.112V139.753H229.424V136.699Z" fill="#8B18FF"/>
<path d="M402.876 136.699H234.45V139.753H402.876V136.699Z" fill="#A6A6A6"/>
<path d="M371.81 180.03H175.356V183.084H371.81V180.03Z" fill="#8B18FF"/>
<path d="M395.143 122.25H255.974V125.303H395.143V122.25Z" fill="#EBEBEB"/>
<path d="M164.76 136.699H155.776V139.753H164.76V136.699Z" fill="#EBEBEB"/>
<path d="M164.76 151.14H155.776V154.194H164.76V151.14Z" fill="#A6A6A6"/>
<path d="M228.44 151.14H175.356V154.194H228.44V151.14Z" fill="#EBEBEB"/>
<path d="M237.196 194.471H184.112V197.525H237.196V194.471Z" fill="#EBEBEB"/>
<path d="M374.524 208.921H232.114V211.974H374.524V208.921Z" fill="#EBEBEB"/>
<path d="M224.011 208.921H184.112V211.974H224.011V208.921Z" fill="#A6A6A6"/>
<path d="M397.039 165.581H243.591V168.635H397.039V165.581Z" fill="#EBEBEB"/>
<path d="M387.221 151.14H233.837V154.194H387.221V151.14Z" fill="#8B18FF"/>
<path d="M164.76 165.581H155.776V168.635H164.76V165.581Z" fill="#EBEBEB"/>
<path d="M164.76 180.03H155.776V183.084H164.76V180.03Z" fill="#EBEBEB"/>
<path d="M164.76 194.471H155.776V197.525H164.76V194.471Z" fill="#A6A6A6"/>
<path d="M164.76 208.921H155.776V211.974H164.76V208.921Z" fill="#EBEBEB"/>
<path d="M164.76 222.033H155.776V225.086H164.76V222.033Z" fill="#EBEBEB"/>
<path d="M280.675 222.033H175.356V225.086H280.675V222.033Z" fill="#EBEBEB"/>
<path d="M161.345 93.6586L163.28 88.5018C163.303 88.4424 163.335 88.3886 163.376 88.3436C163.418 88.2985 163.466 88.263 163.52 88.2393C163.573 88.2155 163.63 88.2039 163.688 88.2052C163.745 88.2064 163.802 88.2205 163.855 88.2466C163.907 88.2706 163.954 88.3059 163.993 88.3504C164.033 88.3949 164.064 88.4477 164.085 88.5058C164.106 88.5639 164.117 88.6261 164.117 88.6889C164.116 88.7516 164.105 88.8136 164.083 88.8714L162.14 94.037C162.106 94.1241 162.05 94.1981 161.978 94.2498C161.907 94.3014 161.824 94.3284 161.739 94.3274C161.687 94.3397 161.633 94.3397 161.581 94.3274C161.524 94.3048 161.471 94.2687 161.427 94.2214C161.383 94.1741 161.349 94.1168 161.327 94.0534C161.304 93.9899 161.294 93.9218 161.297 93.8537C161.301 93.7856 161.317 93.719 161.345 93.6586Z" fill="#8B18FF"/>
<path d="M167.906 91.5729L167.851 91.6433L165.617 94.1601C165.522 94.2623 165.395 94.3194 165.263 94.3194C165.131 94.3194 165.004 94.2623 164.909 94.1601C164.862 94.1085 164.825 94.0469 164.799 93.9789C164.773 93.9109 164.76 93.8379 164.76 93.7641C164.76 93.6904 164.773 93.6173 164.799 93.5493C164.825 93.4814 164.862 93.4197 164.909 93.3681L166.773 91.2561L164.901 89.1441C164.854 89.0925 164.817 89.0309 164.791 88.9629C164.766 88.8949 164.752 88.8219 164.752 88.7481C164.752 88.6744 164.766 88.6013 164.791 88.5333C164.817 88.4653 164.854 88.4037 164.901 88.3521C164.996 88.2499 165.123 88.1929 165.255 88.1929C165.387 88.1929 165.514 88.2499 165.609 88.3521L167.835 90.8689L167.891 90.9305C167.905 90.9561 167.918 90.9825 167.93 91.0097C167.928 91.0361 167.928 91.0626 167.93 91.0889V91.1505V91.2209C167.929 91.2473 167.929 91.2737 167.93 91.3001L167.906 91.5729Z" fill="#8B18FF"/>
<path d="M287.755 215.318H286.528V231.801H287.755V215.318Z" fill="#EBEBEB"/>
<path d="M183.128 405.548C183.128 405.548 214.099 390.148 219.197 387.543C229.424 382.325 247.737 366.247 255.572 360.589C260.151 357.28 256.493 346.095 242.569 347.996C228.645 349.897 202.685 365.068 200.451 361.803C198.216 358.538 234.277 334.303 239.335 332.349C244.394 330.396 261.095 337.999 271.188 334.109C281.281 330.22 276.018 320.188 267.978 316.413C257.327 311.405 237.038 308.211 229.573 308.211C222.107 308.211 199.137 326.902 199.137 326.902C199.137 326.902 230.116 313.271 233.947 310.745C237.778 308.22 256.217 307.824 267.876 303.151C279.534 298.478 271.919 285.12 252.426 285.313C240.964 285.302 229.524 286.415 218.237 288.64C212.73 289.573 179.47 314.213 179.47 314.213C179.47 314.213 185.913 312.655 188.525 311.678C191.136 310.701 217.081 292.415 220.684 290.285C234.285 282.233 243.906 271.462 239.564 264.669C236.417 259.732 218.261 266.041 209.419 271.709C197.666 279.233 164.35 306.821 164.35 306.821L206.107 275.29C206.107 275.29 202.732 272.157 191.514 274.921C184.882 276.557 157.687 294.738 153.369 298.425C140.31 309.557 105.193 357.465 105.193 357.465L133.914 398.693L183.128 405.548Z" fill="#D3766A"/>
<path d="M166.301 305.721C176.15 296.516 184.182 286.141 205.147 274.921C205.218 274.921 205.147 274.683 205.068 274.701C190.122 278.977 176.017 292.573 165.979 305.228C165.648 305.694 165.908 306.081 166.301 305.721Z" fill="#263238"/>
<path d="M180.988 313.992C189.712 308.167 199.805 300.344 210.229 294.632C215.342 291.825 217.545 291.253 224.869 287.672C224.939 287.672 224.869 287.46 224.806 287.478C218.174 289.361 217.081 289.141 209.961 292.151C200.694 296.067 185.488 308.669 180.689 313.614C180.312 314.001 180.524 314.292 180.988 313.992Z" fill="#263238"/>
<path d="M197.107 326.084C206.547 321.824 218.009 314.177 227.748 310.657C230.186 309.777 233.915 309.214 239.493 309.214C239.792 309.214 240.161 308.844 239.453 308.704C234.733 307.736 230.053 307.824 227.142 308.704C217.592 311.687 202.283 321.587 196.871 325.652C196.446 325.987 196.612 326.312 197.107 326.084Z" fill="#263238"/>
<path d="M183.128 405.557L163.878 439.93H21.8064L105.162 357.465L176.355 348.674L183.128 405.557Z" fill="#D3766A"/>
<path d="M163.878 439.929L168.968 430.83L62.6659 399.502L21.8064 439.929H163.878Z" fill="#8B18FF"/>
<path opacity="0.1" d="M163.878 439.929L168.968 430.83L62.6659 399.502L21.8064 439.929H163.878Z" fill="black"/>
<path opacity="0.1" d="M22.7268 439.015L26.7231 435.055V439.921H22.7268V439.015Z" fill="black"/>
<path opacity="0.1" d="M162.848 429.026V439.92H158.852V427.847L162.848 429.026Z" fill="black"/>
<path opacity="0.1" d="M135.621 421.001L148.633 424.838H135.621V439.921H131.625V424.838H108.395V439.921H104.399V424.838H81.1683V439.921H77.172V424.838H53.9496V439.921H49.9533V424.838H37.052L41.5753 420.367H49.9533V412.078L53.9496 408.126V420.367H77.172V403.779L81.1683 404.958V420.367H104.399V411.805L108.395 412.975V420.367H131.625V419.822L133.466 420.367H135.621V421.001Z" fill="black"/>
<path d="M43.9824 413.661L168.968 435.899L180.501 416.002L69.0771 388.37L43.9824 413.661Z" fill="#8B18FF"/>
<path d="M394.466 387.402C394.466 387.402 366.24 371.738 360.946 369.697C350.342 365.596 334.074 348.453 325.782 343.666C320.944 340.868 323.627 329.34 337.653 329.736C351.679 330.132 367.24 343.112 367.932 341.809C369.828 338.289 337.417 321.983 332.225 320.584C327.033 319.185 310.812 323.945 300.428 321.156C290.044 318.366 294.426 307.824 302.104 303.195C312.275 297.035 332.437 296.313 339.864 295.504C347.29 294.694 371.763 310.842 371.763 310.842C371.763 310.842 339.761 300.608 335.726 298.522C331.69 296.437 313.306 298.012 301.301 294.615C289.297 291.218 295.732 277.103 315.146 275.202C326.556 273.969 338.041 273.857 349.469 274.868C355.062 275.202 390.25 296.155 390.25 296.155C390.25 296.155 383.704 295.275 381.022 294.606C378.339 293.937 350.94 278.502 347.195 276.769C332.949 270.16 322.455 260.48 326.215 253.273C328.952 247.993 347.534 252.349 356.816 257.03C369.167 263.261 404.693 287.135 404.693 287.135L357.375 259.063C357.375 259.063 359.554 254.038 366.311 254.769C390.454 257.409 410.294 274.357 414.912 277.569C428.867 287.249 467.941 331.161 467.941 331.161L443.507 373.12L394.466 387.402Z" fill="#D3766A"/>
<path d="M405.133 283.703C394.207 276.452 380.196 266.816 358.39 257.726C358.319 257.726 358.342 257.55 358.39 257.567C373.281 261.272 393.617 271.982 405.322 283.378C405.739 283.721 405.582 283.985 405.133 283.703Z" fill="#263238"/>
<path d="M388.723 296.032C379.543 291.183 368.821 284.477 357.957 279.91C352.623 277.666 350.389 277.332 342.79 274.551C342.711 274.551 342.751 274.34 342.837 274.357C349.603 275.519 350.665 275.176 358.012 277.411C367.57 280.315 383.791 291.218 388.991 295.627C389.4 295.97 389.211 296.287 388.723 296.032Z" fill="#263238"/>
<path d="M373.714 309.813C363.975 306.574 351.892 300.194 341.893 297.748C339.392 297.132 329.503 296.701 323.949 297.299C323.65 297.299 323.257 297.009 323.949 296.789C328.591 295.31 339.368 295.152 342.342 295.742C352.096 297.686 368.191 305.897 373.926 309.364C374.375 309.637 374.233 309.98 373.714 309.813Z" fill="#263238"/>
<path d="M568.194 440.07L467.941 331.161L404.889 334.241L394.466 387.402L422.967 440.07H568.194Z" fill="#D3766A"/>
<path d="M422.967 440.071L405.959 408.646L493.5 358.926L568.194 440.071H422.967Z" fill="#8B18FF"/>
<path opacity="0.1" d="M422.967 440.071L405.959 408.646L493.5 358.926L568.194 440.071H422.967Z" fill="black"/>
<path opacity="0.1" d="M498.102 363.924H484.728L492.595 359.454H494.027L497.299 362.974L498.102 363.924ZM522.016 389.911H438.811V389.99L431.078 394.39H526.131L524.479 392.63L522.016 389.911ZM550.053 420.367H412.3L414.723 424.838H554.167L551.705 422.198L550.053 420.367ZM550.053 420.367L547.693 417.824V440.079H551.689V422.163L550.053 420.367ZM522.016 389.911L520.443 388.239V440.079H524.439V392.559L522.016 389.911ZM494.027 359.454L493.539 358.926L493.24 359.04V440.053H497.244V363.009L494.027 359.454ZM466.076 374.519V440.079H470.073V372.24L466.076 374.519ZM438.96 389.911H438.826V440.071H442.822V387.711L438.96 389.911ZM411.584 405.451V419.039L412.3 420.367L414.723 424.838L415.58 426.431V403.181L411.584 405.451Z" fill="black"/>
<path d="M399.233 405.856L414.408 430.83L520.616 382.571L491.84 353.769L399.233 405.856Z" fill="#8B18FF"/>
</g>
<defs>
<clipPath id="clip0_57_770">
<rect width="590" height="440" fill="white"/>
</clipPath>
</defs>
</svg>
