<svg width="600" height="450" viewBox="0 0 600 450" fill="none" xmlns="http://www.w3.org/2000/svg">
<path d="M509.176 269.676C509.176 269.676 529.336 155.088 468.08 91.6202C414.008 35.5952 329.552 15.1562 261.808 63.9002C237.672 81.2702 209.072 98.9372 180.712 109.647C148.912 121.662 113.704 124.605 84.8241 173.799C55.9441 222.993 73.1841 302.463 113.344 334.8C153.504 367.137 225.6 365.85 288 362.088C350.4 358.326 478.8 411.21 509.176 269.676Z" fill="#8B18FF"/>
<path opacity="0.7" d="M509.176 269.676C509.176 269.676 529.336 155.088 468.08 91.6202C414.008 35.5952 329.552 15.1562 261.808 63.9002C237.672 81.2702 209.072 98.9372 180.712 109.647C148.912 121.662 113.704 124.605 84.8241 173.799C55.9441 222.993 73.1841 302.463 113.344 334.8C153.504 367.137 225.6 365.85 288 362.088C350.4 358.326 478.8 411.21 509.176 269.676Z" fill="white"/>
<path d="M470.272 302.526C470.272 302.526 455.456 313.038 445.432 319.5C435.408 325.962 421.952 327.96 421.728 330.012C421.504 332.064 406.456 382.5 406.456 382.5H551.872C551.872 382.5 540.936 356.85 538.424 347.4C535.912 337.95 535.92 332.532 533.864 331.506C531.808 330.48 504.688 315.09 491.928 306.117L470.272 302.526Z" fill="white" stroke="#263238" stroke-miterlimit="10"/>
<path d="M427.2 327.258L441.008 382.5H513.6L535.2 333.342C534.989 332.545 534.51 331.873 533.864 331.47C531.816 330.444 504.688 315.054 491.928 306.081L470.272 302.481C470.272 302.481 455.456 313.038 445.432 319.5C439.376 323.325 432.08 325.602 427.2 327.258Z" fill="#8B18FF" stroke="#263238" stroke-linecap="round" stroke-linejoin="round"/>
<path d="M470.272 302.526C470.272 302.526 464.92 306.324 458.472 310.752C458.124 312.535 457.857 314.338 457.672 316.152C455.608 335.574 463.368 352.584 475 354.15C486.632 355.716 497.736 341.244 499.8 321.822C500.169 318.381 500.227 314.908 499.976 311.454C497 309.546 494.248 307.737 491.976 306.126L470.272 302.526Z" fill="white" stroke="#263238" stroke-miterlimit="10"/>
<path d="M469.6 280.476L464.128 311.499C464.128 311.499 466.632 345.861 475.984 346.122C485.336 346.383 495.8 312.3 495.8 312.3L496.256 285.12L469.6 280.476Z" fill="#BABABA" stroke="#263238" stroke-linecap="round" stroke-linejoin="round"/>
<path d="M496.248 285.507L490.304 287.865L477.56 294.381L495.872 308.331L496.248 285.507Z" fill="#263238" stroke="#263238" stroke-miterlimit="10"/>
<path d="M544.584 219.699C544.584 215.711 543.623 211.798 541.803 208.377C539.982 204.955 537.372 202.153 534.248 200.268C532.57 195.63 529.53 191.779 525.635 189.357C521.739 186.935 517.223 186.088 512.84 186.957C511.419 183.479 509.157 180.521 506.312 178.422C503.467 176.323 500.154 175.168 496.753 175.088C493.351 175.008 489.999 176.007 487.078 177.971C484.158 179.935 481.788 182.784 480.24 186.192C476.712 184.001 472.657 183.125 468.659 183.692C464.66 184.258 460.925 186.237 457.99 189.344C455.055 192.45 453.072 196.525 452.326 200.98C451.58 205.435 452.11 210.042 453.84 214.137C450.698 213.12 447.332 213.449 444.393 215.061C441.455 216.673 439.151 219.454 437.929 222.865C436.706 226.277 436.651 230.077 437.774 233.531C438.896 236.986 441.118 239.85 444.008 241.569C443.193 243.385 442.737 245.378 442.672 247.412C442.607 249.445 442.934 251.47 443.632 253.347C444.329 255.225 445.379 256.91 446.71 258.287C448.042 259.664 449.623 260.7 451.344 261.324C451.017 263.03 451.013 264.794 451.332 266.501C451.651 268.209 452.286 269.822 453.195 271.236C454.105 272.649 455.268 273.832 456.61 274.706C457.952 275.581 459.443 276.128 460.985 276.312C462.528 276.496 464.087 276.313 465.563 275.775C467.038 275.237 468.396 274.355 469.549 273.188C470.702 272.02 471.623 270.593 472.254 268.999C472.884 267.405 473.209 265.679 473.208 263.934C473.208 260.766 472.129 257.719 470.192 255.42L472.752 230.472L500.56 233.037L497.296 267.039C496.828 269.074 496.778 271.201 497.149 273.261C497.52 275.321 498.303 277.258 499.438 278.927C500.574 280.596 502.032 281.953 503.702 282.894C505.373 283.835 507.211 284.336 509.079 284.359C510.947 284.382 512.796 283.927 514.484 283.028C516.172 282.128 517.657 280.808 518.825 279.168C519.993 277.528 520.813 275.61 521.225 273.56C521.636 271.51 521.628 269.382 521.2 267.336C524.026 267.118 526.755 266.085 529.124 264.336C531.492 262.588 533.42 260.182 534.723 257.352C536.025 254.521 536.657 251.361 536.559 248.176C536.46 244.991 535.634 241.888 534.16 239.166C537.304 237.291 539.936 234.488 541.772 231.059C543.608 227.629 544.58 223.703 544.584 219.699Z" fill="#263238" stroke="#263238" stroke-miterlimit="10"/>
<path d="M463.2 253.296C463.2 253.296 458.872 242.496 455.68 251.244C452.488 259.992 458.4 266.4 462.528 268.938C466.656 271.476 463.2 253.296 463.2 253.296Z" fill="#BABABA" stroke="#263238" stroke-linecap="round" stroke-linejoin="round"/>
<path d="M509.6 258.516C509.6 258.516 514.984 248.373 517.28 257.436C519.576 266.499 513.032 272.124 508.696 274.14C504.36 276.156 509.6 258.516 509.6 258.516Z" fill="#BABABA" stroke="#263238" stroke-linecap="round" stroke-linejoin="round"/>
<path d="M462.296 246.888C462.296 246.888 462.072 269.964 465.032 276.372C467.992 282.78 478.48 299.7 485.088 298.935C491.696 298.17 501.272 286.884 503.784 282.528C504.894 280.733 505.884 278.847 506.744 276.885L511.544 252.783C511.544 252.783 509.496 250.983 509.72 246.375C509.93 243.401 510.708 240.512 512 237.906C511.049 237.405 510.221 236.651 509.585 235.711C508.95 234.77 508.527 233.671 508.352 232.506C508.071 230.04 507.919 227.558 507.896 225.072C507.896 225.072 498.784 222.246 493.768 214.272C493.768 214.272 486.016 219.915 479.864 216.324C479.864 216.324 474.392 227.124 468.92 225.558C468.904 225.603 471.64 244.575 462.296 246.888Z" fill="#BABABA" stroke="#263238" stroke-linecap="round" stroke-linejoin="round"/>
<path d="M473.464 239.706C473.464 239.706 481.464 234.063 485.32 241.506" stroke="#263238" stroke-miterlimit="10"/>
<path d="M494.432 245.088L503.552 245.862" stroke="#263238" stroke-miterlimit="10"/>
<path d="M478.936 251.1C478.936 253.008 478.272 254.556 477.456 254.556C476.64 254.556 476 253.026 476 251.1C476 249.174 476.656 247.635 477.48 247.635C478.304 247.635 478.936 249.201 478.936 251.1Z" fill="#263238" stroke="#263238" stroke-miterlimit="10"/>
<path d="M500.312 255.141C499.864 256.986 498.872 258.291 498.08 258.048C497.288 257.805 497.008 256.122 497.448 254.268C497.888 252.414 498.888 251.127 499.68 251.361C500.472 251.595 500.752 253.296 500.312 255.141Z" fill="#263238" stroke="#263238" stroke-miterlimit="10"/>
<path d="M482.352 262.017L480.984 266.886L492.152 267.912L491.704 264.321" stroke="#263238" stroke-miterlimit="10"/>
<path d="M482.808 277.659L487.824 278.424" stroke="#263238" stroke-miterlimit="10"/>
<path d="M466.168 298.683L460.928 334.8L425.6 381.762H452.952L469.36 339.966C469.36 339.966 473.24 337.662 475.064 335.61C476.888 333.558 479.16 328.41 479.16 328.41C479.16 328.41 478.248 332.514 480.304 334.818C482.36 337.122 484.632 336.357 484.632 335.079C484.632 333.801 484.176 329.436 484.408 326.61C484.64 323.784 487.608 311.994 486.008 309.69C484.408 307.386 472.56 307.89 472.56 307.89L472.104 303.012C472.104 303.012 485.784 301.212 486.696 298.656C487.608 296.1 488.296 294.552 484.64 294.813C480.984 295.074 476.896 294.3 472.336 295.578C467.776 296.856 467.08 296.37 466.168 298.683Z" fill="#BABABA" stroke="#263238" stroke-linecap="round" stroke-linejoin="round"/>
<path d="M470.728 313.812C470.728 313.812 479.2 312.3 480.984 312.3C482.768 312.3 485.544 314.604 485.544 314.604" stroke="#263238" stroke-miterlimit="10"/>
<path d="M470.96 321.246C470.96 321.246 479.16 317.916 481.672 317.403C484.184 316.89 485.088 321.003 485.088 321.003" stroke="#263238" stroke-miterlimit="10"/>
<path d="M472.552 307.917L469.36 309.195" stroke="#263238" stroke-miterlimit="10"/>
<path d="M549.112 122.337C549.119 117.269 547.398 112.391 544.304 108.708C541.21 105.024 536.978 102.816 532.48 102.537C533.219 99.1091 533.13 95.5212 532.223 92.1446C531.316 88.768 529.624 85.7253 527.321 83.3312C525.018 80.937 522.189 79.2784 519.125 78.5268C516.062 77.7753 512.876 77.958 509.896 79.0562C509.136 75.0831 507.31 71.4683 504.665 68.7004C502.019 65.9326 498.682 64.1451 495.105 63.5797C491.528 63.0143 487.882 63.6982 484.661 65.5389C481.441 67.3797 478.8 70.2885 477.096 73.8722C475.17 70.5761 472.412 68.0024 469.177 66.4812C465.942 64.96 462.376 64.5606 458.938 65.3342C455.5 66.1078 452.345 68.0192 449.879 70.8232C447.413 73.6273 445.747 77.1962 445.096 81.0722C441.154 82.7453 437.874 85.9492 435.847 90.1051C433.821 94.2611 433.183 99.0952 434.048 103.734C430.502 106.678 428.067 111.012 427.224 115.879C426.381 120.746 427.192 125.791 429.496 130.017C431.8 134.244 435.43 137.344 439.668 138.705C443.906 140.066 448.444 139.589 452.384 137.367C452.567 140.314 453.334 143.177 454.628 145.746C455.922 148.316 457.71 150.528 459.863 152.219C462.015 153.911 464.477 155.039 467.067 155.521C469.657 156.004 472.31 155.828 474.832 155.007C475.496 159.008 477.239 162.682 479.825 165.528C482.411 168.375 485.713 170.255 489.284 170.915C492.854 171.574 496.517 170.979 499.776 169.212C503.035 167.444 505.731 164.59 507.496 161.037C510.177 162.324 513.1 162.841 516.003 162.542C518.906 162.243 521.697 161.138 524.126 159.326C526.556 157.514 528.547 155.051 529.921 152.16C531.295 149.268 532.01 146.037 532 142.758C532 142.56 532 142.362 532 142.164C536.587 142.021 540.943 139.868 544.139 136.165C547.336 132.461 549.12 127.499 549.112 122.337Z" fill="#263238" stroke="#263238" stroke-linecap="round" stroke-linejoin="round"/>
<path d="M464.152 166.014C469.025 166.014 472.976 162.714 472.976 158.643C472.976 154.573 469.025 151.272 464.152 151.272C459.279 151.272 455.328 154.573 455.328 158.643C455.328 162.714 459.279 166.014 464.152 166.014Z" fill="#263238" stroke="#263238" stroke-linecap="round" stroke-linejoin="round"/>
<path d="M464.04 176.112C464.04 178.956 461.28 181.251 457.888 181.251C454.496 181.251 451.736 178.956 451.736 176.112C451.736 173.268 454.488 170.973 457.888 170.973C461.288 170.973 464.04 173.277 464.04 176.112Z" fill="#263238" stroke="#263238" stroke-linecap="round" stroke-linejoin="round"/>
<path d="M546.808 116.514C546.815 111.448 545.095 106.571 542.003 102.888C538.91 99.2047 534.681 96.9952 530.184 96.7142C530.923 93.2861 530.834 89.6982 529.927 86.3216C529.02 82.945 527.328 79.9023 525.025 77.5082C522.722 75.114 519.893 73.4554 516.829 72.7038C513.766 71.9523 510.58 72.135 507.6 73.2332C506.836 69.2634 505.008 65.6528 502.363 62.8883C499.718 60.1239 496.382 58.3387 492.807 57.7737C489.232 57.2086 485.588 57.8908 482.368 59.7282C479.148 61.5657 476.507 64.4699 474.8 68.0492C472.874 64.7531 470.116 62.1794 466.881 60.6582C463.646 59.137 460.08 58.7376 456.642 59.5112C453.204 60.2848 450.049 62.1962 447.583 65.0003C445.117 67.8043 443.451 71.3732 442.8 75.2492C438.854 76.9129 435.57 80.1141 433.544 84.2711C431.518 88.4281 430.885 93.2648 431.76 97.9022C428.202 100.841 425.756 105.177 424.906 110.051C424.056 114.924 424.865 119.978 427.173 124.212C429.48 128.445 433.117 131.549 437.363 132.907C441.609 134.265 446.154 133.779 450.096 131.544C450.408 136.552 452.4 141.239 455.667 144.657C458.934 148.076 463.234 149.971 467.696 149.958C469.339 149.957 470.974 149.693 472.552 149.175C473.214 153.177 474.957 156.852 477.542 159.699C480.128 162.547 483.43 164.428 487.001 165.088C490.571 165.749 494.235 165.155 497.494 163.388C500.754 161.621 503.45 158.767 505.216 155.214C507.899 156.48 510.818 156.981 513.715 156.672C516.611 156.363 519.395 155.254 521.819 153.444C524.242 151.634 526.231 149.178 527.608 146.295C528.985 143.411 529.708 140.19 529.712 136.917C529.712 136.71 529.712 136.521 529.712 136.323C534.293 136.176 538.643 134.023 541.835 130.324C545.028 126.625 546.812 121.67 546.808 116.514Z" fill="white" stroke="#263238" stroke-miterlimit="10"/>
<path d="M470.68 152.811C470.68 156.888 466.728 160.191 461.88 160.191C457.032 160.191 453.08 156.888 453.08 152.811C453.08 148.734 457.032 145.44 461.88 145.44C466.728 145.44 470.68 148.743 470.68 152.811Z" fill="white" stroke="#263238" stroke-miterlimit="10"/>
<path d="M461.736 170.289C461.736 173.124 458.984 175.428 455.584 175.428C452.184 175.428 449.432 173.124 449.432 170.289C449.432 167.454 452.192 165.15 455.584 165.15C458.976 165.15 461.736 167.454 461.736 170.289Z" fill="white" stroke="#263238" stroke-miterlimit="10"/>
<path d="M474.152 111.672C474.152 110.994 473.973 110.331 473.638 109.767C473.303 109.203 472.827 108.764 472.27 108.504C471.713 108.245 471.101 108.177 470.509 108.309C469.918 108.441 469.375 108.768 468.949 109.247C468.522 109.727 468.232 110.338 468.114 111.003C467.997 111.668 468.057 112.358 468.288 112.984C468.519 113.611 468.909 114.146 469.411 114.523C469.912 114.9 470.501 115.101 471.104 115.101C471.912 115.099 472.686 114.737 473.257 114.094C473.828 113.452 474.15 112.581 474.152 111.672Z" fill="#263238"/>
<path d="M488.8 111.672C488.8 110.994 488.621 110.331 488.286 109.767C487.951 109.203 487.475 108.764 486.918 108.504C486.361 108.245 485.748 108.177 485.157 108.309C484.566 108.441 484.023 108.768 483.597 109.247C483.17 109.727 482.88 110.338 482.762 111.003C482.645 111.668 482.705 112.358 482.936 112.984C483.167 113.611 483.557 114.146 484.059 114.523C484.56 114.9 485.149 115.101 485.752 115.101C486.56 115.101 487.336 114.74 487.907 114.097C488.479 113.454 488.8 112.582 488.8 111.672Z" fill="#263238"/>
<path d="M503.408 111.672C503.408 110.994 503.229 110.331 502.894 109.767C502.559 109.203 502.083 108.764 501.526 108.504C500.969 108.245 500.357 108.177 499.765 108.309C499.174 108.441 498.631 108.768 498.205 109.247C497.778 109.727 497.488 110.338 497.371 111.003C497.253 111.668 497.313 112.358 497.544 112.984C497.775 113.611 498.165 114.146 498.667 114.523C499.168 114.9 499.757 115.101 500.36 115.101C501.168 115.099 501.942 114.737 502.513 114.094C503.084 113.452 503.406 112.581 503.408 111.672Z" fill="#263238"/>
<path d="M334.104 217.656C334.104 217.656 329.304 195.345 308.12 194.832C286.936 194.319 275.752 216.9 274.4 221.499C273.048 226.098 245.904 239.193 248.64 253.809C251.376 268.425 262.544 258.678 263.04 264.609C263.536 270.54 253.44 284.346 259.392 296.397C265.344 308.448 271.248 316.143 285.832 308.457C300.416 300.771 306.808 292.041 311.592 296.658C316.376 301.275 319.112 308.196 336.44 302.553C353.768 296.91 347.376 281.268 345.784 271.269C344.192 261.27 359.456 253.575 354.672 238.446C349.888 223.317 339.568 214.578 334.104 217.656Z" fill="#263238" stroke="#263238" stroke-miterlimit="10"/>
<path d="M296.04 297.396L299 310.221C299 310.221 283.728 319.707 273.696 324.324C268.07 326.998 262.176 328.893 256.144 329.967L244.752 382.275H378.544C378.544 382.275 360.088 334.323 358.72 330.48C357.352 326.637 356.664 324.585 356.664 324.585C356.664 324.585 335.696 319.185 329.544 315.585C323.392 311.985 322.248 309.951 322.248 309.951L321.6 279.45L296.04 297.396Z" fill="#8B18FF" stroke="#263238" stroke-linecap="round" stroke-linejoin="round"/>
<path d="M330.688 316.215C330.264 316.008 329.888 315.801 329.544 315.603C323.392 312.003 322.248 309.969 322.248 309.969L321.6 279.45L296.072 297.396L299.032 310.221C299.032 310.221 295.216 312.588 290.152 315.531L285.128 346.635L322.056 348.435L330.688 316.215Z" fill="white" stroke="#263238" stroke-miterlimit="10"/>
<path d="M317.232 288.171L320.416 280.251L296.04 297.396L299 310.221L301.048 319.968L317.232 288.171Z" fill="#263238" stroke="#263238" stroke-miterlimit="10"/>
<path d="M260.024 382.275L266.408 346.887" stroke="#263238" stroke-miterlimit="10"/>
<path d="M340.712 382.536L348.464 341.244" stroke="#263238" stroke-miterlimit="10"/>
<path d="M293.944 237.87C292.018 240.421 289.875 242.755 287.544 244.836C284.24 247.617 276.6 248.544 276.6 248.544C276.6 248.544 277.632 269.244 279.696 279.198C281.76 289.152 290.848 300.33 292.912 301.5C294.976 302.67 312.32 293.841 317.064 290.124C321.808 286.407 324.496 276.885 324.496 276.885C327.152 275.811 329.552 274.065 331.512 271.782C335.024 267.831 333.992 257.85 333.992 257.85C333.992 257.85 329.24 263.421 326.976 263.88C324.712 264.339 321.808 256.914 321.808 256.914C321.808 256.914 312.52 256.221 310.256 251.109C307.992 245.997 312.936 236.709 308.6 230.409C304.264 224.109 293.944 237.87 293.944 237.87Z" fill="white" stroke="#263238" stroke-miterlimit="10"/>
<path d="M286.72 255.519C287.324 257.873 287.739 260.282 287.96 262.719C288.168 265.977 285.072 278.748 285.072 278.748H292.712" stroke="#263238" stroke-miterlimit="10"/>
<path d="M288.584 284.769C291.652 286.001 295.004 286.001 298.072 284.769C303.032 282.681 306.952 273.159 306.952 273.159" stroke="#263238" stroke-miterlimit="10"/>
<path d="M292.728 285.732C292.728 285.732 293.528 294.057 297.664 291.51C301.8 288.963 302.4 281.061 302.4 281.061C299.852 283.995 296.374 285.675 292.728 285.732Z" fill="#263238" stroke="#263238" stroke-miterlimit="10"/>
<path d="M299.704 264.249C300.521 264.249 301.184 262.899 301.184 261.234C301.184 259.569 300.521 258.219 299.704 258.219C298.887 258.219 298.224 259.569 298.224 261.234C298.224 262.899 298.887 264.249 299.704 264.249Z" fill="#263238" stroke="#263238" stroke-miterlimit="10"/>
<path d="M284.8 259.2C284.8 260.865 284.2 262.215 283.464 262.215C282.728 262.215 282.12 260.865 282.12 259.2C282.12 257.535 282.72 256.176 283.464 256.176C284.208 256.176 284.8 257.499 284.8 259.2Z" fill="#263238" stroke="#263238" stroke-miterlimit="10"/>
<path d="M294.968 252.18C294.968 252.18 301.184 245.826 305.984 254.727" stroke="#263238" stroke-miterlimit="10"/>
<path d="M286.08 252.342C286.08 252.342 280.008 248.526 278.736 255.042" stroke="#263238" stroke-miterlimit="10"/>
<path d="M347.512 85.2661H261.112C259.931 85.2685 258.762 85.5325 257.672 86.043C256.582 86.5536 255.592 87.3007 254.758 88.2417C253.925 89.1828 253.264 90.2993 252.814 91.5275C252.364 92.7558 252.134 94.0717 252.136 95.4001V153.315C252.136 154.644 252.369 155.959 252.82 157.186C253.272 158.414 253.935 159.529 254.77 160.468C255.605 161.408 256.596 162.153 257.687 162.661C258.778 163.169 259.947 163.431 261.128 163.431H306.216L317.544 187.983L319.6 163.431H347.512C348.693 163.431 349.862 163.169 350.953 162.661C352.044 162.153 353.035 161.408 353.87 160.468C354.705 159.529 355.368 158.414 355.82 157.186C356.271 155.959 356.504 154.644 356.504 153.315V95.4001C356.506 94.0701 356.275 92.7528 355.824 91.5234C355.373 90.294 354.711 89.1766 353.876 88.2354C353.041 87.2941 352.049 86.5474 350.957 86.0379C349.865 85.5284 348.694 85.2661 347.512 85.2661Z" fill="#263238" stroke="#263238" stroke-linecap="round" stroke-linejoin="round"/>
<path d="M344.504 80.5229H258.104C255.719 80.5229 253.432 81.5887 251.746 83.4859C250.059 85.383 249.112 87.956 249.112 90.6389V148.554C249.112 151.237 250.059 153.81 251.746 155.707C253.432 157.604 255.719 158.67 258.104 158.67H303.2L314.536 183.222L316.592 158.67H344.504C346.889 158.67 349.176 157.604 350.862 155.707C352.549 153.81 353.496 151.237 353.496 148.554V90.6389C353.496 87.956 352.549 85.383 350.862 83.4859C349.176 81.5887 346.889 80.5229 344.504 80.5229Z" fill="white" stroke="#263238" stroke-miterlimit="10"/>
<path d="M289.472 121.275C289.474 120.596 289.296 119.932 288.962 119.367C288.628 118.802 288.153 118.361 287.596 118.101C287.039 117.84 286.426 117.77 285.834 117.902C285.242 118.033 284.699 118.359 284.272 118.838C283.844 119.317 283.553 119.928 283.435 120.594C283.317 121.259 283.377 121.949 283.607 122.576C283.838 123.203 284.228 123.739 284.73 124.116C285.231 124.494 285.821 124.695 286.424 124.695C287.231 124.695 288.005 124.335 288.576 123.694C289.148 123.053 289.47 122.183 289.472 121.275Z" fill="#263238"/>
<path d="M304.104 121.275C304.106 120.596 303.928 119.932 303.594 119.367C303.26 118.802 302.785 118.361 302.228 118.101C301.671 117.84 301.058 117.77 300.466 117.902C299.875 118.033 299.331 118.359 298.904 118.838C298.477 119.317 298.185 119.928 298.067 120.594C297.949 121.259 298.009 121.949 298.239 122.576C298.47 123.203 298.86 123.739 299.362 124.116C299.863 124.494 300.453 124.695 301.056 124.695C301.863 124.695 302.637 124.335 303.208 123.694C303.78 123.053 304.102 122.183 304.104 121.275Z" fill="#263238"/>
<path d="M318.728 121.275C318.73 120.596 318.552 119.932 318.218 119.367C317.884 118.802 317.409 118.361 316.852 118.101C316.295 117.84 315.682 117.77 315.09 117.902C314.499 118.033 313.955 118.359 313.528 118.838C313.101 119.317 312.809 119.928 312.691 120.594C312.573 121.259 312.633 121.949 312.863 122.576C313.094 123.203 313.484 123.739 313.986 124.116C314.487 124.494 315.077 124.695 315.68 124.695C316.487 124.695 317.261 124.335 317.833 123.694C318.404 123.053 318.726 122.183 318.728 121.275Z" fill="#263238"/>
<path d="M112.344 312.408C112.344 312.408 71.0641 340.965 71.0641 343.8C71.0641 346.635 62.6001 382.5 62.6001 382.5H220.296C220.296 382.5 201.896 335.592 198.416 332.568C194.936 329.544 153.208 306.567 149.704 304.938C146.2 303.309 112.344 312.408 112.344 312.408Z" fill="#8B18FF" stroke="#263238" stroke-linecap="round" stroke-linejoin="round"/>
<path d="M82.2081 382.302L79.1121 356.526" stroke="#263238" stroke-miterlimit="10"/>
<path d="M207.496 382.302L197.592 342.36" stroke="#263238" stroke-miterlimit="10"/>
<path d="M142.272 341.433C142.272 341.433 146.192 366.282 146.816 367.668C147.44 369.054 153.6 367.2 153.6 367.2L151.536 351.9" stroke="#263238" stroke-miterlimit="10"/>
<path d="M112.552 297.315C112.552 297.315 107.184 302.652 106.36 310.545C105.536 318.438 109.664 344.448 113.376 343.755C117.088 343.062 122.664 333.306 125.968 332.145C129.272 330.984 147.224 327.033 149.288 326.106C151.352 325.179 158.168 327.267 160.232 328.896C162.296 330.525 165.592 332.145 166.008 329.589C166.424 327.033 162.496 308.889 157.752 298.242C153.008 287.595 142.888 286.866 134.224 288.261C125.56 289.656 112.552 297.315 112.552 297.315Z" fill="white" stroke="#263238" stroke-miterlimit="10"/>
<path d="M106.152 281.988C106.152 281.988 117.296 317.745 121.84 322.623C126.384 327.501 137.112 342.594 142.272 341.433C147.432 340.272 150.32 317.979 149.912 309.384C149.504 300.789 144.128 271.071 144.128 271.071C144.128 271.071 142.688 276.417 132.368 282.222C122.048 288.027 106.152 281.988 106.152 281.988Z" fill="white" stroke="#263238" stroke-miterlimit="10"/>
<path d="M131.744 293.13C135.835 287.049 139.469 280.594 142.608 273.834C141.072 275.931 138.08 279 132.368 282.222C122.048 288.027 106.152 281.988 106.152 281.988C106.152 281.988 110.432 295.722 114.768 307.332C119.064 305.37 126.472 301.086 131.744 293.13Z" fill="#263238" stroke="#263238" stroke-miterlimit="10"/>
<path d="M96.24 260.163C96.24 260.163 90.88 260.622 91.912 266.193C92.944 271.764 99.336 278.271 101.4 278.505C103.464 278.739 103.464 276.876 103.464 276.876L96.24 260.163Z" fill="white" stroke="#263238" stroke-miterlimit="10"/>
<path d="M140.664 249.588C140.664 249.588 145.216 246.348 147.352 251.505C149.488 256.662 147.824 266.184 146.296 267.759C144.768 269.334 143.776 267.849 143.776 267.849L140.664 249.588Z" fill="white" stroke="#263238" stroke-miterlimit="10"/>
<path d="M93.1441 230.904C93.1441 230.904 88.4001 243.441 89.6401 246.924C90.8801 250.407 96.2401 260.163 96.2401 260.163C96.2401 260.163 102.64 281.061 106.768 285.003C110.896 288.945 119.568 294.759 127.616 293.364C135.664 291.969 145.368 284.544 145.576 273.393C145.784 262.242 130.096 218.133 130.096 218.133C127.203 216.337 123.882 215.607 120.6 216.045C115 216.738 101.608 215.145 97.6881 218.367C93.7681 221.589 92.7361 225.792 93.1441 230.904Z" fill="white" stroke="#263238" stroke-miterlimit="10"/>
<path d="M91.2881 227.421C91.2881 227.421 85.6881 237.168 86.3361 242.046C86.9841 246.924 96.2401 260.163 96.2401 260.163C96.2401 260.163 91.7041 247.851 92.9441 243.207C94.1841 238.563 96.2401 236.475 95.8321 232.299C95.4241 228.123 93.7681 228.114 94.5921 225.792C95.4161 223.47 93.7921 220.455 101.2 222.543C108.608 224.631 116.264 226.494 122.456 223.938C128.648 221.382 136.696 213.948 135.872 206.055C135.048 198.162 128.44 199.323 124.52 202.338C120.6 205.353 121.424 210.006 117.92 206.757C114.416 203.508 114.616 197.001 108.424 199.323C102.232 201.645 89.0161 210.006 91.2881 227.421Z" fill="#263238" stroke="#263238" stroke-miterlimit="10"/>
<path d="M130.096 218.133C130.096 218.133 137.296 241.587 138.76 244.836C139.713 247.072 140.474 249.404 141.032 251.802C141.032 251.802 143.92 241.353 142.064 234.387C140.208 227.421 130.096 218.133 130.096 218.133Z" fill="#263238" stroke="#263238" stroke-miterlimit="10"/>
<path d="M120.752 232.389L118.952 236.943L121.632 244.602" stroke="#263238" stroke-miterlimit="10"/>
<path d="M125.552 250.875C125.552 250.875 122.664 255.519 119.152 256.68" stroke="#263238" stroke-miterlimit="10"/>
<path d="M109.248 260.622C109.248 260.622 113.992 266.193 116.888 265.734C119.784 265.275 128.648 262.944 130.488 259.695C132.328 256.446 132.552 251.595 132.552 251.595" stroke="#263238" stroke-miterlimit="10"/>
<path d="M116.888 265.734C116.888 265.734 123.288 272.232 125.552 271.539C127.816 270.846 128.44 262.251 128.44 262.251L116.888 265.734Z" fill="#263238" stroke="#263238" stroke-miterlimit="10"/>
<path d="M105.12 248.319C105.12 248.319 104.912 243.207 110.28 244.836" stroke="#263238" stroke-miterlimit="10"/>
<path d="M124.112 241.119C124.112 241.119 126.584 235.782 130.304 238.797" stroke="#263238" stroke-miterlimit="10"/>
<path d="M99.7522 239.49C99.7522 239.49 101.608 231.831 109.864 233.46" stroke="#263238" stroke-width="3" stroke-miterlimit="10" stroke-linecap="round"/>
<path d="M122.664 229.5C122.664 229.5 126.584 223.002 131.336 229.734" stroke="#263238" stroke-width="3" stroke-miterlimit="10" stroke-linecap="round"/>
<path d="M167.824 146.439C163.472 146.425 159.142 147.153 154.984 148.599L144.976 135.783C151.324 127.884 154.867 117.632 154.928 106.983C154.928 81.018 133.648 59.958 107.4 59.958C81.152 59.958 59.864 81 59.864 106.992C59.864 132.984 81.144 154.026 107.4 154.026C118.996 154.126 130.278 149.795 139.4 141.741L148.672 151.479C139.608 156.771 133.648 165.726 133.648 175.878C133.648 188.829 143.36 199.827 156.848 203.778L151.408 221.238L165.136 205.2C166.024 205.254 166.912 205.299 167.824 205.299C186.672 205.299 201.96 192.114 201.96 175.86C201.96 159.606 186.672 146.439 167.824 146.439Z" fill="#263238" stroke="#263238" stroke-miterlimit="10"/>
<path d="M164.344 143.181C160.005 143.171 155.689 143.899 151.544 145.341L141.528 132.525C147.882 124.629 151.428 114.376 151.488 103.725C151.488 77.7602 130.208 56.7002 103.952 56.7002C77.6961 56.7002 56.4241 77.7602 56.4241 103.725C56.4241 129.69 77.7041 150.759 103.952 150.759C115.548 150.863 126.832 146.532 135.952 138.474L145.232 148.212C136.168 153.504 130.208 162.459 130.208 172.611C130.208 185.562 139.92 196.56 153.408 200.511L147.96 217.971L161.672 201.969C162.552 202.023 163.448 202.068 164.352 202.068C183.208 202.068 198.488 188.883 198.488 172.629C198.488 156.375 183.2 143.181 164.344 143.181Z" fill="white" stroke="#263238" stroke-miterlimit="10"/>
<path d="M88.3361 108.243C90.0194 108.243 91.3841 106.708 91.3841 104.814C91.3841 102.92 90.0194 101.385 88.3361 101.385C86.6527 101.385 85.2881 102.92 85.2881 104.814C85.2881 106.708 86.6527 108.243 88.3361 108.243Z" fill="#263238"/>
<path d="M102.968 108.243C104.652 108.243 106.016 106.708 106.016 104.814C106.016 102.92 104.652 101.385 102.968 101.385C101.285 101.385 99.9202 102.92 99.9202 104.814C99.9202 106.708 101.285 108.243 102.968 108.243Z" fill="#263238"/>
<path d="M120.64 104.814C120.64 104.136 120.461 103.473 120.126 102.909C119.791 102.345 119.315 101.906 118.758 101.646C118.201 101.387 117.589 101.319 116.997 101.451C116.406 101.583 115.863 101.91 115.437 102.39C115.01 102.869 114.72 103.48 114.603 104.145C114.485 104.81 114.545 105.5 114.776 106.126C115.007 106.753 115.397 107.289 115.899 107.665C116.4 108.042 116.989 108.243 117.592 108.243C118.4 108.243 119.176 107.882 119.747 107.239C120.319 106.596 120.64 105.724 120.64 104.814Z" fill="#263238"/>
<path d="M153.552 174.069C153.552 173.391 153.373 172.728 153.038 172.164C152.703 171.6 152.227 171.161 151.67 170.901C151.114 170.642 150.501 170.574 149.909 170.706C149.318 170.838 148.775 171.165 148.349 171.644C147.923 172.124 147.632 172.735 147.515 173.4C147.397 174.065 147.457 174.755 147.688 175.381C147.919 176.008 148.309 176.543 148.811 176.92C149.312 177.297 149.901 177.498 150.504 177.498C151.312 177.498 152.088 177.137 152.659 176.494C153.231 175.851 153.552 174.979 153.552 174.069Z" fill="#263238"/>
<path d="M168.184 174.069C168.184 173.391 168.005 172.728 167.67 172.164C167.336 171.6 166.859 171.161 166.303 170.901C165.746 170.642 165.133 170.574 164.542 170.706C163.95 170.838 163.407 171.165 162.981 171.644C162.555 172.124 162.264 172.735 162.147 173.4C162.029 174.065 162.089 174.755 162.32 175.381C162.551 176.008 162.942 176.543 163.443 176.92C163.944 177.297 164.533 177.498 165.136 177.498C165.944 177.496 166.718 177.134 167.289 176.491C167.86 175.849 168.182 174.978 168.184 174.069Z" fill="#263238"/>
<path d="M182.808 174.069C182.808 173.391 182.629 172.728 182.294 172.164C181.96 171.6 181.484 171.161 180.927 170.901C180.37 170.642 179.757 170.574 179.166 170.706C178.574 170.838 178.031 171.165 177.605 171.644C177.179 172.124 176.888 172.735 176.771 173.4C176.653 174.065 176.713 174.755 176.944 175.381C177.175 176.008 177.566 176.543 178.067 176.92C178.568 177.297 179.157 177.498 179.76 177.498C180.569 177.498 181.344 177.137 181.915 176.494C182.487 175.851 182.808 174.979 182.808 174.069Z" fill="#263238"/>
<path d="M31.3359 382.536H578.12" stroke="#263238" stroke-miterlimit="10"/>
</svg>
