<svg width="500" height="500" viewBox="0 0 500 500" fill="none" xmlns="http://www.w3.org/2000/svg">
<path d="M455.67 244.81C447.986 197.553 427.423 153.33 396.24 117C378.02 95.8801 354.33 72.9001 325.84 54.7501C254 9.00011 165 22.0001 128 68.0001C91 114 24 319 29 373C34 427 180 476 275 464C370 452 451 391 459 324C462.14 297.74 459.74 269.47 455.67 244.81Z" fill="#8B18FF"/>
<path opacity="0.7" d="M455.67 244.81C447.986 197.553 427.423 153.33 396.24 117C378.02 95.8801 354.33 72.9001 325.84 54.7501C254 9.00011 165 22.0001 128 68.0001C91 114 24 319 29 373C34 427 180 476 275 464C370 452 451 391 459 324C462.14 297.74 459.74 269.47 455.67 244.81Z" fill="white"/>
<path d="M452 463H464" stroke="#263238" stroke-linecap="round" stroke-linejoin="round"/>
<path d="M187 463H444" stroke="#263238" stroke-linecap="round" stroke-linejoin="round"/>
<path d="M54 463H178" stroke="#263238" stroke-linecap="round" stroke-linejoin="round"/>
<path d="M458.42 368.07C458.42 368.07 459.15 365.43 459.17 365.26C459.45 363.26 458.81 359.26 456.78 358.26C456.438 358.105 456.066 358.025 455.691 358.023C455.315 358.021 454.943 358.099 454.6 358.251C454.256 358.403 453.949 358.626 453.697 358.905C453.445 359.184 453.256 359.513 453.14 359.87C452.59 361.37 453.28 363.21 454.14 364.47C455.06 366 458.42 368.06 458.42 368.07Z" fill="#263238"/>
<path d="M418.29 367.19C419.91 367.9 423.88 367.81 423.88 367.81C423.88 367.81 423.03 365.21 422.95 365.06C422.08 363.24 419.33 360.23 417.09 360.53C416.719 360.59 416.365 360.727 416.05 360.933C415.736 361.138 415.469 361.408 415.266 361.724C415.063 362.04 414.929 362.396 414.873 362.767C414.817 363.139 414.839 363.518 414.94 363.88C415.31 365.44 416.91 366.59 418.29 367.19Z" fill="#263238"/>
<path d="M470.27 353.69C468.02 353.44 465.35 356.52 464.53 358.37C464.46 358.53 463.63 361.15 463.68 361.15C463.26 361.63 462.81 362.15 462.33 362.73C461.45 363.81 460.46 365.04 459.48 366.45C458.408 367.958 457.427 369.527 456.54 371.15C455.534 372.962 454.69 374.859 454.02 376.82C454.02 376.82 454.02 376.87 454.02 376.89C454.02 376.23 454.02 374.37 454.02 374.23C453.76 372.23 452.08 368.51 449.86 368.1C449.488 368.044 449.109 368.066 448.747 368.165C448.385 368.264 448.047 368.438 447.756 368.675C447.465 368.912 447.227 369.208 447.057 369.543C446.887 369.878 446.789 370.245 446.77 370.62C446.64 372.21 447.77 373.8 448.92 374.81C450.19 375.94 453.71 377.04 453.99 377.12C453.358 379.132 452.861 381.183 452.5 383.26C452.29 384.47 452.11 385.7 451.94 386.93C451.94 386.36 451.94 385.84 451.94 385.77C451.69 383.77 450.01 380.05 447.78 379.64C447.409 379.584 447.03 379.606 446.669 379.705C446.307 379.804 445.97 379.978 445.68 380.215C445.389 380.453 445.152 380.749 444.983 381.084C444.815 381.419 444.718 381.785 444.7 382.16C444.57 383.75 445.7 385.34 446.85 386.35C448 387.36 450.97 388.35 451.76 388.61L451.58 390.03C451.31 392.3 451.05 394.57 450.73 396.78C450.61 397.56 450.47 398.32 450.34 399.09C450.34 398.58 450.34 398.15 450.34 398.09C450.08 396.09 448.4 392.37 446.18 391.96C445.809 391.902 445.43 391.923 445.068 392.021C444.706 392.118 444.368 392.291 444.077 392.528C443.785 392.764 443.547 393.06 443.377 393.394C443.207 393.729 443.109 394.095 443.09 394.47C442.96 396.06 444.09 397.66 445.24 398.66C446.705 399.643 448.314 400.392 450.01 400.88C449.85 401.66 449.69 402.44 449.49 403.19C449.35 403.7 449.24 404.19 449.07 404.7L448.59 406.19C448.25 407.12 447.9 408.08 447.59 408.99C447.35 409.62 447.11 410.21 446.86 410.81C446.99 410.04 447.19 408.51 447.2 408.38C447.173 406.605 446.691 404.866 445.8 403.33C445.82 403.134 445.82 402.936 445.8 402.74C445.752 402.368 445.627 402.01 445.433 401.689C445.238 401.368 444.978 401.092 444.67 400.878C444.361 400.664 444.012 400.517 443.643 400.447C443.274 400.377 442.895 400.384 442.53 400.47C440.34 401.05 438.96 404.89 438.85 406.9C438.85 407.02 438.92 408.32 438.99 409.14C438.88 408.66 438.77 408.2 438.66 407.71C438.43 406.71 438.17 405.79 437.9 404.76C437.75 404.26 437.6 403.76 437.44 403.26C437.28 402.76 437.09 402.26 436.92 401.73C436.48 400.55 435.99 399.37 435.46 398.2C436.31 398 439.3 397.2 440.46 396.31C441.62 395.42 442.93 393.89 442.92 392.31C442.931 391.934 442.863 391.56 442.719 391.213C442.576 390.865 442.361 390.552 442.088 390.293C441.815 390.035 441.491 389.837 441.136 389.712C440.782 389.587 440.405 389.539 440.03 389.57C437.78 389.81 435.83 393.39 435.42 395.37C435.42 395.49 435.26 396.95 435.21 397.74C434.88 397.04 434.57 396.34 434.21 395.64C433.21 393.64 432.12 391.64 431.06 389.58L430.06 387.73C430.36 387.66 433.94 386.83 435.28 385.79C436.62 384.75 437.75 383.37 437.74 381.79C437.751 381.414 437.683 381.04 437.539 380.693C437.396 380.345 437.181 380.032 436.908 379.773C436.635 379.515 436.311 379.317 435.956 379.192C435.602 379.067 435.225 379.019 434.85 379.05C432.6 379.29 430.65 382.87 430.24 384.85C430.24 385 430.02 387.09 430 387.62C429.29 386.26 428.6 384.9 428 383.52C427.141 381.67 426.402 379.766 425.79 377.82C425.93 377.82 429.67 376.94 431.05 375.88C432.25 374.97 433.51 373.47 433.5 371.88C433.511 371.504 433.443 371.13 433.299 370.783C433.156 370.435 432.941 370.122 432.668 369.863C432.395 369.605 432.071 369.407 431.716 369.282C431.362 369.157 430.985 369.109 430.61 369.14C428.37 369.38 426.42 372.96 426.01 374.94C426.01 375.07 425.84 376.66 425.78 377.42H425.66C425.097 375.459 424.712 373.451 424.51 371.42C424.38 370.3 424.32 369.22 424.29 368.16C425 368.08 428.29 367.64 429.6 366.83C430.91 366.02 432.31 364.69 432.48 363.11C432.526 362.741 432.495 362.366 432.387 362.01C432.28 361.654 432.1 361.324 431.858 361.042C431.616 360.759 431.318 360.531 430.982 360.37C430.647 360.21 430.282 360.121 429.91 360.11C427.65 360.11 425.31 363.45 424.69 365.37C424.69 365.47 424.43 366.57 424.28 367.37C424.28 366.9 424.28 366.37 424.28 365.95C424.28 364.24 424.39 362.68 424.49 361.29C424.56 360.51 424.64 359.8 424.72 359.13C425.37 358.68 427.98 356.84 428.79 355.52C429.6 354.2 430.22 352.37 429.63 350.89C429.504 350.536 429.305 350.213 429.047 349.941C428.788 349.669 428.475 349.455 428.128 349.311C427.781 349.168 427.408 349.099 427.033 349.109C426.657 349.119 426.289 349.208 425.95 349.37C423.95 350.37 423.41 354.45 423.74 356.45C423.74 356.62 424.53 359.26 424.56 359.23C424.48 359.87 424.39 360.55 424.31 361.3C424.17 362.69 424.03 364.25 423.99 365.97C423.921 367.818 423.964 369.668 424.12 371.51C424.268 373.576 424.603 375.624 425.12 377.63C425.116 377.653 425.116 377.677 425.12 377.7C424.76 377.14 423.72 375.61 423.62 375.51C422.3 373.98 418.85 371.8 416.77 372.69C416.428 372.846 416.124 373.073 415.876 373.355C415.628 373.637 415.442 373.968 415.331 374.326C415.219 374.685 415.185 375.063 415.229 375.436C415.274 375.809 415.397 376.168 415.59 376.49C416.35 377.89 418.2 378.58 419.69 378.8C421.37 379.04 424.91 378.02 425.19 377.93C425.776 379.958 426.494 381.946 427.34 383.88C427.83 385 428.34 386.12 428.89 387.24C428.57 386.77 428.28 386.35 428.23 386.29C426.91 384.77 423.46 382.59 421.38 383.48C421.038 383.636 420.734 383.863 420.486 384.145C420.238 384.427 420.052 384.758 419.941 385.116C419.829 385.475 419.795 385.853 419.839 386.226C419.884 386.599 420.007 386.958 420.2 387.28C420.96 388.68 422.8 389.37 424.3 389.59C425.8 389.81 428.85 388.99 429.65 388.76L430.28 390.04C431.28 392.09 432.34 394.12 433.28 396.14C433.62 396.86 433.92 397.57 434.23 398.29C433.94 397.87 433.69 397.52 433.65 397.47C432.33 395.94 428.88 393.77 426.8 394.65C426.459 394.807 426.154 395.033 425.906 395.315C425.658 395.596 425.472 395.927 425.359 396.285C425.247 396.644 425.211 397.021 425.255 397.394C425.298 397.767 425.419 398.127 425.61 398.45C426.38 399.85 428.22 400.54 429.72 400.76C431.483 400.768 433.237 400.505 434.92 399.98C435.22 400.72 435.51 401.46 435.76 402.19C435.92 402.7 436.11 403.19 436.24 403.68L436.66 405.19C436.89 406.19 437.14 407.19 437.34 408.1C437.48 408.75 437.61 409.38 437.74 410.02C437.41 409.3 436.74 407.92 436.68 407.81C435.6 406.1 432.52 403.43 430.33 403.99C429.969 404.093 429.633 404.271 429.345 404.512C429.057 404.754 428.822 405.053 428.657 405.39C428.492 405.728 428.4 406.096 428.387 406.472C428.373 406.847 428.439 407.222 428.58 407.57C429.13 409.06 430.85 410.03 432.29 410.47C433.88 410.95 437.39 410.47 437.83 410.47C438.04 411.52 438.24 412.55 438.4 413.47C439 416.83 439.4 419.65 439.59 421.62C439.59 421.97 439.66 422.29 439.7 422.62H432.89L435 463H447.41L449.48 422.49H443.1C443.1 422.39 443.19 422.3 443.24 422.2C444.11 420.39 445.31 417.78 446.62 414.6C447.03 413.6 447.45 412.51 447.87 411.39C448.3 411.48 451.78 412.19 453.4 411.82C455.02 411.45 456.65 410.66 457.31 409.2C457.476 408.864 457.57 408.497 457.585 408.123C457.6 407.749 457.536 407.375 457.397 407.027C457.259 406.679 457.048 406.364 456.78 406.103C456.512 405.842 456.191 405.64 455.84 405.51C453.69 404.79 450.42 407.22 449.22 408.84C449.15 408.94 448.5 410.07 448.1 410.78C448.27 410.33 448.44 409.88 448.61 409.41C448.95 408.48 449.27 407.54 449.61 406.53C449.76 406.03 449.91 405.53 450.06 405.03C450.21 404.53 450.32 404.03 450.46 403.47C450.75 402.24 450.99 400.99 451.2 399.72C452.874 400.389 454.642 400.798 456.44 400.93C457.95 400.82 459.83 400.27 460.7 398.93C460.916 398.623 461.066 398.273 461.138 397.904C461.21 397.535 461.203 397.155 461.118 396.789C461.033 396.422 460.872 396.078 460.645 395.779C460.418 395.479 460.13 395.231 459.8 395.05C457.8 394.05 454.19 395.92 452.8 397.35C452.71 397.44 451.8 398.58 451.31 399.21C451.43 398.45 451.56 397.68 451.65 396.91C451.93 394.67 452.14 392.39 452.36 390.12C452.43 389.42 452.51 388.73 452.58 388.04C452.87 388.14 456.31 389.43 458 389.31C459.51 389.2 461.39 388.65 462.26 387.31C462.476 387.003 462.626 386.653 462.698 386.284C462.77 385.915 462.763 385.535 462.678 385.169C462.593 384.802 462.432 384.458 462.205 384.159C461.978 383.859 461.69 383.611 461.36 383.43C459.36 382.43 455.75 384.31 454.36 385.73C454.25 385.84 452.94 387.48 452.63 387.91C452.79 386.38 452.97 384.86 453.2 383.37C453.506 381.345 453.94 379.341 454.5 377.37C454.64 377.42 458.23 378.77 459.96 378.65C461.46 378.55 463.35 377.99 464.22 376.65C464.435 376.342 464.583 375.993 464.654 375.624C464.725 375.255 464.718 374.876 464.634 374.51C464.549 374.144 464.388 373.8 464.162 373.5C463.935 373.201 463.649 372.952 463.32 372.77C461.32 371.77 457.71 373.64 456.32 375.07C456.22 375.16 455.23 376.41 454.76 377.01L454.65 376.95C455.27 374.993 456.063 373.096 457.02 371.28C457.54 370.28 458.08 369.34 458.64 368.45C459.28 368.77 462.23 370.2 463.8 370.26C465.37 370.32 467.24 369.98 468.26 368.75C468.513 368.466 468.704 368.132 468.819 367.769C468.933 367.406 468.97 367.022 468.925 366.644C468.881 366.266 468.757 365.902 468.561 365.575C468.365 365.249 468.102 364.968 467.79 364.75C465.9 363.5 462.11 365.01 460.54 366.26C460.45 366.33 459.65 367.12 459.08 367.71L459.85 366.51C460.79 365.09 461.75 363.84 462.6 362.75C463.09 362.13 463.55 361.58 463.98 361.06C464.77 361.06 467.98 360.95 469.37 360.3C470.76 359.65 472.3 358.46 472.63 356.9C472.708 356.532 472.707 356.152 472.627 355.784C472.548 355.416 472.392 355.07 472.169 354.767C471.946 354.464 471.662 354.211 471.334 354.025C471.007 353.84 470.644 353.726 470.27 353.69ZM445.38 414.08C444.02 417.2 442.77 419.76 441.87 421.53L441.38 422.53H441.23C441.18 422.19 441.14 421.81 441.08 421.38C440.8 419.38 440.37 416.55 439.7 413.18C439.49 412.11 439.25 410.97 438.98 409.81C440.039 409.392 441.071 408.908 442.07 408.36C443.433 409.529 444.95 410.505 446.58 411.26C446.18 412.21 445.78 413.18 445.38 414.08Z" fill="#263238"/>
<path opacity="0.3" d="M418.29 367.19C419.91 367.9 423.88 367.81 423.88 367.81C423.88 367.81 423.03 365.21 422.95 365.06C422.08 363.24 419.33 360.23 417.09 360.53C416.719 360.59 416.365 360.727 416.05 360.933C415.736 361.138 415.469 361.408 415.266 361.724C415.063 362.04 414.929 362.396 414.873 362.767C414.817 363.139 414.839 363.518 414.94 363.88C415.31 365.44 416.91 366.59 418.29 367.19Z" fill="#263238"/>
<path opacity="0.3" d="M458.42 368.07C458.42 368.07 459.15 365.43 459.17 365.26C459.45 363.26 458.81 359.26 456.78 358.26C456.438 358.105 456.066 358.025 455.691 358.023C455.315 358.021 454.943 358.099 454.6 358.251C454.256 358.403 453.949 358.626 453.697 358.905C453.445 359.184 453.256 359.513 453.14 359.87C452.59 361.37 453.28 363.21 454.14 364.47C455.06 366 458.42 368.06 458.42 368.07Z" fill="#263238"/>
<path opacity="0.3" d="M470.27 353.69C468.02 353.44 465.35 356.52 464.53 358.37C464.46 358.53 463.63 361.15 463.68 361.15C463.26 361.63 462.81 362.15 462.33 362.73C461.45 363.81 460.46 365.04 459.48 366.45C458.408 367.958 457.427 369.527 456.54 371.15C455.534 372.962 454.69 374.859 454.02 376.82C454.02 376.82 454.02 376.87 454.02 376.89C454.02 376.23 454.02 374.37 454.02 374.23C453.76 372.23 452.08 368.51 449.86 368.1C449.488 368.044 449.109 368.066 448.747 368.165C448.385 368.264 448.047 368.438 447.756 368.675C447.465 368.912 447.227 369.208 447.057 369.543C446.887 369.878 446.789 370.245 446.77 370.62C446.64 372.21 447.77 373.8 448.92 374.81C450.19 375.94 453.71 377.04 453.99 377.12C453.358 379.132 452.861 381.183 452.5 383.26C452.29 384.47 452.11 385.7 451.94 386.93C451.94 386.36 451.94 385.84 451.94 385.77C451.69 383.77 450.01 380.05 447.78 379.64C447.409 379.584 447.03 379.606 446.669 379.705C446.307 379.804 445.97 379.978 445.68 380.215C445.389 380.453 445.152 380.749 444.983 381.084C444.815 381.419 444.718 381.785 444.7 382.16C444.57 383.75 445.7 385.34 446.85 386.35C448 387.36 450.97 388.35 451.76 388.61L451.58 390.03C451.31 392.3 451.05 394.57 450.73 396.78C450.61 397.56 450.47 398.32 450.34 399.09C450.34 398.58 450.34 398.15 450.34 398.09C450.08 396.09 448.4 392.37 446.18 391.96C445.809 391.902 445.43 391.923 445.068 392.021C444.706 392.118 444.368 392.291 444.077 392.528C443.785 392.764 443.547 393.06 443.377 393.394C443.207 393.729 443.109 394.095 443.09 394.47C442.96 396.06 444.09 397.66 445.24 398.66C446.705 399.643 448.314 400.392 450.01 400.88C449.85 401.66 449.69 402.44 449.49 403.19C449.35 403.7 449.24 404.19 449.07 404.7L448.59 406.19C448.25 407.12 447.9 408.08 447.59 408.99C447.35 409.62 447.11 410.21 446.86 410.81C446.99 410.04 447.19 408.51 447.2 408.38C447.173 406.605 446.691 404.866 445.8 403.33C445.82 403.134 445.82 402.936 445.8 402.74C445.752 402.368 445.627 402.01 445.433 401.689C445.238 401.368 444.978 401.092 444.67 400.878C444.361 400.664 444.012 400.517 443.643 400.447C443.274 400.377 442.895 400.384 442.53 400.47C440.34 401.05 438.96 404.89 438.85 406.9C438.85 407.02 438.92 408.32 438.99 409.14C438.88 408.66 438.77 408.2 438.66 407.71C438.43 406.71 438.17 405.79 437.9 404.76C437.75 404.26 437.6 403.76 437.44 403.26C437.28 402.76 437.09 402.26 436.92 401.73C436.48 400.55 435.99 399.37 435.46 398.2C436.31 398 439.3 397.2 440.46 396.31C441.62 395.42 442.93 393.89 442.92 392.31C442.931 391.934 442.863 391.56 442.719 391.213C442.576 390.865 442.361 390.552 442.088 390.293C441.815 390.035 441.491 389.837 441.136 389.712C440.782 389.587 440.405 389.539 440.03 389.57C437.78 389.81 435.83 393.39 435.42 395.37C435.42 395.49 435.26 396.95 435.21 397.74C434.88 397.04 434.57 396.34 434.21 395.64C433.21 393.64 432.12 391.64 431.06 389.58L430.06 387.73C430.36 387.66 433.94 386.83 435.28 385.79C436.62 384.75 437.75 383.37 437.74 381.79C437.751 381.414 437.683 381.04 437.539 380.693C437.396 380.345 437.181 380.032 436.908 379.773C436.635 379.515 436.311 379.317 435.956 379.192C435.602 379.067 435.225 379.019 434.85 379.05C432.6 379.29 430.65 382.87 430.24 384.85C430.24 385 430.02 387.09 430 387.62C429.29 386.26 428.6 384.9 428 383.52C427.141 381.67 426.402 379.766 425.79 377.82C425.93 377.82 429.67 376.94 431.05 375.88C432.25 374.97 433.51 373.47 433.5 371.88C433.511 371.504 433.443 371.13 433.299 370.783C433.156 370.435 432.941 370.122 432.668 369.863C432.395 369.605 432.071 369.407 431.716 369.282C431.362 369.157 430.985 369.109 430.61 369.14C428.37 369.38 426.42 372.96 426.01 374.94C426.01 375.07 425.84 376.66 425.78 377.42H425.66C425.097 375.459 424.712 373.451 424.51 371.42C424.38 370.3 424.32 369.22 424.29 368.16C425 368.08 428.29 367.64 429.6 366.83C430.91 366.02 432.31 364.69 432.48 363.11C432.526 362.741 432.495 362.366 432.387 362.01C432.28 361.654 432.1 361.324 431.858 361.042C431.616 360.759 431.318 360.531 430.982 360.37C430.647 360.21 430.282 360.121 429.91 360.11C427.65 360.11 425.31 363.45 424.69 365.37C424.69 365.47 424.43 366.57 424.28 367.37C424.28 366.9 424.28 366.37 424.28 365.95C424.28 364.24 424.39 362.68 424.49 361.29C424.56 360.51 424.64 359.8 424.72 359.13C425.37 358.68 427.98 356.84 428.79 355.52C429.6 354.2 430.22 352.37 429.63 350.89C429.504 350.536 429.305 350.213 429.047 349.941C428.788 349.669 428.475 349.455 428.128 349.311C427.781 349.168 427.408 349.099 427.033 349.109C426.657 349.119 426.289 349.208 425.95 349.37C423.95 350.37 423.41 354.45 423.74 356.45C423.74 356.62 424.53 359.26 424.56 359.23C424.48 359.87 424.39 360.55 424.31 361.3C424.17 362.69 424.03 364.25 423.99 365.97C423.921 367.818 423.964 369.668 424.12 371.51C424.268 373.576 424.603 375.624 425.12 377.63C425.116 377.653 425.116 377.677 425.12 377.7C424.76 377.14 423.72 375.61 423.62 375.51C422.3 373.98 418.85 371.8 416.77 372.69C416.428 372.846 416.124 373.073 415.876 373.355C415.628 373.637 415.442 373.968 415.331 374.326C415.219 374.685 415.185 375.063 415.229 375.436C415.274 375.809 415.397 376.168 415.59 376.49C416.35 377.89 418.2 378.58 419.69 378.8C421.37 379.04 424.91 378.02 425.19 377.93C425.776 379.958 426.494 381.946 427.34 383.88C427.83 385 428.34 386.12 428.89 387.24C428.57 386.77 428.28 386.35 428.23 386.29C426.91 384.77 423.46 382.59 421.38 383.48C421.038 383.636 420.734 383.863 420.486 384.145C420.238 384.427 420.052 384.758 419.941 385.116C419.829 385.475 419.795 385.853 419.839 386.226C419.884 386.599 420.007 386.958 420.2 387.28C420.96 388.68 422.8 389.37 424.3 389.59C425.8 389.81 428.85 388.99 429.65 388.76L430.28 390.04C431.28 392.09 432.34 394.12 433.28 396.14C433.62 396.86 433.92 397.57 434.23 398.29C433.94 397.87 433.69 397.52 433.65 397.47C432.33 395.94 428.88 393.77 426.8 394.65C426.459 394.807 426.154 395.033 425.906 395.315C425.658 395.596 425.472 395.927 425.359 396.285C425.247 396.644 425.211 397.021 425.255 397.394C425.298 397.767 425.419 398.127 425.61 398.45C426.38 399.85 428.22 400.54 429.72 400.76C431.483 400.768 433.237 400.505 434.92 399.98C435.22 400.72 435.51 401.46 435.76 402.19C435.92 402.7 436.11 403.19 436.24 403.68L436.66 405.19C436.89 406.19 437.14 407.19 437.34 408.1C437.48 408.75 437.61 409.38 437.74 410.02C437.41 409.3 436.74 407.92 436.68 407.81C435.6 406.1 432.52 403.43 430.33 403.99C429.969 404.093 429.633 404.271 429.345 404.512C429.057 404.754 428.822 405.053 428.657 405.39C428.492 405.728 428.4 406.096 428.387 406.472C428.373 406.847 428.439 407.222 428.58 407.57C429.13 409.06 430.85 410.03 432.29 410.47C433.88 410.95 437.39 410.47 437.83 410.47C438.04 411.52 438.24 412.55 438.4 413.47C439 416.83 439.4 419.65 439.59 421.62C439.59 421.97 439.66 422.29 439.7 422.62H432.89L435 463H447.41L449.48 422.49H443.1C443.1 422.39 443.19 422.3 443.24 422.2C444.11 420.39 445.31 417.78 446.62 414.6C447.03 413.6 447.45 412.51 447.87 411.39C448.3 411.48 451.78 412.19 453.4 411.82C455.02 411.45 456.65 410.66 457.31 409.2C457.476 408.864 457.57 408.497 457.585 408.123C457.6 407.749 457.536 407.375 457.397 407.027C457.259 406.679 457.048 406.364 456.78 406.103C456.512 405.842 456.191 405.64 455.84 405.51C453.69 404.79 450.42 407.22 449.22 408.84C449.15 408.94 448.5 410.07 448.1 410.78C448.27 410.33 448.44 409.88 448.61 409.41C448.95 408.48 449.27 407.54 449.61 406.53C449.76 406.03 449.91 405.53 450.06 405.03C450.21 404.53 450.32 404.03 450.46 403.47C450.75 402.24 450.99 400.99 451.2 399.72C452.874 400.389 454.642 400.798 456.44 400.93C457.95 400.82 459.83 400.27 460.7 398.93C460.916 398.623 461.066 398.273 461.138 397.904C461.21 397.535 461.203 397.155 461.118 396.789C461.033 396.422 460.872 396.078 460.645 395.779C460.418 395.479 460.13 395.231 459.8 395.05C457.8 394.05 454.19 395.92 452.8 397.35C452.71 397.44 451.8 398.58 451.31 399.21C451.43 398.45 451.56 397.68 451.65 396.91C451.93 394.67 452.14 392.39 452.36 390.12C452.43 389.42 452.51 388.73 452.58 388.04C452.87 388.14 456.31 389.43 458 389.31C459.51 389.2 461.39 388.65 462.26 387.31C462.476 387.003 462.626 386.653 462.698 386.284C462.77 385.915 462.763 385.535 462.678 385.169C462.593 384.802 462.432 384.458 462.205 384.159C461.978 383.859 461.69 383.611 461.36 383.43C459.36 382.43 455.75 384.31 454.36 385.73C454.25 385.84 452.94 387.48 452.63 387.91C452.79 386.38 452.97 384.86 453.2 383.37C453.506 381.345 453.94 379.341 454.5 377.37C454.64 377.42 458.23 378.77 459.96 378.65C461.46 378.55 463.35 377.99 464.22 376.65C464.435 376.342 464.583 375.993 464.654 375.624C464.725 375.255 464.718 374.876 464.634 374.51C464.549 374.144 464.388 373.8 464.162 373.5C463.935 373.201 463.649 372.952 463.32 372.77C461.32 371.77 457.71 373.64 456.32 375.07C456.22 375.16 455.23 376.41 454.76 377.01L454.65 376.95C455.27 374.993 456.063 373.096 457.02 371.28C457.54 370.28 458.08 369.34 458.64 368.45C459.28 368.77 462.23 370.2 463.8 370.26C465.37 370.32 467.24 369.98 468.26 368.75C468.513 368.466 468.704 368.132 468.819 367.769C468.933 367.406 468.97 367.022 468.925 366.644C468.881 366.266 468.757 365.902 468.561 365.575C468.365 365.249 468.102 364.968 467.79 364.75C465.9 363.5 462.11 365.01 460.54 366.26C460.45 366.33 459.65 367.12 459.08 367.71L459.85 366.51C460.79 365.09 461.75 363.84 462.6 362.75C463.09 362.13 463.55 361.58 463.98 361.06C464.77 361.06 467.98 360.95 469.37 360.3C470.76 359.65 472.3 358.46 472.63 356.9C472.708 356.532 472.707 356.152 472.627 355.784C472.548 355.416 472.392 355.07 472.169 354.767C471.946 354.464 471.662 354.211 471.334 354.025C471.007 353.84 470.644 353.726 470.27 353.69ZM445.38 414.08C444.02 417.2 442.77 419.76 441.87 421.53L441.38 422.53H441.23C441.18 422.19 441.14 421.81 441.08 421.38C440.8 419.38 440.37 416.55 439.7 413.18C439.49 412.11 439.25 410.97 438.98 409.81C440.039 409.392 441.071 408.908 442.07 408.36C443.433 409.529 444.95 410.505 446.58 411.26C446.18 412.21 445.78 413.18 445.38 414.08Z" fill="#263238"/>
<path d="M182 314V398.85C182.001 399.968 181.782 401.075 181.355 402.108C180.928 403.141 180.301 404.08 179.51 404.87C178.72 405.661 177.781 406.288 176.748 406.715C175.715 407.142 174.608 407.361 173.49 407.36H133.13C132.012 407.361 130.905 407.142 129.872 406.715C128.839 406.288 127.9 405.661 127.109 404.87C126.319 404.08 125.692 403.141 125.265 402.108C124.838 401.075 124.619 399.968 124.62 398.85V314C124.62 312.882 124.84 311.776 125.268 310.743C125.695 309.711 126.322 308.773 127.112 307.982C127.903 307.192 128.841 306.565 129.873 306.138C130.906 305.71 132.012 305.49 133.13 305.49H150V305.55C150.5 307.35 151.65 308.55 152.92 308.55H153.65C154.93 308.55 156.08 307.38 156.58 305.55V305.49H173.45C174.571 305.485 175.682 305.701 176.719 306.126C177.756 306.551 178.699 307.177 179.493 307.968C180.288 308.759 180.918 309.699 181.348 310.734C181.778 311.769 182 312.879 182 314Z" stroke="#263238" stroke-linecap="round" stroke-linejoin="round"/>
<path d="M175 319H129V323H175V319Z" stroke="#263238" stroke-linecap="round" stroke-linejoin="round"/>
<path d="M175 330H129V334H175V330Z" stroke="#263238" stroke-linecap="round" stroke-linejoin="round"/>
<path d="M175 341H129V345H175V341Z" stroke="#263238" stroke-linecap="round" stroke-linejoin="round"/>
<path d="M175 363H129V367H175V363Z" stroke="#263238" stroke-linecap="round" stroke-linejoin="round"/>
<path d="M175 374H129V378H175V374Z" stroke="#263238" stroke-linecap="round" stroke-linejoin="round"/>
<path d="M175 385H129V389H175V385Z" stroke="#263238" stroke-linecap="round" stroke-linejoin="round"/>
<path d="M418 63.9998V148.85C418 151.107 417.103 153.271 415.507 154.867C413.911 156.463 411.747 157.36 409.49 157.36H369.13C366.873 157.36 364.708 156.463 363.112 154.867C361.516 153.271 360.62 151.107 360.62 148.85V63.9998C360.62 61.7428 361.516 59.5783 363.112 57.9824C364.708 56.3864 366.873 55.4898 369.13 55.4898H386V55.5498C386.5 57.3498 387.65 58.5498 388.92 58.5498H389.65C390.93 58.5498 392.08 57.3898 392.58 55.5498V55.4898H409.45C410.571 55.4846 411.682 55.7008 412.719 56.1261C413.756 56.5514 414.699 57.1774 415.493 57.9682C416.288 58.7589 416.918 59.6988 417.348 60.7339C417.778 61.769 418 62.8789 418 63.9998Z" stroke="#263238" stroke-linecap="round" stroke-linejoin="round"/>
<path d="M412.73 116.46H366.23V148H412.73V116.46Z" stroke="#263238" stroke-linecap="round" stroke-linejoin="round"/>
<path d="M366.23 148L412.73 116.46" stroke="#263238" stroke-linecap="round" stroke-linejoin="round"/>
<path d="M412.73 148L366.23 116.46" stroke="#263238" stroke-linecap="round" stroke-linejoin="round"/>
<path d="M412.73 100.43H366.23V108.45H412.73V100.43Z" stroke="#263238" stroke-linecap="round" stroke-linejoin="round"/>
<path d="M366.23 108.45L412.73 100.43" stroke="#263238" stroke-linecap="round" stroke-linejoin="round"/>
<path d="M412.73 108.45L366.23 100.43" stroke="#263238" stroke-linecap="round" stroke-linejoin="round"/>
<path d="M412.73 85.1997H366.23V93.2197H412.73V85.1997Z" stroke="#263238" stroke-linecap="round" stroke-linejoin="round"/>
<path d="M366.23 93.2097L412.73 85.1997" stroke="#263238" stroke-linecap="round" stroke-linejoin="round"/>
<path d="M412.73 93.2097L366.23 85.1997" stroke="#263238" stroke-linecap="round" stroke-linejoin="round"/>
<path d="M412.73 69.96H366.23V77.98H412.73V69.96Z" stroke="#263238" stroke-linecap="round" stroke-linejoin="round"/>
<path d="M366.23 77.98L412.73 69.96" stroke="#263238" stroke-linecap="round" stroke-linejoin="round"/>
<path d="M412.73 77.98L366.23 69.96" stroke="#263238" stroke-linecap="round" stroke-linejoin="round"/>
<path d="M431.36 128.41C436.369 128.41 440.43 124.349 440.43 119.34C440.43 114.331 436.369 110.27 431.36 110.27C426.351 110.27 422.29 114.331 422.29 119.34C422.29 124.349 426.351 128.41 431.36 128.41Z" stroke="#263238" stroke-linecap="round" stroke-linejoin="round"/>
<path d="M426.69 116.88L431.23 121.98L442 108.38" stroke="#263238" stroke-linecap="round" stroke-linejoin="round"/>
<path d="M110.31 76.9997V161.85C110.311 162.968 110.092 164.075 109.665 165.108C109.238 166.141 108.611 167.08 107.82 167.87C107.03 168.661 106.091 169.287 105.058 169.715C104.025 170.142 102.918 170.361 101.8 170.36H61.4399C60.322 170.361 59.2148 170.142 58.1817 169.715C57.1487 169.287 56.21 168.661 55.4195 167.87C54.629 167.08 54.0022 166.141 53.575 165.108C53.1478 164.075 52.9286 162.968 52.9299 161.85V76.9997C52.9299 74.7428 53.8265 72.5782 55.4225 70.9823C57.0184 69.3863 59.1829 68.4897 61.4399 68.4897H78.3099V68.5498C78.8099 70.3498 79.9599 71.5498 81.2299 71.5498H81.9999C83.2799 71.5498 84.4299 70.3798 84.9299 68.5498V68.4897H101.8C104.057 68.4897 106.221 69.3863 107.817 70.9823C109.413 72.5782 110.31 74.7428 110.31 76.9997Z" stroke="#263238" stroke-linecap="round" stroke-linejoin="round"/>
<path d="M95.6199 93H67.6199V119H95.6199V93Z" stroke="#263238" stroke-linecap="round" stroke-linejoin="round"/>
<path d="M101.83 140.52H61.3999V155.6H101.83V140.52Z" stroke="#263238" stroke-linecap="round" stroke-linejoin="round"/>
<path d="M77.1699 128.16C77.1699 128.555 77.0526 128.942 76.8329 129.271C76.6131 129.6 76.3007 129.856 75.9353 130.007C75.5698 130.159 75.1677 130.198 74.7797 130.121C74.3918 130.044 74.0354 129.854 73.7557 129.574C73.476 129.294 73.2855 128.938 73.2084 128.55C73.1312 128.162 73.1708 127.76 73.3222 127.394C73.4735 127.029 73.7299 126.716 74.0588 126.497C74.3877 126.277 74.7744 126.16 75.1699 126.16C75.7004 126.16 76.2091 126.37 76.5841 126.745C76.9592 127.121 77.1699 127.629 77.1699 128.16Z" stroke="#263238" stroke-linecap="round" stroke-linejoin="round"/>
<path d="M83.5999 128.16C83.5999 128.555 83.4826 128.942 83.2628 129.271C83.043 129.6 82.7307 129.856 82.3652 130.007C81.9998 130.159 81.5976 130.198 81.2097 130.121C80.8217 130.044 80.4653 129.854 80.1856 129.574C79.9059 129.294 79.7155 128.938 79.6383 128.55C79.5611 128.162 79.6007 127.76 79.7521 127.394C79.9035 127.029 80.1598 126.716 80.4887 126.497C80.8176 126.277 81.2043 126.16 81.5999 126.16C82.1303 126.16 82.639 126.37 83.0141 126.745C83.3891 127.121 83.5999 127.629 83.5999 128.16Z" stroke="#263238" stroke-linecap="round" stroke-linejoin="round"/>
<path d="M88.0498 130.14C89.1434 130.14 90.0298 129.253 90.0298 128.16C90.0298 127.066 89.1434 126.18 88.0498 126.18C86.9563 126.18 86.0698 127.066 86.0698 128.16C86.0698 129.253 86.9563 130.14 88.0498 130.14Z" stroke="#263238" stroke-linecap="round" stroke-linejoin="round"/>
<path d="M53.3599 81.1699H109.75" stroke="#263238" stroke-linecap="round" stroke-linejoin="round"/>
<path d="M244.72 424.55C253.8 424.55 261.16 417.189 261.16 408.11C261.16 399.03 253.8 391.67 244.72 391.67C235.64 391.67 228.28 399.03 228.28 408.11C228.28 417.189 235.64 424.55 244.72 424.55Z" stroke="#263238" stroke-linecap="round" stroke-linejoin="round"/>
<path d="M236.26 403.65L244.48 412.9L264 388.25" stroke="#263238" stroke-linecap="round" stroke-linejoin="round"/>
<path d="M331.16 84.76V337C331.157 343.708 328.491 350.141 323.746 354.883C319.002 359.626 312.568 362.29 305.86 362.29H185.86C179.161 362.277 172.741 359.606 168.009 354.865C163.277 350.124 160.62 343.699 160.62 337V84.76C160.623 78.0544 163.288 71.6243 168.031 66.8837C172.773 62.1431 179.204 59.48 185.91 59.48H236.07L236.12 59.66C237.6 65 241.01 68.47 244.8 68.47H247C250.79 68.47 254.2 65 255.69 59.66L255.75 59.48H305.89C312.592 59.4853 319.018 62.1507 323.756 66.8908C328.494 71.6308 331.157 78.0579 331.16 84.76Z" fill="white"/>
<path d="M295.26 126.72H160.92V270.59H295.26V126.72Z" fill="#263238" stroke="#263238" stroke-linecap="round" stroke-linejoin="round"/>
<path d="M255.66 59.66C254.17 65 250.76 68.47 246.97 68.47H244.8C241.01 68.47 237.6 65 236.12 59.66L236.07 59.48H185.91C179.889 59.476 174.063 61.6197 169.481 65.5257C164.899 69.4318 161.86 74.8441 160.91 80.79H330.84C329.89 74.8441 326.851 69.4318 322.269 65.5257C317.686 61.6197 311.861 59.476 305.84 59.48H255.72L255.66 59.66Z" fill="#D4D4D4"/>
<path d="M342 152.06V120H339.1V79.0002C339.1 72.292 336.436 65.8583 331.693 61.1139C326.951 56.3696 320.518 53.7029 313.81 53.7002H178C174.675 53.6963 171.382 54.3478 168.309 55.6174C165.236 56.8871 162.443 58.7501 160.091 61.0998C157.738 63.4495 155.872 66.2399 154.599 69.3114C153.325 72.3829 152.67 75.6752 152.67 79.0002V355C152.669 358.326 153.323 361.618 154.596 364.691C155.869 367.763 157.735 370.554 160.088 372.904C162.441 375.254 165.234 377.116 168.307 378.386C171.381 379.655 174.675 380.305 178 380.3H313.81C317.132 380.3 320.421 379.646 323.49 378.374C326.559 377.103 329.348 375.239 331.696 372.889C334.045 370.54 335.907 367.751 337.178 364.681C338.448 361.612 339.101 358.322 339.1 355V179.38H342V160.44H339.1V152.06H342ZM331.16 337C331.157 343.708 328.491 350.141 323.746 354.884C319.002 359.626 312.568 362.29 305.86 362.29H185.86C179.161 362.277 172.741 359.607 168.01 354.865C163.278 350.124 160.62 343.699 160.62 337V84.7602C160.623 78.0546 163.288 71.6246 168.031 66.8839C172.773 62.1433 179.204 59.4802 185.91 59.4802H236.07L236.12 59.6602C237.6 65.0002 241.01 68.4702 244.8 68.4702H247C250.79 68.4702 254.2 65.0002 255.69 59.6602L255.75 59.4802H305.89C309.211 59.4789 312.5 60.1317 315.569 61.4015C318.638 62.6712 321.426 64.5329 323.776 66.8804C326.125 69.2279 327.989 72.0151 329.261 75.0829C330.533 78.1507 331.189 81.4391 331.19 84.7602L331.16 337Z" fill="#707070" stroke="#263238" stroke-linejoin="round"/>
<path d="M310.88 57.1802H180.88C174.174 57.1828 167.744 59.8485 163.004 64.591C158.263 69.3335 155.6 75.7646 155.6 82.4702V351.53C155.6 354.851 156.254 358.14 157.525 361.208C158.796 364.277 160.659 367.065 163.007 369.413C165.356 371.761 168.143 373.624 171.212 374.895C174.28 376.166 177.569 376.82 180.89 376.82H310.89C314.211 376.82 317.5 376.166 320.568 374.895C323.636 373.624 326.424 371.761 328.773 369.413C331.121 367.065 332.984 364.277 334.255 361.208C335.526 358.14 336.18 354.851 336.18 351.53V82.4702C336.18 79.1482 335.525 75.8588 334.254 72.7898C332.982 69.7208 331.118 66.9324 328.769 64.5839C326.42 62.2354 323.63 60.3727 320.561 59.1024C317.492 57.832 314.202 57.1789 310.88 57.1802ZM331.16 337C331.157 343.708 328.491 350.141 323.746 354.884C319.002 359.626 312.568 362.29 305.86 362.29H185.86C179.161 362.277 172.741 359.607 168.009 354.865C163.277 350.124 160.62 343.699 160.62 337V84.7602C160.622 78.0546 163.288 71.6245 168.031 66.8839C172.773 62.1433 179.204 59.4802 185.91 59.4802H236.07L236.12 59.6602C237.6 65.0002 241.01 68.4702 244.8 68.4702H247C250.79 68.4702 254.2 65.0002 255.69 59.6602L255.75 59.4802H305.89C309.211 59.4789 312.5 60.1317 315.569 61.4014C318.637 62.6712 321.426 64.5329 323.776 66.8804C326.125 69.2278 327.989 72.0151 329.261 75.0829C330.533 78.1507 331.189 81.439 331.19 84.7602L331.16 337Z" fill="#263238" stroke="#263238" stroke-linejoin="round"/>
<path d="M247.74 60.6903C247.742 60.2187 247.604 59.7572 247.343 59.3643C247.082 58.9713 246.711 58.6647 246.275 58.4834C245.84 58.302 245.361 58.254 244.898 58.3455C244.436 58.4371 244.011 58.6639 243.677 58.9974C243.344 59.3308 243.117 59.7558 243.025 60.2184C242.934 60.681 242.982 61.1604 243.163 61.5957C243.344 62.031 243.651 62.4026 244.044 62.6633C244.437 62.9241 244.898 63.0623 245.37 63.0603C245.998 63.0576 246.599 62.8071 247.043 62.3632C247.487 61.9193 247.737 61.318 247.74 60.6903Z" fill="white"/>
<path d="M175.78 69.7903C175.78 72.1903 173.08 73.0503 173.07 74.8903V75.0003H175.69V75.8103H172.19V75.1303C172.19 72.5503 174.89 72.0503 174.89 69.8103C174.89 68.9903 174.62 68.5603 173.96 68.5603C173.3 68.5603 173 69.0003 173 69.7403V70.4503H172.17V69.8003C172.17 68.5803 172.73 67.8003 173.96 67.8003C175.19 67.8003 175.78 68.5703 175.78 69.7903Z" fill="#263238"/>
<path d="M180.14 69.7803V70.0003C180.177 70.3455 180.099 70.6933 179.918 70.9897C179.737 71.2861 179.464 71.5148 179.14 71.6403C179.466 71.7662 179.74 71.9964 179.921 72.2949C180.102 72.5934 180.179 72.9434 180.14 73.2903V73.9003C180.14 75.1203 179.57 75.9003 178.34 75.9003C177.11 75.9003 176.55 75.1003 176.55 73.9003V73.3603H177.38V73.9603C177.38 74.6803 177.68 75.1103 178.32 75.1103C178.96 75.1103 179.25 74.6903 179.25 73.8803V73.2703C179.25 72.4803 178.92 72.1103 178.25 72.0803H177.77V71.2903H178.29C178.43 71.291 178.569 71.2622 178.697 71.2058C178.826 71.1494 178.941 71.0667 179.035 70.963C179.129 70.8593 179.201 70.7369 179.245 70.6037C179.289 70.4706 179.304 70.3298 179.29 70.1903V69.8303C179.29 69.0103 179.01 68.5903 178.36 68.5903C177.71 68.5903 177.42 69.0303 177.42 69.7503V70.1603H176.59V69.8003C176.59 68.5803 177.16 67.8003 178.38 67.8003C179.6 67.8003 180.14 68.5603 180.14 69.7803Z" fill="#263238"/>
<path d="M181.86 70.3804V71.4804H181V70.3804H181.86ZM181.86 74.7204V75.8204H181V74.7204H181.86Z" fill="#263238"/>
<path d="M183.66 71.1001C183.775 70.8901 183.946 70.7168 184.155 70.6C184.364 70.4833 184.601 70.4278 184.84 70.4401C185.84 70.4401 186.32 71.1901 186.32 72.3301V73.8801C186.32 75.1001 185.74 75.8801 184.52 75.8801C183.3 75.8801 182.73 75.0801 182.73 73.8801V73.3501H183.57V73.9401C183.57 74.6601 183.86 75.0901 184.5 75.0901C185.14 75.0901 185.43 74.6601 185.43 73.9401V72.3901C185.43 71.6801 185.14 71.2401 184.5 71.2401C184.384 71.2347 184.268 71.2529 184.159 71.2937C184.05 71.3345 183.95 71.397 183.866 71.4774C183.782 71.5578 183.715 71.6544 183.669 71.7615C183.623 71.8685 183.6 71.9837 183.6 72.1001V72.2801H182.77L182.99 67.8501H186.13V68.6501H183.78L183.66 71.1001Z" fill="#263238"/>
<path d="M190.75 69.7603V69.9103H189.92V69.7103C189.92 68.9903 189.62 68.5703 188.97 68.5703C188.32 68.5703 187.97 69.0003 187.97 69.8503V71.6403C188.063 71.3792 188.238 71.1552 188.468 71.0019C188.699 70.8486 188.973 70.7744 189.25 70.7903C190.25 70.7903 190.73 71.5303 190.73 72.6803V73.8803C190.73 75.1003 190.13 75.8803 188.91 75.8803C187.69 75.8803 187.08 75.0803 187.08 73.8803V69.8203C187.08 68.5603 187.65 67.8203 188.91 67.8203C190.17 67.8203 190.75 68.5503 190.75 69.7603ZM188.01 72.7603V73.9503C188.01 74.6703 188.3 75.1003 188.95 75.1003C189.6 75.1003 189.95 74.6703 189.95 73.9503V72.7503C189.95 72.0303 189.64 71.6003 188.95 71.6003C188.26 71.6003 188 72.0003 188 72.7503L188.01 72.7603Z" fill="#263238"/>
<path d="M277.75 70.1104H275.5V75.7403H277.75V70.1104Z" fill="#263238"/>
<path d="M280.75 68.9902H278.5V75.7402H280.75V68.9902Z" fill="#263238"/>
<path d="M283.75 68.1904H281.5V75.7404H283.75V68.1904Z" fill="#263238"/>
<path d="M286.75 66.8003H284.5V75.7403H286.75V66.8003Z" fill="#263238"/>
<path d="M314.59 75.5801H301.09V67.3301H314.59V75.5801ZM301.84 74.8301H313.84V68.0801H301.84V74.8301Z" fill="#263238"/>
<path d="M310.09 68.9004H302.96V74.0204H310.09V68.9004Z" fill="#263238"/>
<path d="M315.82 70.4902H314.12V72.4302H315.82V70.4902Z" fill="#263238"/>
<path d="M296.14 73.7901C296.048 73.792 295.958 73.7677 295.88 73.7201C293.13 72.0901 291.32 73.6001 291.24 73.7201C291.145 73.8123 291.018 73.8639 290.885 73.8639C290.752 73.8639 290.625 73.8123 290.53 73.7201C290.444 73.6186 290.401 73.4875 290.411 73.3549C290.42 73.2223 290.481 73.0986 290.58 73.0101C290.68 72.9201 293 70.9301 296.4 72.9501C296.492 73.0087 296.563 73.0954 296.602 73.1973C296.641 73.2992 296.647 73.411 296.618 73.5162C296.589 73.6215 296.526 73.7146 296.44 73.7819C296.354 73.8492 296.249 73.8871 296.14 73.8901V73.7901Z" fill="#263238"/>
<path d="M297.16 72.1003C297.068 72.0981 296.978 72.0704 296.9 72.0203C292.9 69.6603 290.26 71.9503 290.23 72.0203C290.135 72.1125 290.007 72.1641 289.875 72.1641C289.742 72.1641 289.615 72.1125 289.52 72.0203C289.473 71.9738 289.436 71.9185 289.411 71.8575C289.385 71.7966 289.372 71.7313 289.372 71.6653C289.372 71.5993 289.385 71.5339 289.411 71.473C289.436 71.412 289.473 71.3567 289.52 71.3103C289.52 71.3103 292.77 68.5303 297.37 71.3103C297.469 71.3636 297.547 71.4487 297.592 71.5519C297.636 71.6551 297.645 71.7703 297.616 71.8789C297.587 71.9876 297.522 72.0833 297.432 72.1507C297.342 72.2181 297.232 72.2531 297.12 72.2503L297.16 72.1003Z" fill="#263238"/>
<path d="M298.08 70.1303C297.988 70.1323 297.898 70.108 297.82 70.0603C292.82 67.0603 289.44 69.8903 289.3 70.0603C289.25 70.1037 289.192 70.1367 289.129 70.1577C289.067 70.1786 289 70.187 288.934 70.1824C288.869 70.1777 288.804 70.1601 288.745 70.1306C288.686 70.1011 288.633 70.0602 288.59 70.0103C288.546 69.9604 288.513 69.9025 288.492 69.8398C288.472 69.7771 288.463 69.7109 288.468 69.645C288.472 69.579 288.49 69.5147 288.52 69.4555C288.549 69.3964 288.59 69.3437 288.64 69.3003C288.64 69.3003 292.64 65.8703 298.34 69.3003C298.397 69.3342 298.446 69.379 298.485 69.4322C298.525 69.4853 298.553 69.5457 298.569 69.6099C298.585 69.674 298.587 69.7407 298.577 69.806C298.567 69.8713 298.544 69.9339 298.51 69.9903C298.455 70.0465 298.387 70.0885 298.312 70.1129C298.237 70.1373 298.157 70.1432 298.08 70.1303Z" fill="#263238"/>
<path d="M294.62 74.6302C294.622 74.8822 294.549 75.1291 294.41 75.3395C294.271 75.5498 294.073 75.7142 293.841 75.8115C293.608 75.9089 293.352 75.9349 293.105 75.8862C292.857 75.8375 292.63 75.7164 292.452 75.5381C292.274 75.3599 292.153 75.1327 292.104 74.8854C292.055 74.6382 292.081 74.382 292.179 74.1495C292.276 73.917 292.44 73.7188 292.651 73.58C292.861 73.4412 293.108 73.3682 293.36 73.3702C293.693 73.3728 294.012 73.5064 294.248 73.7421C294.484 73.9778 294.617 74.2968 294.62 74.6302Z" fill="#263238"/>
<path d="M289.81 121.52H144.2V262.79H289.81V121.52Z" fill="#8B18FF" stroke="#263238" stroke-linecap="round" stroke-linejoin="round"/>
<path d="M277.67 133.29H156.33V223.79H277.67V133.29Z" fill="white" stroke="#263238" stroke-linecap="round" stroke-linejoin="round"/>
<path d="M276.2 133.29L154.86 223.79" stroke="#263238" stroke-linecap="round" stroke-linejoin="round"/>
<path d="M156.33 133.29L277.67 223.79" stroke="#263238" stroke-linecap="round" stroke-linejoin="round"/>
<path d="M200.53 241.99C202.921 241.99 204.86 240.051 204.86 237.66C204.86 235.269 202.921 233.33 200.53 233.33C198.139 233.33 196.2 235.269 196.2 237.66C196.2 240.051 198.139 241.99 200.53 241.99Z" fill="white" stroke="#263238" stroke-linecap="round" stroke-linejoin="round"/>
<path d="M217 241.99C219.391 241.99 221.33 240.051 221.33 237.66C221.33 235.269 219.391 233.33 217 233.33C214.609 233.33 212.67 235.269 212.67 237.66C212.67 240.051 214.609 241.99 217 241.99Z" fill="white" stroke="#263238" stroke-linecap="round" stroke-linejoin="round"/>
<path d="M233.47 241.99C235.861 241.99 237.8 240.051 237.8 237.66C237.8 235.269 235.861 233.33 233.47 233.33C231.079 233.33 229.14 235.269 229.14 237.66C229.14 240.051 231.079 241.99 233.47 241.99Z" fill="white" stroke="#263238" stroke-linecap="round" stroke-linejoin="round"/>
<path d="M243.26 275.79H174.53V352.06H243.26V275.79Z" fill="#8B18FF" stroke="#263238" stroke-linecap="round" stroke-linejoin="round"/>
<path d="M236.45 302.66H180.67V344.26H236.45V302.66Z" fill="white" stroke="#263238" stroke-linecap="round" stroke-linejoin="round"/>
<path d="M235.77 302.66L179.99 344.26" stroke="#263238" stroke-linecap="round" stroke-linejoin="round"/>
<path d="M180.67 302.66L236.45 344.26" stroke="#263238" stroke-linecap="round" stroke-linejoin="round"/>
<path d="M229.4 283.6H186.93V292.27H229.4V283.6Z" fill="white" stroke="#263238" stroke-linecap="round" stroke-linejoin="round"/>
<path d="M320.14 275.79H251.06V352.06H320.14V275.79Z" fill="#8B18FF" stroke="#263238" stroke-linecap="round" stroke-linejoin="round"/>
<path d="M313.59 302.66H257.81V344.26H313.59V302.66Z" fill="white" stroke="#263238" stroke-linecap="round" stroke-linejoin="round"/>
<path d="M312.91 302.66L257.13 344.26" stroke="#263238" stroke-linecap="round" stroke-linejoin="round"/>
<path d="M257.81 302.66L313.59 344.26" stroke="#263238" stroke-linecap="round" stroke-linejoin="round"/>
<path d="M306.53 283.6H264.06V292.27H306.53V283.6Z" fill="white" stroke="#263238" stroke-linecap="round" stroke-linejoin="round"/>
<path d="M175.66 98.1201H194.73" stroke="#263238" stroke-linecap="round" stroke-linejoin="round"/>
<path d="M175.66 104.19H194.73" stroke="#263238" stroke-linecap="round" stroke-linejoin="round"/>
<path d="M175.66 110.26H194.73" stroke="#263238" stroke-linecap="round" stroke-linejoin="round"/>
<path d="M293.53 98.1201H209.46V111.12H293.53V98.1201Z" fill="#8B18FF" stroke="#263238" stroke-linecap="round" stroke-linejoin="round"/>
<path d="M371.54 227.25C371.54 227.25 371.79 223.05 370.54 223.05C369.29 223.05 367.09 223.05 367.09 224.05C367.09 225.05 366.84 227.05 366.84 227.05C366.84 227.05 362.65 228.28 362.16 229.05C361.67 229.82 358.95 229.55 358.7 231.77C358.624 234.895 358.707 238.023 358.95 241.14L373 236.62C373.592 235.704 374.009 234.687 374.23 233.62C374.48 232.14 374.98 229.43 375.72 228.69C376.46 227.95 377.72 226.22 375.72 226.22C374.277 226.313 372.862 226.662 371.54 227.25Z" fill="white" stroke="#263238" stroke-linecap="round" stroke-linejoin="round"/>
<path d="M371.54 227.25C371.201 227.56 370.935 227.942 370.762 228.367C370.589 228.793 370.513 229.251 370.54 229.71" stroke="#263238" stroke-linecap="round" stroke-linejoin="round"/>
<path d="M380.67 192C380.67 192 375.49 198.17 375.49 199.9V204.09C375.49 204.09 369.57 209.52 369.57 210.76C369.57 212 371.29 213.96 371.29 213.96C371.29 213.96 370.8 224.08 372.29 225.31C373.78 226.54 378.71 225.81 378.71 225.81L379.94 230.25L398.69 225.81L403.62 220.13C403.62 220.13 408.07 217.91 410.04 209.27C412.01 200.63 409.04 191.76 405.1 189.27C401.16 186.78 388.57 181.87 383.64 182.86C378.71 183.85 376.72 188.76 380.67 192Z" fill="white" stroke="#263238" stroke-linecap="round" stroke-linejoin="round"/>
<path d="M410 209.23C412 200.6 409 191.72 405.06 189.23C401.12 186.74 388.53 181.83 383.6 182.82C378.67 183.81 376.69 188.74 380.6 191.94L382.82 194.94C382.82 194.94 378.63 199.13 379.12 200.36C379.61 201.59 382.12 202.36 382.12 202.36C382.12 202.36 380.89 206.55 382.37 207.29C382.564 207.392 382.776 207.454 382.993 207.472C383.211 207.489 383.431 207.463 383.638 207.394C383.846 207.325 384.037 207.214 384.2 207.069C384.364 206.924 384.497 206.748 384.59 206.55C384.59 206.55 384.83 210.5 385.08 213.71C385.33 216.92 386.31 223.08 389.52 224.56C392.4 225.89 395.08 225.83 398.62 225.8L403.55 220.12C403.55 220.12 408.06 217.87 410 209.23Z" fill="#263238" stroke="#263238" stroke-linecap="round" stroke-linejoin="round"/>
<path d="M381.16 209.73C381.16 209.73 382.89 204.79 384.62 206.52C386.35 208.25 385.85 214.66 384.62 216.14C383.39 217.62 381.16 215.65 381.16 215.65" fill="white"/>
<path d="M381.16 209.73C381.16 209.73 382.89 204.79 384.62 206.52C386.35 208.25 385.85 214.66 384.62 216.14C383.39 217.62 381.16 215.65 381.16 215.65" stroke="#263238" stroke-linecap="round" stroke-linejoin="round"/>
<path d="M374.25 233.66L373.76 230.66C373.76 230.66 383.38 225.73 388.32 224.74C393.26 223.75 396.95 223.74 398.68 224.74C400.41 225.74 402.63 231.89 402.63 231.89C402.63 231.89 393.75 228.89 387.58 230.89C381.41 232.89 374.5 235.57 374.5 235.57L374.25 233.66Z" fill="white" stroke="#263238" stroke-linecap="round" stroke-linejoin="round"/>
<path d="M357.54 460.22C355.572 461.547 353.482 462.685 351.3 463.62C347.89 465.04 346.19 465.89 346.76 467.88C347.33 469.87 351.87 470.71 357.26 472.13C362.65 473.55 370.31 475.82 373.43 475.25C376.55 474.68 377.12 472.98 377.12 471.25C377.12 469.52 374.85 462.74 374.85 462.74L357.54 460.22Z" stroke="#263238" stroke-linecap="round" stroke-linejoin="round"/>
<path d="M404.36 461.35C404.36 461.35 402.94 470.71 404.07 472.7C405.2 474.69 413.72 474.7 415.42 473.55C416.53 472.697 417.328 471.502 417.69 470.15L416.56 458.8L402.65 461.35" fill="white"/>
<path d="M404.36 461.35C404.36 461.35 402.94 470.71 404.07 472.7C405.2 474.69 413.72 474.7 415.42 473.55C416.53 472.697 417.328 471.502 417.69 470.15L416.56 458.8L402.65 461.35" stroke="#263238" stroke-linecap="round" stroke-linejoin="round"/>
<path d="M356.12 333.67C356.12 333.67 356.12 372.82 356.69 388.43C357.283 400.136 358.619 411.793 360.69 423.33C360.98 424.46 359.84 455.39 359.84 455.39L356.44 457.66L356.15 461.66C356.15 461.66 359.84 467.06 365.23 469.33C370.62 471.6 376 469 376 469C376 469 378.84 457.37 379.41 456.23C379.98 455.09 381.68 421.05 381.68 415.94V393.54L386.79 351.83L387.07 347.57C387.07 347.57 394.45 394.1 395.58 400.63C396.71 407.16 400.97 422.19 401.58 427.63C402.19 433.07 403.58 454.01 403.58 454.01L402.72 461.39L404.99 464.8C407.258 465.676 409.66 466.153 412.09 466.21C415.78 466.21 417.2 462.53 417.2 462.53V454C417.2 451.45 416.34 448 416.34 447.19C416.34 446.38 418.05 415.42 417.48 404.92C416.91 394.42 413.79 342.5 413.79 342.5L414.64 333.7C414.64 333.7 393.08 339.09 378.32 335.97C363.56 332.85 356.48 330.29 356.48 330.29V332.56L356.12 333.67Z" fill="#263238" stroke="#263238" stroke-linecap="round" stroke-linejoin="round"/>
<path d="M421.38 240.07C421.38 240.07 423.11 241.8 425.33 247.72C427.55 253.64 441.33 286.46 439.64 288.18C437.95 289.9 413.73 306.94 413.73 306.94L411.26 299.78L422.37 285L414.22 269C414.22 269 411.22 265.79 412.5 258.39C413.78 250.99 421.38 240.07 421.38 240.07Z" fill="#8B18FF" stroke="#263238" stroke-linecap="round" stroke-linejoin="round"/>
<path d="M419.1 259.26L424.76 282.85L431.97 286.94L422.37 284.98L415.4 271.16L419.1 259.26Z" fill="#263238" stroke="#263238" stroke-linecap="round" stroke-linejoin="round"/>
<path d="M420.88 253.4L410.52 287.69L411.02 295.09C411.02 295.09 411.76 296.82 413.24 300.03C414.72 303.24 423.6 326.43 422.86 327.66C422.12 328.89 417.18 331.11 417.18 331.11L416.94 335.31C412.583 337.038 408.133 338.52 403.61 339.75C397.69 341.23 384.37 341.75 374.75 340.75C365.13 339.75 353 334.07 353 334.07C353.631 328.999 354.549 323.967 355.75 319C357.23 313.82 361.92 291.37 361.92 291.37L358.71 272.13L355.71 278.79C355.71 278.79 349.05 289.65 347.32 290.88C345.59 292.11 340.41 293.1 337.45 290.39C334.49 287.68 335.45 279.04 337.45 275.09C339.45 271.14 351.02 246.72 351.02 244.99C351.02 243.26 375.7 233.89 375.7 233.89C375.7 233.89 387.78 230.19 395.43 230.19C403.08 230.19 406.54 233.19 406.54 233.19C406.54 233.19 419.36 236.89 421.34 240.09C423.32 243.29 421.58 250.21 421.58 250.21" fill="#8B18FF"/>
<path d="M420.88 253.4L410.52 287.69L411.02 295.09C411.02 295.09 411.76 296.82 413.24 300.03C414.72 303.24 423.6 326.43 422.86 327.66C422.12 328.89 417.18 331.11 417.18 331.11L416.94 335.31C412.583 337.038 408.133 338.52 403.61 339.75C397.69 341.23 384.37 341.75 374.75 340.75C365.13 339.75 353 334.07 353 334.07C353.631 328.999 354.549 323.967 355.75 319C357.23 313.82 361.92 291.37 361.92 291.37L358.71 272.13L355.71 278.79C355.71 278.79 349.05 289.65 347.32 290.88C345.59 292.11 340.41 293.1 337.45 290.39C334.49 287.68 335.45 279.04 337.45 275.09C339.45 271.14 351.02 246.72 351.02 244.99C351.02 243.26 375.7 233.89 375.7 233.89C375.7 233.89 387.78 230.19 395.43 230.19C403.08 230.19 406.54 233.19 406.54 233.19C406.54 233.19 419.36 236.89 421.34 240.09C423.32 243.29 421.58 250.21 421.58 250.21" stroke="#263238" stroke-linecap="round" stroke-linejoin="round"/>
<path d="M416.39 328.86L410.75 300.98L419.22 329.92L417.18 331.11L416.39 328.86Z" fill="#263238" stroke="#263238" stroke-linecap="round" stroke-linejoin="round"/>
<path d="M355.83 259.28L355.01 255.62" stroke="#263238" stroke-linecap="round" stroke-linejoin="round"/>
<path d="M358.71 272.15L356.71 263.23" stroke="#263238" stroke-linecap="round" stroke-linejoin="round"/>
<path d="M376.48 291.39L399.67 287.2" stroke="#263238" stroke-linecap="round" stroke-linejoin="round"/>
<path d="M395.64 291.56L400.16 291.15" stroke="#263238" stroke-linecap="round" stroke-linejoin="round"/>
<path d="M381.16 292.87L393.93 291.71" stroke="#263238" stroke-linecap="round" stroke-linejoin="round"/>
<path d="M369.36 236.48C369.36 236.48 374.79 233.11 375.54 232.55C376.29 231.99 385.28 227.87 392.02 227.31C398.76 226.75 400.45 227.31 400.45 227.31L403.26 231.99C403.26 231.99 383.78 233.3 378.17 234.99C374.727 236.014 371.223 236.826 367.68 237.42L369.36 236.48Z" fill="#8B18FF" stroke="#263238" stroke-linecap="round" stroke-linejoin="round"/>
<path d="M78.2 443.07L79.71 453.25C79.71 453.25 75.19 464.94 76.32 470.25C77.45 475.56 81.6 475.53 83.48 474.02C85.36 472.51 87.26 468.37 87.26 464.97C87.26 461.57 86.88 453.66 86.88 451.77C86.654 449.362 86.2766 446.97 85.75 444.61L78.2 443.07Z" fill="white" stroke="#263238" stroke-linecap="round" stroke-linejoin="round"/>
<path d="M81 469.72C78.35 469.41 77.06 466.65 76.47 464.72C76.0965 466.533 76.0457 468.399 76.32 470.23C77.45 475.51 81.6 475.51 83.48 474C85.13 472.69 86.78 469.35 87.17 466.27C85.83 467.91 83.58 470 81 469.72Z" fill="#263238" stroke="#263238" stroke-linecap="round" stroke-linejoin="round"/>
<path d="M143 441.53C143 441.53 150.46 457.45 151.79 459.61C153.12 461.77 159.91 469.39 159.42 469.89C158.93 470.39 157.1 471.38 153.28 470.72C149.46 470.06 146.65 467.24 144.82 465.41C142.99 463.58 138.82 462.92 137.03 461.93C135.24 460.94 136.53 455.29 137.53 453.3C138.093 452.28 138.434 451.152 138.53 449.99L135.21 440.37L143 441.53Z" fill="white" stroke="#263238" stroke-linecap="round" stroke-linejoin="round"/>
<path d="M159.45 469.89C159.73 469.6 157.61 466.96 155.5 464.35C153.626 465.217 151.527 465.473 149.5 465.08C146.01 464.08 140.37 454.63 137.56 453.3C136.56 455.3 135.23 460.93 137.06 461.93C138.89 462.93 143.06 463.59 144.85 465.41C146.64 467.23 149.5 470.05 153.31 470.72C157.12 471.39 159 470.39 159.45 469.89Z" fill="#263238" stroke="#263238" stroke-linecap="round" stroke-linejoin="round"/>
<path d="M64.63 314.46C64.63 314.46 57.46 338.22 59.35 351.46C61.24 364.7 69.15 387.66 69.53 390.3C69.91 392.94 66.89 403.88 69.91 414.82C72.93 425.76 75.19 447.26 75.19 447.26L86.5 446.5L92.5 351.83C92.5 351.83 111 394 112.9 396.68C114.8 399.36 130.63 442.68 130.63 442.68L143.83 443.43C143.83 443.43 135.15 392.52 133.27 387.61C131.39 382.7 127.27 374.04 127.27 374.04C127.27 374.04 118.98 324.63 117.47 319.35C115.96 314.07 109.55 300.11 109.55 300.11L73.72 301.62L64.63 314.46Z" fill="#263238" stroke="#263238" stroke-linecap="round" stroke-linejoin="round"/>
<path d="M85.76 305.5C85.76 305.5 98.51 307.25 108.26 304.75C108.26 304.75 98.26 251.5 98.26 250.5C98.26 249.5 73.76 254 73.76 254L85.76 305.5Z" fill="white" stroke="#263238" stroke-linecap="round" stroke-linejoin="round"/>
<path d="M98.14 231.89L93.8 241.32L96.86 255.85C94.7428 257.696 92.0181 258.693 89.21 258.65C86.5218 258.704 83.8458 258.274 81.31 257.38L76.47 237.75L86.92 222.45C87.8455 224.84 89.3589 226.958 91.32 228.608C93.2812 230.258 95.6269 231.387 98.14 231.89Z" fill="white" stroke="#263238" stroke-linecap="round" stroke-linejoin="round"/>
<path d="M89.1001 231.11L94.1401 238.99L97.2901 233.32L89.1001 231.11Z" fill="#263238" stroke="#263238" stroke-linecap="round" stroke-linejoin="round"/>
<path d="M83.35 215.32C83.6685 215.424 84.0053 215.459 84.3384 215.423C84.6715 215.388 84.9932 215.282 85.2824 215.113C85.5715 214.943 85.8215 214.715 86.0159 214.442C86.2103 214.169 86.3446 213.858 86.41 213.53C87.17 210.98 88.19 208.43 90.74 207.67C93.093 206.985 95.2109 205.663 96.86 203.85C98.4431 202.271 100.148 200.82 101.96 199.51C101.96 199.51 106.55 206.9 106.55 208.43C106.55 209.96 105.07 211.2 106.04 212.51C107.81 214.93 110.88 218.06 110.63 218.89C110.03 220.89 107.31 223.22 107.31 223.22C107.31 223.22 107.57 230.87 105.53 232.91C103.49 234.95 96.1 233.41 93.53 232.91C90.96 232.41 85.63 230.36 85.12 229.34C84.61 228.32 82.82 222.2 82.82 222.2C82.82 222.2 82.33 216.08 83.35 215.32Z" fill="white" stroke="#263238" stroke-linecap="round" stroke-linejoin="round"/>
<path d="M101.19 214.81C101.753 214.81 102.21 214.067 102.21 213.15C102.21 212.233 101.753 211.49 101.19 211.49C100.627 211.49 100.17 212.233 100.17 213.15C100.17 214.067 100.627 214.81 101.19 214.81Z" fill="#263238"/>
<path d="M98.3899 210C98.5716 209.547 98.8421 209.135 99.1854 208.788C99.5286 208.442 99.9378 208.167 100.389 207.981C100.84 207.794 101.323 207.7 101.811 207.703C102.299 207.707 102.782 207.807 103.23 208" stroke="#263238" stroke-linecap="round" stroke-linejoin="round"/>
<path d="M106 225C106 225 103.19 226.53 100.9 223.47" stroke="#263238" stroke-linecap="round" stroke-linejoin="round"/>
<path d="M106.55 208.43C106.55 208.43 108.55 208.18 111.39 205.38C114.23 202.58 117.25 200.79 109.86 192.88C102.47 184.97 84.6301 182.94 78.2501 185.49C71.8701 188.04 63.0001 200 61.9401 207.16C60.8801 214.32 65.0001 218.89 65.2501 221.43C65.5001 223.97 58.8801 226 65.0001 232.65C71.1201 239.3 77.0001 239 83.3501 238C89.7001 237 91.7601 228.57 91.7601 228.57C91.7601 228.57 87.4301 228.32 86.1601 226.57C84.8901 224.82 81.5701 220.45 81.8201 217.4C82.0701 214.35 86.1601 216.63 88.4501 214.59C90.7401 212.55 88.4501 208.98 92.2701 207.96C96.0901 206.94 100.94 205.96 101.7 203.38L102.47 200.83C102.47 200.83 106.55 206.39 106.55 208.43Z" fill="#263238" stroke="#263238" stroke-linecap="round" stroke-linejoin="round"/>
<path d="M85.1399 223.73C84.0068 223.998 82.8194 223.922 81.7294 223.513C80.6393 223.103 79.6961 222.378 79.0199 221.43C76.7199 218.12 77.4899 213.53 80.5499 212.77C83.6099 212.01 84.8799 218.12 84.8799 218.12" fill="white"/>
<path d="M85.1399 223.73C84.0068 223.998 82.8194 223.922 81.7294 223.513C80.6393 223.103 79.6961 222.378 79.0199 221.43C76.7199 218.12 77.4899 213.53 80.5499 212.77C83.6099 212.01 84.8799 218.12 84.8799 218.12" stroke="#263238" stroke-linecap="round" stroke-linejoin="round"/>
<path d="M91.0001 336.91C85.6781 337.663 80.2829 337.747 74.9401 337.16C66.7801 336.16 56.3301 332.57 56.3301 332.57L70.1001 300C70.1001 300 55.8201 252.58 55.8201 250.8C55.8201 249.61 64.9701 244.24 71.0901 240.8C74.1601 239.06 76.4701 237.8 76.4701 237.8C76.4701 237.8 87.1701 264.8 87.4701 269.66C87.6701 273.55 88.8601 286.28 89.5801 293.15C89.7701 294.85 89.9201 296.15 90.0201 296.94C90.4901 300.71 91.0001 336.91 91.0001 336.91Z" fill="#8B18FF" stroke="#263238" stroke-linecap="round" stroke-linejoin="round"/>
<path d="M89.5401 293.1C86.7001 286.28 82.8001 276.62 80.9201 270.79C78.3101 262.69 72.9201 246.14 71.0901 240.74C74.1601 239 76.4701 237.74 76.4701 237.74C76.4701 237.74 87.1701 264.74 87.4701 269.6C87.6301 273.5 88.8201 286.23 89.5401 293.1Z" fill="#8B18FF" stroke="#263238" stroke-linecap="round" stroke-linejoin="round"/>
<path d="M152.18 223.22C152.18 223.22 155.39 214.96 155.39 213.94C155.39 212.92 156.76 200 156.76 200C156.76 200 157.23 198.5 158.16 198.5C159.09 198.5 159.08 199.02 159.08 199.95C159.08 200.88 158.81 204.56 158.81 204.56C158.81 204.56 159.87 199.42 160.13 197.31C160.39 195.2 160.79 193.88 161.72 194.41C162.65 194.94 162.77 195.6 162.77 196.91C162.77 198.22 162.11 204.03 162.11 204.03C162.11 204.03 165.11 195.2 165.41 194.03C165.71 192.86 166.59 192.98 166.99 194.3C167.39 195.62 165.41 201.02 165.41 202.08C165.339 203.02 165.161 203.95 164.88 204.85C164.88 204.85 167.39 201.55 168.31 200.36C169.23 199.17 170.02 198.52 170.15 199.97C170.28 201.42 169.1 203.4 168.57 204.32C168.04 205.24 166.57 208.54 166.57 208.54L166.44 211.18L170.93 208.67C170.93 208.67 172.38 209.2 171.85 210.38C171.32 211.56 166.71 214.87 166.71 214.87C166.71 214.87 164.6 216.71 164.2 217.24C163.348 217.883 162.417 218.414 161.43 218.82L157.34 227.39L152.18 223.22Z" fill="white" stroke="#263238" stroke-linecap="round" stroke-linejoin="round"/>
<path d="M160.08 226C160.08 226 145.8 263.73 144.78 264.49C143.76 265.25 116.49 261.43 116.49 261.43L113.43 284.63L124.14 331.79C124.14 331.79 118.78 335.36 116.23 335.36H108.33C108.33 335.36 105.16 310.89 102.44 292.18C100.87 281.38 99.44 272.5 98.9 271.38C97.37 268.32 93.8 241.3 93.8 241.3L95.59 238.49L98.32 238.72L116.49 240.28L135.1 247.16L151.67 221.41L160.08 226Z" fill="#8B18FF" stroke="#263238" stroke-linecap="round" stroke-linejoin="round"/>
<path d="M102.44 292.2C100.87 281.4 99.44 272.52 98.9 271.4C97.37 268.34 93.8 241.32 93.8 241.32L95.59 238.51L98.32 238.74C99.56 243.03 103.43 256.81 104.22 265.74C105.05 275.21 102.94 289.1 102.44 292.2Z" fill="#8B18FF" stroke="#263238" stroke-linecap="round" stroke-linejoin="round"/>
<path d="M116.49 261.45L118.7 250.64L121.53 261.97L116.49 261.45Z" fill="#263238" stroke="#263238" stroke-linecap="round" stroke-linejoin="round"/>
<path d="M55.8199 250.75C55.8199 250.75 44.2599 285.75 42.7599 295.75C41.2599 305.75 51.0099 306 55.7599 304.25C60.5099 302.5 63.7599 276.75 63.7599 276.75L55.8199 250.75Z" fill="#8B18FF" stroke="#263238" stroke-linecap="round" stroke-linejoin="round"/>
<path d="M56.76 270.25L63.01 306.5L89.51 303.75L83.01 267.75L56.76 270.25Z" fill="#263238" stroke="#263238" stroke-linecap="round" stroke-linejoin="round"/>
<path d="M55.26 294L55.51 312C55.51 312 59.76 301.5 59.26 298.25C58.76 295 55.26 294 55.26 294Z" fill="#263238" stroke="#263238" stroke-linecap="round" stroke-linejoin="round"/>
<path d="M43.26 294.25C43.26 294.25 40.51 299.5 41.01 303.75C41.51 308 48.51 311.75 50.26 311.75C51.769 311.797 53.2744 311.924 54.77 312.13V294.13L49 293.25" fill="#8B18FF"/>
<path d="M43.26 294.25C43.26 294.25 40.51 299.5 41.01 303.75C41.51 308 48.51 311.75 50.26 311.75C51.769 311.797 53.2744 311.924 54.77 312.13V294.13L49 293.25" stroke="#263238" stroke-linecap="round" stroke-linejoin="round"/>
<path d="M56.26 293.5C56.26 293.5 56 284.25 56 283C56 281.75 62.25 277.75 63.75 276.75C65.25 275.75 66.25 275.75 65.75 277.5C65.25 279.25 60 282.5 60 282.5L59.75 284.25C59.75 284.25 64 280.5 66.51 280C69.02 279.5 69.51 278.75 69.51 280.25C69.51 281.75 65.76 283.5 64.76 284.25C63.76 285 60.26 288.25 60.26 288.25C60.26 288.25 64.76 285.5 67.76 285C70.76 284.5 71.51 284.5 71.51 285.5C71.51 286.5 70.51 287 69.01 287.75C67.51 288.5 63.26 290.25 63.26 290.25L61.76 292.25C61.76 292.25 69.01 290.75 69.76 290.25C70.51 289.75 71.76 290 70.26 291.5C68.76 293 62.76 295.25 62.76 295.25C62.4854 296.896 61.9804 298.495 61.26 300C60.26 301.75 57.51 302 57.51 302L55 301L55.25 294L56.26 293.5Z" fill="white" stroke="#263238" stroke-linecap="round" stroke-linejoin="round"/>
</svg>
