<svg width="590" height="437" viewBox="0 0 590 437" fill="none" xmlns="http://www.w3.org/2000/svg">
<path d="M544.664 265.888L534.343 266.133L529.104 266.229C527.35 266.273 525.588 266.229 523.834 266.282H523.487V265.888L523.44 256.082V255.645H523.834L534.249 255.697C537.726 255.697 541.195 255.794 544.664 255.837H544.885V256.082C544.885 257.743 544.822 259.394 544.782 261.029L544.664 265.888ZM544.664 265.888L544.554 260.95C544.515 259.325 544.468 257.716 544.452 256.108L544.664 256.353C541.195 256.397 537.726 256.493 534.249 256.493L523.834 256.545L524.227 256.108V265.888L523.873 265.504C525.588 265.504 527.303 265.504 529.026 265.547L534.147 265.696L544.664 265.888Z" fill="#EBEBEB"/>
<path d="M533.045 278.22L522.724 278.465L517.477 278.561C515.731 278.561 513.969 278.561 512.215 278.614H511.868V278.22V268.44V268.003H512.262L522.677 268.065C526.146 268.065 529.623 268.161 533.093 268.204H533.313V268.44C533.313 270.101 533.25 271.753 533.211 273.387L533.045 278.22ZM533.045 278.22L532.935 273.282C532.896 271.657 532.849 270.049 532.833 268.44L533.045 268.685C529.576 268.729 526.099 268.825 522.63 268.825L512.215 268.877L512.608 268.44V278.22L512.254 277.836C513.969 277.836 515.684 277.836 517.407 277.88L522.575 277.984L533.045 278.22Z" fill="#EBEBEB"/>
<path d="M556.284 278.22L545.963 278.465L540.723 278.561C538.969 278.561 537.207 278.561 535.453 278.614H535.107V278.22L535.059 268.44V268.003H535.453L545.868 268.065C549.345 268.065 552.814 268.161 556.284 268.204H556.504V268.44C556.504 270.101 556.433 271.753 556.402 273.387L556.284 278.22ZM556.284 278.22L556.173 273.282C556.173 271.657 556.087 270.049 556.071 268.44L556.284 268.685C552.814 268.729 549.345 268.825 545.868 268.825L535.453 268.877L535.846 268.44V278.22L535.492 277.836C537.215 277.836 538.922 277.836 540.645 277.88L545.821 277.984L556.284 278.22Z" fill="#EBEBEB"/>
<path d="M247.635 149.516L237.314 149.76L232.075 149.856C230.32 149.856 228.558 149.856 226.804 149.856H226.458V149.463L226.411 139.683V139.246H226.804L237.219 139.299C240.697 139.299 244.166 139.395 247.635 139.438H247.855V139.674C247.855 141.335 247.784 142.978 247.745 144.612L247.635 149.516ZM247.635 149.516L247.525 144.569C247.525 142.943 247.438 141.335 247.423 139.736L247.635 139.972C244.166 139.972 240.697 140.111 237.219 140.111L226.804 140.173L227.197 139.736L227.158 149.516L226.804 149.122C228.519 149.122 230.234 149.122 231.957 149.175L237.133 149.271L247.635 149.516Z" fill="#EBEBEB"/>
<path d="M236 161.847L225.679 162.092L220.432 162.188C218.685 162.188 216.923 162.188 215.169 162.232H214.823V161.839L214.76 152.076V151.639H215.153L225.569 151.692C229.038 151.692 232.515 151.788 235.984 151.831H236.205V152.076C236.205 153.737 236.142 155.38 236.102 157.014L236 161.847ZM236 161.847L235.89 156.901C235.851 155.275 235.803 153.667 235.788 152.067L236 152.303C232.531 152.347 229.054 152.443 225.585 152.443L215.169 152.504L215.562 152.067L215.547 161.847L215.193 161.454C216.908 161.454 218.623 161.454 220.345 161.507L225.514 161.603L236 161.847Z" fill="#EBEBEB"/>
<path d="M259.254 161.847L248.933 162.092L243.694 162.188C241.939 162.188 240.185 162.188 238.423 162.232H238.077V161.839L238.03 152.076V151.639H238.423L248.838 151.692C252.315 151.692 255.785 151.788 259.254 151.831H259.474V152.076C259.474 153.737 259.403 155.38 259.372 157.014L259.254 161.847ZM259.254 161.847L259.144 156.901C259.144 155.275 259.057 153.667 259.041 152.067L259.254 152.303C255.785 152.347 252.315 152.443 248.838 152.443L238.423 152.504L238.816 152.067L238.777 161.847L238.423 161.454C240.146 161.454 241.853 161.454 243.576 161.507L248.752 161.603L259.254 161.847Z" fill="#EBEBEB"/>
<path d="M77.7857 214.226L67.4647 214.471L62.2176 214.567C60.4712 214.567 58.7091 214.567 56.9548 214.611H56.6401V214.218V204.437V204H57.0335L67.4489 204.053C70.9181 204.053 74.3952 204.149 77.8644 204.193H78.0847V204.429C78.0847 206.089 78.0217 207.732 77.9824 209.367L77.7857 214.226ZM77.7857 214.226L77.6756 209.279C77.6756 207.654 77.5891 206.046 77.5733 204.446L77.7857 204.682C74.3165 204.726 70.8395 204.822 67.3703 204.822L56.9548 204.883L57.3481 204.446L57.3088 214.226L56.9548 213.833C58.6697 213.833 60.3847 213.833 62.1075 213.885L67.2759 213.982L77.7857 214.226Z" fill="#EBEBEB"/>
<path d="M423.117 149.507L412.796 149.751L407.556 149.847C405.802 149.891 404.04 149.847 402.286 149.891H401.94V149.498L401.892 139.718V139.281H402.286L412.701 139.333C416.178 139.333 419.647 139.438 423.117 139.482H423.337V139.718C423.337 141.378 423.274 143.03 423.235 144.656L423.117 149.507ZM423.117 149.507L423.006 144.568C422.967 142.934 422.92 141.326 422.904 139.726L423.117 139.962C419.647 140.006 416.178 140.102 412.701 140.111L402.286 140.163L402.679 139.726L402.64 149.507L402.286 149.113C404.001 149.113 405.716 149.113 407.438 149.166L412.615 149.262L423.117 149.507Z" fill="#EBEBEB"/>
<path d="M543.461 54.5203L533.14 54.765L527.893 54.8611C526.146 54.8611 524.384 54.8611 522.63 54.9136H522.284V54.5203V44.7402V44.3032H522.677L533.092 44.3557C536.562 44.3557 540.039 44.4605 543.508 44.5042H543.728V44.7402C543.728 46.4008 543.665 48.0527 543.626 49.6783L543.461 54.5203ZM543.461 54.5203L543.351 49.5822C543.311 47.9478 543.264 46.3396 543.248 44.7402L543.461 44.9762C539.992 44.9762 536.514 45.116 533.045 45.1248L522.63 45.1772L523.023 44.7402L522.984 54.5203L522.63 54.127C524.345 54.127 526.06 54.127 527.782 54.1794L532.951 54.2756L543.461 54.5203Z" fill="#EBEBEB"/>
<path d="M555.08 66.8523L544.759 67.097L539.52 67.1932C537.765 67.2369 536.003 67.1932 534.249 67.2456H533.903V66.8523L533.856 57.0723V56.6353H534.249L544.665 56.6877C548.142 56.6877 551.611 56.7926 555.08 56.8363H555.3V57.0723C555.3 58.7329 555.229 60.3847 555.19 62.0103L555.08 66.8523ZM555.08 66.8523L554.97 61.9142C554.97 60.2798 554.883 58.6717 554.868 57.0723L555.08 57.3082C551.611 57.3519 548.142 57.4481 544.665 57.4568L534.249 57.5093L534.642 57.0723V66.8523L534.288 66.459C536.003 66.459 537.718 66.459 539.441 66.5115L544.617 66.6076L555.08 66.8523Z" fill="#EBEBEB"/>
<path d="M54.5475 54.5291L44.2185 54.7738L38.9793 54.8699C37.2329 54.8699 35.4708 54.8699 33.7165 54.9224H33.3625V54.5291V44.749V44.312H33.7637L44.1792 44.3732C47.6484 44.3732 51.1176 44.4693 54.5947 44.513H54.8071V44.749C54.8071 46.4096 54.7363 48.0615 54.7048 49.6959L54.5475 54.5291ZM54.5475 54.5291L54.4295 49.591C54.4295 47.9653 54.3429 46.3484 54.3272 44.749L54.5475 44.985C51.0704 45.0374 47.6012 45.1248 44.132 45.1336L33.7165 45.186L34.1099 44.749L34.0627 54.5291L33.7165 54.1882C35.4315 54.1882 37.1386 54.1882 38.8614 54.1882L44.0376 54.2844L54.5475 54.5291Z" fill="#EBEBEB"/>
<path d="M544.075 157.163L548.708 148.869L546.419 147.296C546.091 147.066 545.828 146.741 545.657 146.355C545.486 145.969 545.415 145.539 545.451 145.111C545.475 144.624 545.475 144.137 545.451 143.651C545.44 143.222 545.536 142.797 545.729 142.426C545.922 142.054 546.205 141.749 546.545 141.545L548.905 140.129L544.751 131.529L542.391 132.936C542.05 133.139 541.664 133.231 541.277 133.204C540.891 133.176 540.519 133.029 540.204 132.778C539.85 132.507 539.473 132.245 539.087 132.009C538.747 131.807 538.464 131.504 538.269 131.134C538.075 130.763 537.977 130.34 537.986 129.912L538.072 126.923L529.293 126.617L529.214 129.615C529.198 130.044 529.075 130.46 528.858 130.817C528.641 131.173 528.34 131.456 527.987 131.633L527.413 131.957C527.216 132.07 527.027 132.193 526.847 132.315C526.519 132.54 526.142 132.66 525.757 132.66C525.372 132.66 524.995 132.54 524.667 132.315L522.363 130.733L517.729 139.028L520.026 140.601C520.352 140.831 520.615 141.157 520.786 141.543C520.956 141.928 521.028 142.358 520.994 142.786C520.954 143.271 520.939 143.758 520.947 144.245C520.958 144.672 520.863 145.095 520.671 145.465C520.479 145.835 520.199 146.139 519.861 146.343L517.501 147.759L521.655 156.368L524.015 154.952C524.356 154.753 524.74 154.662 525.124 154.69C525.509 154.717 525.879 154.863 526.194 155.109C526.551 155.384 526.921 155.638 527.303 155.869C527.646 156.07 527.932 156.374 528.126 156.746C528.321 157.119 528.418 157.545 528.404 157.976L528.325 160.965L537.105 161.271L537.191 158.273C537.207 157.845 537.329 157.431 537.544 157.076C537.759 156.721 538.059 156.439 538.411 156.263L538.993 155.939L539.559 155.581C539.888 155.356 540.266 155.237 540.653 155.237C541.039 155.237 541.417 155.356 541.746 155.581L544.075 157.163ZM536.641 151.045C535.386 151.792 533.96 152.109 532.543 151.956C531.126 151.803 529.782 151.187 528.681 150.185C527.579 149.183 526.77 147.841 526.355 146.328C525.939 144.815 525.938 143.2 526.349 141.686C526.76 140.172 527.567 138.827 528.666 137.822C529.765 136.817 531.107 136.197 532.524 136.039C533.94 135.882 535.367 136.195 536.623 136.938C537.88 137.682 538.91 138.822 539.583 140.216C540.475 142.081 540.666 144.262 540.115 146.283C539.564 148.304 538.315 150.001 536.641 151.001V151.045Z" fill="#EBEBEB"/>
<path d="M123.672 330.285L120.596 324.359L118.96 325.408C118.724 325.557 118.456 325.631 118.185 325.62C117.914 325.609 117.651 325.514 117.426 325.346C117.172 325.162 116.909 324.993 116.639 324.84C116.4 324.701 116.201 324.493 116.062 324.237C115.923 323.981 115.851 323.687 115.852 323.389V321.3H109.661V323.38C109.663 323.679 109.59 323.972 109.451 324.228C109.313 324.484 109.113 324.693 108.875 324.831C108.599 324.988 108.332 325.154 108.088 325.338C107.859 325.514 107.588 325.614 107.309 325.625C107.03 325.636 106.754 325.557 106.515 325.399L104.886 324.35L101.81 330.276L103.447 331.325C103.68 331.477 103.87 331.698 103.997 331.963C104.123 332.229 104.181 332.528 104.162 332.828C104.162 332.994 104.162 333.169 104.162 333.335C104.162 333.501 104.162 333.667 104.162 333.842C104.181 334.139 104.124 334.437 103.999 334.701C103.874 334.964 103.686 335.185 103.454 335.336L101.81 336.394L104.886 342.32L106.522 341.271C106.762 341.112 107.038 341.034 107.317 341.045C107.596 341.055 107.866 341.155 108.096 341.332C108.35 341.516 108.612 341.685 108.882 341.839C109.12 341.976 109.319 342.183 109.457 342.438C109.596 342.692 109.669 342.984 109.669 343.281V345.379H115.829V343.281C115.828 342.983 115.901 342.691 116.039 342.437C116.178 342.182 116.378 341.976 116.615 341.839C116.883 341.681 117.15 341.515 117.402 341.332C117.627 341.164 117.89 341.069 118.161 341.058C118.432 341.048 118.701 341.121 118.936 341.271L120.572 342.32L123.648 336.394L122.012 335.345C121.779 335.193 121.588 334.972 121.462 334.706C121.335 334.441 121.278 334.141 121.296 333.842C121.296 333.676 121.296 333.501 121.296 333.335C121.296 333.169 121.296 332.994 121.296 332.828C121.278 332.528 121.335 332.229 121.462 331.963C121.588 331.698 121.779 331.477 122.012 331.325L123.672 330.285ZM117.787 333.344C117.787 334.452 117.492 335.535 116.938 336.456C116.384 337.377 115.596 338.095 114.675 338.519C113.753 338.943 112.739 339.054 111.761 338.838C110.783 338.622 109.885 338.088 109.179 337.305C108.474 336.521 107.994 335.523 107.799 334.437C107.605 333.35 107.705 332.223 108.086 331.2C108.468 330.176 109.114 329.301 109.943 328.685C110.773 328.07 111.748 327.741 112.745 327.741C114.082 327.741 115.365 328.331 116.311 329.382C117.256 330.433 117.787 331.858 117.787 333.344Z" fill="#EBEBEB"/>
<path d="M70.7213 263.275C65.9787 263.274 61.3421 264.835 57.3979 267.761C53.4538 270.687 50.3793 274.847 48.5633 279.714C46.7473 284.582 46.2713 289.939 47.1956 295.107C48.1199 300.275 50.4029 305.022 53.7559 308.749C57.109 312.475 61.3813 315.013 66.0328 316.042C70.6842 317.071 75.5057 316.543 79.8875 314.527C84.2693 312.511 88.0145 309.097 90.6495 304.716C93.2846 300.335 94.691 295.184 94.691 289.915C94.6921 286.417 94.0728 282.953 92.8687 279.721C91.6646 276.489 89.8992 273.552 87.6733 271.078C85.4474 268.605 82.8046 266.642 79.896 265.303C76.9873 263.965 73.8697 263.275 70.7213 263.275ZM70.7213 302.343C68.507 302.343 66.3424 301.614 64.5013 300.247C62.6602 298.88 61.2255 296.937 60.3784 294.664C59.5314 292.391 59.3102 289.889 59.7427 287.477C60.1753 285.064 61.2422 282.848 62.8086 281.109C64.3749 279.37 66.3703 278.186 68.5422 277.707C70.7142 277.228 72.9653 277.476 75.0106 278.418C77.056 279.361 78.8037 280.956 80.0328 283.003C81.2619 285.049 81.9171 287.455 81.9156 289.915C81.9135 293.212 80.7332 296.373 78.6341 298.704C76.535 301.034 73.6889 302.343 70.7213 302.343Z" fill="#EBEBEB"/>
<path d="M75.3313 264.385H66.1116L66.6229 257.131H74.82L75.3313 264.385Z" fill="#EBEBEB"/>
<path d="M57.7807 267.828L51.2671 275.074L47.0112 269.55L52.809 263.109L57.7807 267.828Z" fill="#EBEBEB"/>
<path d="M47.5698 284.059V294.302L41.0483 293.734V284.627L47.5698 284.059Z" fill="#EBEBEB"/>
<path d="M50.6772 303.549L57.1987 310.795L52.2269 315.514L46.4292 309.073L50.6772 303.549Z" fill="#EBEBEB"/>
<path d="M65.2776 314.894H74.4973L73.9939 322.148H65.7889L65.2776 314.894Z" fill="#EBEBEB"/>
<path d="M82.8281 311.441L89.3496 304.205L93.5976 309.728L87.7999 316.17L82.8281 311.441Z" fill="#EBEBEB"/>
<path d="M93.0391 295.22V284.977L99.5605 285.545V294.652L93.0391 295.22Z" fill="#EBEBEB"/>
<path d="M89.9319 275.73L83.4104 268.484L88.39 263.756L94.1877 270.197L89.9319 275.73Z" fill="#EBEBEB"/>
<path d="M73.8443 103.132C73.8443 102.04 73.978 99.1292 73.978 97.8881C73.978 92.5742 72.271 90.1707 67.8184 90.0221C65.718 89.8822 64.4751 88.5013 64.4751 86.5261C64.4751 84.5508 65.718 83.1787 67.8184 83.0301C72.271 82.8378 73.9466 80.513 73.9466 75.1641C73.9466 73.9317 73.8128 71.0213 73.8128 69.9201C73.8128 62.8582 76.4954 58.3483 86.6512 55.8749C88.6808 55.3592 90.2542 56.7489 90.2542 58.8552C90.2739 59.5041 90.1067 60.143 89.7771 60.679C89.4474 61.215 88.9725 61.6202 88.4212 61.8356C82.065 64.0206 81.1446 66.2755 81.1446 71.2311C81.1446 72.6819 81.2783 75.0854 81.2783 76.6149C81.2783 82.2872 78.7924 85.0578 74.4658 86.5873C78.8554 88.1867 81.2783 90.8786 81.2783 96.5596C81.2783 98.0804 81.1446 100.484 81.1446 101.943C81.1446 106.89 82.065 109.145 88.4212 111.33C88.9725 111.546 89.4474 111.951 89.7771 112.487C90.1067 113.023 90.2739 113.662 90.2542 114.311C90.2542 116.426 88.6808 117.807 86.6512 117.3C76.5268 114.791 73.8443 110.273 73.8443 103.132Z" fill="#EBEBEB"/>
<path d="M112.234 69.9202C112.234 71.0127 112.1 73.9232 112.1 75.1642C112.1 80.5568 113.87 82.8817 118.323 83.1002C120.352 83.2487 121.595 84.6297 121.595 86.5962C121.595 88.5627 120.352 89.9436 118.323 90.0922C113.87 90.2407 112.1 92.6442 112.1 97.9582C112.1 99.1905 112.234 102.101 112.234 103.202C112.234 110.334 109.543 114.853 99.3875 117.326C97.3579 117.833 95.7924 116.452 95.7924 114.337C95.7718 113.678 95.946 113.03 96.2884 112.492C96.6308 111.954 97.1225 111.555 97.6883 111.357C103.982 109.172 104.894 106.917 104.894 101.97C104.894 100.51 104.76 98.1067 104.76 96.586C104.76 90.905 107.254 88.1431 111.573 86.6136C107.183 85.0142 104.76 82.3136 104.76 76.6413C104.76 75.1118 104.894 72.7083 104.894 71.2575C104.894 66.3019 103.974 64.047 97.6883 61.862C97.1225 61.6637 96.6308 61.2649 96.2884 60.7266C95.946 60.1884 95.7718 59.5403 95.7924 58.8816C95.7924 56.7753 97.3657 55.3856 99.3875 55.9013C109.543 58.3135 112.234 62.8234 112.234 69.9202Z" fill="#EBEBEB"/>
<path d="M39.8997 390.896L103.675 390.687L167.45 390.608L295 390.459L422.55 390.608L486.325 390.687L550.1 390.896L486.325 391.115L422.55 391.194L295 391.333L167.45 391.185L103.675 391.115L39.8997 390.896Z" fill="#263238"/>
<path d="M511.247 373.399H78.7532V390.896H511.247V373.399Z" fill="#C7C7C7"/>
<path d="M466.556 118.401H123.444V373.399H466.556V118.401Z" fill="#DBDBDB"/>
<path d="M464.07 121.512H125.938V370.288H464.07V121.512Z" fill="#263238"/>
<path d="M449.092 137.498H140.908V354.293H449.092V137.498Z" fill="#455A64"/>
<path d="M206.988 145.844H140.908V354.302H206.988V145.844Z" fill="#37474F"/>
<path d="M147.98 145.844H140.908V354.302H147.98V145.844Z" fill="#455A64"/>
<path d="M206.995 217.137H147.98V220.239H206.995V217.137Z" fill="#8B18FF"/>
<path d="M177.503 156.193H154.556V157.583H177.503V156.193Z" fill="white"/>
<path d="M151.622 156.446H153.101L152.362 157.32L151.622 156.446Z" fill="white"/>
<path d="M159.442 161.34H156.397V162.73H159.442V161.34Z" fill="white"/>
<path d="M154.556 162.853V161.209L155.343 162.031L154.556 162.853Z" fill="white"/>
<path d="M159.442 166.488H156.397V167.878H159.442V166.488Z" fill="white"/>
<path d="M154.21 166.742H155.689L154.95 167.616L154.21 166.742Z" fill="white"/>
<path d="M159.442 171.636H156.397V173.026H159.442V171.636Z" fill="white"/>
<path d="M154.21 171.89H155.689L154.95 172.772L154.21 171.89Z" fill="white"/>
<path d="M161.29 176.784H158.246V178.174H161.29V176.784Z" fill="white"/>
<path d="M156.397 178.296V176.653L157.192 177.474L156.397 178.296Z" fill="white"/>
<path d="M163.139 181.941H160.094V183.331H163.139V181.941Z" fill="white"/>
<path d="M158.246 183.453V181.81L159.04 182.631L158.246 183.453Z" fill="white"/>
<path d="M163.139 233.419H160.094V234.809H163.139V233.419Z" fill="white"/>
<path d="M158.246 234.931V233.288L159.04 234.11L158.246 234.931Z" fill="white"/>
<path d="M164.988 187.08H161.943V188.469H164.988V187.08Z" fill="white"/>
<path d="M160.094 188.592V186.949L160.889 187.77L160.094 188.592Z" fill="white"/>
<path d="M164.988 228.271H161.943V229.661H164.988V228.271Z" fill="white"/>
<path d="M160.094 229.783V228.14L160.889 228.962L160.094 229.783Z" fill="white"/>
<path d="M166.836 192.228H163.792V193.617H166.836V192.228Z" fill="white"/>
<path d="M161.943 193.74V192.097L162.738 192.918L161.943 193.74Z" fill="white"/>
<path d="M166.836 223.115H163.792V224.504H166.836V223.115Z" fill="white"/>
<path d="M161.943 224.636V222.993L162.738 223.814L161.943 224.636Z" fill="white"/>
<path d="M168.685 197.384H165.641V198.774H168.685V197.384Z" fill="white"/>
<path d="M163.792 198.896V197.253L164.586 198.074L163.792 198.896Z" fill="white"/>
<path d="M169.031 202.523H165.987V203.913H169.031V202.523Z" fill="white"/>
<path d="M163.792 202.777H165.271L164.531 203.66L163.792 202.777Z" fill="white"/>
<path d="M169.031 207.671H165.987V209.061H169.031V207.671Z" fill="white"/>
<path d="M163.792 207.925H165.271L164.531 208.808L163.792 207.925Z" fill="white"/>
<path d="M169.031 212.819H165.987V214.209H169.031V212.819Z" fill="white"/>
<path d="M163.792 213.073H165.271L164.531 213.956L163.792 213.073Z" fill="white"/>
<path d="M169.031 217.967H165.987V219.356H169.031V217.967Z" fill="white"/>
<path d="M163.792 218.22H165.271L164.531 219.103L163.792 218.22Z" fill="white"/>
<path d="M159.442 238.567H156.397V239.957H159.442V238.567Z" fill="white"/>
<path d="M154.556 240.079V238.436L155.343 239.258L154.556 240.079Z" fill="white"/>
<path d="M159.442 243.715H156.397V245.105H159.442V243.715Z" fill="white"/>
<path d="M154.21 243.968H155.689L154.95 244.851L154.21 243.968Z" fill="white"/>
<path d="M159.442 248.863H156.397V250.252H159.442V248.863Z" fill="white"/>
<path d="M154.21 249.116H155.689L154.95 249.999L154.21 249.116Z" fill="white"/>
<path d="M161.29 254.011H158.246V255.4H161.29V254.011Z" fill="white"/>
<path d="M156.397 255.531V253.888L157.192 254.71L156.397 255.531Z" fill="white"/>
<path d="M163.139 259.167H160.094V260.557H163.139V259.167Z" fill="white"/>
<path d="M158.246 260.679V259.036L159.04 259.858L158.246 260.679Z" fill="white"/>
<path d="M163.139 264.315H160.094V265.705H163.139V264.315Z" fill="white"/>
<path d="M158.246 265.836V264.193L159.04 265.014L158.246 265.836Z" fill="white"/>
<path d="M163.485 269.463H160.441V270.853H163.485V269.463Z" fill="white"/>
<path d="M158.246 269.716H159.725L158.985 270.599L158.246 269.716Z" fill="white"/>
<path d="M163.485 274.611H160.441V276H163.485V274.611Z" fill="white"/>
<path d="M158.246 274.864H159.725L158.985 275.747L158.246 274.864Z" fill="white"/>
<path d="M163.485 279.759H160.441V281.148H163.485V279.759Z" fill="white"/>
<path d="M158.246 280.012H159.725L158.985 280.895L158.246 280.012Z" fill="white"/>
<path d="M163.485 284.907H160.441V286.296H163.485V284.907Z" fill="white"/>
<path d="M158.246 285.16H159.725L158.985 286.043L158.246 285.16Z" fill="white"/>
<path d="M449.092 137.498H140.908V145.836H449.092V137.498Z" fill="#8B18FF"/>
<path d="M147.98 141.676C147.98 141.989 147.896 142.294 147.74 142.555C147.583 142.815 147.361 143.017 147.101 143.137C146.841 143.257 146.554 143.288 146.278 143.227C146.002 143.166 145.748 143.016 145.549 142.794C145.35 142.573 145.214 142.291 145.159 141.984C145.105 141.677 145.133 141.359 145.24 141.07C145.348 140.781 145.531 140.534 145.765 140.36C145.999 140.187 146.274 140.094 146.556 140.094C146.934 140.094 147.296 140.26 147.563 140.557C147.83 140.854 147.98 141.256 147.98 141.676Z" fill="#C7C7C7"/>
<path d="M153.778 141.676C153.778 141.989 153.694 142.294 153.538 142.555C153.381 142.815 153.159 143.017 152.899 143.137C152.639 143.257 152.352 143.288 152.076 143.227C151.8 143.166 151.546 143.016 151.347 142.794C151.148 142.573 151.012 142.291 150.957 141.984C150.902 141.677 150.931 141.359 151.038 141.07C151.146 140.781 151.329 140.534 151.563 140.36C151.797 140.187 152.072 140.094 152.354 140.094C152.731 140.094 153.094 140.26 153.361 140.557C153.628 140.854 153.778 141.256 153.778 141.676Z" fill="white"/>
<path d="M159.583 141.676C159.583 141.989 159.5 142.294 159.343 142.555C159.187 142.815 158.964 143.017 158.704 143.137C158.444 143.257 158.158 143.288 157.881 143.227C157.605 143.166 157.352 143.016 157.152 142.794C156.953 142.573 156.818 142.291 156.763 141.984C156.708 141.677 156.736 141.359 156.844 141.07C156.952 140.781 157.134 140.534 157.368 140.36C157.602 140.187 157.878 140.094 158.159 140.094C158.537 140.094 158.899 140.26 159.166 140.557C159.433 140.854 159.583 141.256 159.583 141.676Z" fill="#455A64"/>
<path d="M228.078 182.911H222.517V184.423H228.078V182.911Z" fill="#EBEBEB"/>
<path d="M357.878 182.911H234.631V184.423H357.878V182.911Z" fill="#EBEBEB"/>
<path d="M371.857 182.911H361.3V184.423H371.857V182.911Z" fill="#8B18FF"/>
<path d="M413.842 218.728H378.198V220.24H413.842V218.728Z" fill="#EBEBEB"/>
<path d="M426.483 182.911H374.154V184.423H426.483V182.911Z" fill="#A6A6A6"/>
<path d="M228.078 190.069H222.517V191.581H228.078V190.069Z" fill="#EBEBEB"/>
<path d="M281.91 190.069H240.051V191.581H281.91V190.069Z" fill="#A6A6A6"/>
<path d="M375.696 218.728H359.861V220.24H375.696V218.728Z" fill="#A6A6A6"/>
<path d="M274.609 211.561H234.631V213.073H274.609V211.561Z" fill="#A6A6A6"/>
<path d="M268.096 197.236H240.051V198.748H268.096V197.236Z" fill="#8B18FF"/>
<path d="M421.496 204.394H368.365V205.906H421.496V204.394Z" fill="#A6A6A6"/>
<path d="M357.886 239.555H304.755V241.067H357.886V239.555Z" fill="#A6A6A6"/>
<path d="M375.468 197.236H271.211V198.748H375.468V197.236Z" fill="#A6A6A6"/>
<path d="M356.234 218.728H234.631V220.24H356.234V218.728Z" fill="#8B18FF"/>
<path d="M370.685 190.069H284.537V191.581H370.685V190.069Z" fill="#EBEBEB"/>
<path d="M397.959 197.236H379.928V198.748H397.959V197.236Z" fill="#EBEBEB"/>
<path d="M228.078 197.236H222.517V198.748H228.078V197.236Z" fill="#EBEBEB"/>
<path d="M228.078 204.394H222.517V205.906H228.078V204.394Z" fill="#A6A6A6"/>
<path d="M267.49 204.394H234.631V205.906H267.49V204.394Z" fill="#EBEBEB"/>
<path d="M272.91 225.885H240.051V227.397H272.91V225.885Z" fill="#EBEBEB"/>
<path d="M406.675 233.052H360.797V234.564H406.675V233.052Z" fill="#8B18FF"/>
<path d="M357.925 233.052H269.771V234.564H357.925V233.052Z" fill="#EBEBEB"/>
<path d="M264.753 233.052H240.051V234.564H264.753V233.052Z" fill="#A6A6A6"/>
<path d="M371.857 211.561H276.875V213.073H371.857V211.561Z" fill="#EBEBEB"/>
<path d="M430.826 211.561H374.154V213.073H430.826V211.561Z" fill="#8B18FF"/>
<path d="M365.776 204.394H270.833V205.906H365.776V204.394Z" fill="#8B18FF"/>
<path d="M228.078 211.561H222.517V213.073H228.078V211.561Z" fill="#EBEBEB"/>
<path d="M228.078 218.728H222.517V220.24H228.078V218.728Z" fill="#EBEBEB"/>
<path d="M228.078 225.885H222.517V227.397H228.078V225.885Z" fill="#A6A6A6"/>
<path d="M228.078 233.052H222.517V234.564H228.078V233.052Z" fill="#EBEBEB"/>
<path d="M228.078 239.555H222.517V241.067H228.078V239.555Z" fill="#EBEBEB"/>
<path d="M299.822 239.555H234.631V241.067H299.822V239.555Z" fill="#EBEBEB"/>
<path d="M228.078 246.722H222.517V248.234H228.078V246.722Z" fill="#EBEBEB"/>
<path d="M281.91 246.722H240.051V248.234H281.91V246.722Z" fill="#A6A6A6"/>
<path d="M274.609 268.205H234.631V269.717H274.609V268.205Z" fill="#A6A6A6"/>
<path d="M268.096 253.879H240.051V255.391H268.096V253.879Z" fill="#8B18FF"/>
<path d="M332.327 282.538H304.283V284.05H332.327V282.538Z" fill="#8B18FF"/>
<path d="M268.096 296.863H240.051V298.375H268.096V296.863Z" fill="#8B18FF"/>
<path d="M375.468 253.879H271.211V255.391H375.468V253.879Z" fill="#A6A6A6"/>
<path d="M356.234 275.371H234.631V276.883H356.234V275.371Z" fill="#8B18FF"/>
<path d="M370.685 246.722H284.537V248.234H370.685V246.722Z" fill="#EBEBEB"/>
<path d="M388.92 261.046H370.921V262.558H388.92V261.046Z" fill="#EBEBEB"/>
<path d="M228.078 253.879H222.517V255.391H228.078V253.879Z" fill="#EBEBEB"/>
<path d="M228.078 261.046H222.517V262.558H228.078V261.046Z" fill="#A6A6A6"/>
<path d="M267.49 261.046H234.631V262.558H267.49V261.046Z" fill="#EBEBEB"/>
<path d="M371.857 268.205H276.875V269.717H371.857V268.205Z" fill="#EBEBEB"/>
<path d="M365.776 261.046H270.833V262.558H365.776V261.046Z" fill="#8B18FF"/>
<path d="M228.078 268.205H222.517V269.717H228.078V268.205Z" fill="#EBEBEB"/>
<path d="M228.078 282.538H222.517V284.05H228.078V282.538Z" fill="#EBEBEB"/>
<path d="M299.822 282.538H234.631V284.05H299.822V282.538Z" fill="#EBEBEB"/>
<path d="M228.078 289.696H222.517V291.208H228.078V289.696Z" fill="#EBEBEB"/>
<path d="M281.91 289.696H240.051V291.208H281.91V289.696Z" fill="#A6A6A6"/>
<path d="M274.609 311.188H234.631V312.7H274.609V311.188Z" fill="#A6A6A6"/>
<path d="M375.468 296.863H271.211V298.375H375.468V296.863Z" fill="#A6A6A6"/>
<path d="M388.92 304.021H370.921V305.533H388.92V304.021Z" fill="#EBEBEB"/>
<path d="M228.078 296.863H222.517V298.375H228.078V296.863Z" fill="#EBEBEB"/>
<path d="M228.078 304.021H222.517V305.533H228.078V304.021Z" fill="#A6A6A6"/>
<path d="M267.49 304.021H234.631V305.533H267.49V304.021Z" fill="#EBEBEB"/>
<path d="M371.857 311.188H276.875V312.7H371.857V311.188Z" fill="#EBEBEB"/>
<path d="M365.776 304.021H270.833V305.533H365.776V304.021Z" fill="#8B18FF"/>
<path d="M228.078 311.188H222.517V312.7H228.078V311.188Z" fill="#EBEBEB"/>
<path d="M225.946 169.067C225.993 169.116 226.03 169.175 226.055 169.24C226.08 169.305 226.093 169.376 226.093 169.447C226.093 169.518 226.08 169.588 226.055 169.654C226.03 169.719 225.993 169.778 225.946 169.827C225.903 169.876 225.852 169.916 225.795 169.943C225.739 169.97 225.678 169.984 225.616 169.984C225.484 169.985 225.357 169.929 225.262 169.827L223.114 167.415C223.114 167.415 223.114 167.415 223.114 167.362C223.111 167.339 223.111 167.316 223.114 167.292C223.114 167.292 223.114 167.249 223.114 167.24C223.114 167.231 223.114 167.24 223.114 167.196V167.135C223.114 167.135 223.114 167.135 223.114 167.083C223.114 167.03 223.114 167.083 223.114 167.039V166.934C223.114 166.934 223.114 166.89 223.114 166.864C223.126 166.837 223.139 166.811 223.154 166.785C223.154 166.785 223.154 166.785 223.193 166.733L225.341 164.312C225.433 164.214 225.555 164.16 225.683 164.16C225.81 164.16 225.933 164.214 226.025 164.312C226.071 164.361 226.108 164.42 226.134 164.485C226.159 164.551 226.172 164.621 226.172 164.692C226.172 164.763 226.159 164.834 226.134 164.899C226.108 164.964 226.071 165.023 226.025 165.072L224.216 167.1L225.946 169.067Z" fill="#8B18FF"/>
<path d="M227.89 169.338L229.762 164.399C229.783 164.342 229.815 164.29 229.855 164.246C229.894 164.202 229.942 164.167 229.994 164.143C230.045 164.12 230.101 164.108 230.157 164.108C230.213 164.109 230.269 164.122 230.32 164.146C230.37 164.17 230.415 164.204 230.453 164.248C230.491 164.291 230.52 164.342 230.54 164.398C230.56 164.454 230.569 164.514 230.568 164.574C230.567 164.635 230.555 164.694 230.533 164.749L228.66 169.705C228.628 169.788 228.574 169.859 228.506 169.909C228.437 169.959 228.357 169.985 228.275 169.984C228.223 169.997 228.17 169.997 228.118 169.984C228.062 169.962 228.011 169.926 227.969 169.881C227.927 169.835 227.894 169.779 227.872 169.718C227.851 169.657 227.841 169.591 227.844 169.526C227.847 169.46 227.863 169.396 227.89 169.338Z" fill="#8B18FF"/>
<path d="M234.222 167.345C234.222 167.345 234.222 167.389 234.175 167.406L232.027 169.818C231.982 169.869 231.928 169.908 231.868 169.935C231.809 169.962 231.745 169.976 231.681 169.976C231.587 169.973 231.495 169.94 231.417 169.88C231.339 169.82 231.279 169.737 231.243 169.639C231.207 169.542 231.197 169.435 231.215 169.332C231.233 169.229 231.277 169.134 231.343 169.058L233.152 167.03L231.343 165.003C231.297 164.954 231.26 164.895 231.234 164.829C231.209 164.764 231.196 164.693 231.196 164.622C231.196 164.551 231.209 164.481 231.234 164.415C231.26 164.35 231.297 164.291 231.343 164.242C231.435 164.144 231.558 164.09 231.685 164.09C231.813 164.09 231.935 164.144 232.027 164.242L234.175 166.663C234.175 166.663 234.175 166.663 234.222 166.716C234.269 166.768 234.222 166.716 234.222 166.716C234.237 166.741 234.25 166.767 234.261 166.794C234.259 166.82 234.259 166.847 234.261 166.873V166.925C234.261 166.925 234.261 166.925 234.261 166.969V167.083C234.26 167.109 234.26 167.135 234.261 167.161L234.222 167.345Z" fill="#8B18FF"/>
<path d="M133.143 184.161H93.0312V125.952H123.271L133.143 136.921V184.161Z" fill="#8B18FF"/>
<path opacity="0.6" d="M133.143 184.161H93.0312V125.952H123.271L133.143 136.921V184.161Z" fill="white"/>
<path d="M133.143 136.921H123.271V125.952L133.143 136.921Z" fill="#8B18FF"/>
<path d="M102.306 146.465C102.308 147.122 102.484 147.764 102.814 148.309C103.144 148.854 103.612 149.278 104.159 149.528C104.705 149.778 105.307 149.842 105.886 149.712C106.466 149.582 106.998 149.264 107.415 148.799C107.832 148.333 108.115 147.74 108.229 147.096C108.343 146.451 108.282 145.784 108.054 145.177C107.826 144.571 107.442 144.054 106.95 143.69C106.457 143.327 105.879 143.134 105.287 143.135C104.895 143.135 104.506 143.222 104.143 143.389C103.78 143.557 103.451 143.802 103.174 144.112C102.897 144.421 102.677 144.788 102.528 145.192C102.379 145.596 102.304 146.029 102.306 146.465Z" fill="#8B18FF"/>
<path d="M106.916 161.227H127.204L117.064 147.47L106.916 161.227Z" fill="#8B18FF"/>
<path d="M98.9626 161.227H115.711L107.341 152.269L98.9626 161.227Z" fill="#8B18FF"/>
<path opacity="0.1" d="M98.9626 161.227H115.711L107.341 152.269L98.9626 161.227Z" fill="black"/>
<path d="M127.196 139.211H98.9626V161.227H127.196V139.211Z" stroke="#8B18FF" stroke-width="2" stroke-miterlimit="10"/>
<path d="M112.1 163.604H83.2844V176.854H112.1V163.604Z" fill="#455A64"/>
<path d="M91.7489 167.214V173.638H90.6318V170.893H88.0043V173.638H86.8794V167.214H88.0043V169.836H90.6318V167.214H91.7489Z" fill="white"/>
<path d="M97.2714 168.306H95.4227V173.638H94.3135V168.306H92.4648V167.214H97.2714V168.306Z" fill="white"/>
<path d="M102.707 173.638V169.381L101.213 172.554H100.607L99.12 169.381V173.638H98.0029V167.214H99.2065L100.914 170.867L102.644 167.214H103.84V173.638H102.707Z" fill="white"/>
<path d="M105.036 173.638V167.214H106.2V172.545H109.15V173.638H105.036Z" fill="white"/>
<path d="M133.143 254.867H92.9839V196.598H123.263L133.143 207.575V254.867Z" fill="#8B18FF"/>
<path opacity="0.6" d="M133.143 254.867H92.9839V196.598H123.263L133.143 207.575V254.867Z" fill="white"/>
<path d="M133.143 207.575H123.263V196.598L133.143 207.575Z" fill="#8B18FF"/>
<path d="M102.267 217.128C102.268 217.787 102.445 218.43 102.776 218.977C103.107 219.523 103.576 219.949 104.124 220.199C104.672 220.45 105.275 220.514 105.856 220.384C106.437 220.254 106.971 219.935 107.389 219.468C107.807 219.001 108.091 218.407 108.205 217.761C108.319 217.114 108.258 216.445 108.03 215.837C107.802 215.229 107.416 214.71 106.922 214.346C106.429 213.981 105.849 213.788 105.256 213.79C104.462 213.794 103.701 214.148 103.141 214.774C102.581 215.399 102.267 216.246 102.267 217.128Z" fill="#8B18FF"/>
<path d="M106.892 231.908H127.196L117.04 218.133L106.892 231.908Z" fill="#8B18FF"/>
<path d="M98.9312 231.907H115.695L107.309 222.94L98.9312 231.907Z" fill="#8B18FF"/>
<path opacity="0.1" d="M98.9312 231.907H115.695L107.309 222.94L98.9312 231.907Z" fill="black"/>
<path d="M127.196 209.874H98.9312V231.908H127.196V209.874Z" stroke="#8B18FF" stroke-width="2" stroke-miterlimit="10"/>
<path d="M112.077 234.285H83.2373V247.543H112.077V234.285Z" fill="#455A64"/>
<path d="M90.0496 241.067C90.0504 240.67 90.1143 240.277 90.2384 239.905C90.364 239.525 90.5536 239.175 90.797 238.873C91.0512 238.568 91.3556 238.318 91.6938 238.139C92.0715 237.949 92.4825 237.853 92.8974 237.86C93.3829 237.845 93.8624 237.981 94.2819 238.253C94.6515 238.492 94.9518 238.844 95.1472 239.267L94.2819 239.931C94.1594 239.608 93.9397 239.342 93.6604 239.179C93.537 239.104 93.4046 239.048 93.2671 239.013C93.1348 238.986 93.0005 238.971 92.8659 238.97C92.6096 238.963 92.3558 239.026 92.1264 239.153C91.926 239.28 91.7497 239.449 91.6072 239.651C91.4641 239.857 91.3573 240.092 91.2926 240.342C91.146 240.856 91.146 241.409 91.2926 241.924C91.3695 242.175 91.4868 242.409 91.6387 242.614C91.7883 242.814 91.973 242.977 92.1815 243.095C92.3922 243.219 92.6275 243.282 92.8659 243.278C93.0036 243.278 93.1408 243.26 93.275 243.226C93.4157 243.19 93.5509 243.131 93.6762 243.051C93.8105 242.975 93.9306 242.871 94.0302 242.745C94.143 242.616 94.2337 242.465 94.2976 242.299L95.218 242.885C95.125 243.126 94.9885 243.343 94.8168 243.523C94.6481 243.712 94.4544 243.871 94.2426 243.995C94.0222 244.12 93.79 244.216 93.5503 244.283C93.3164 244.349 93.0758 244.382 92.8344 244.38C92.4417 244.384 92.0535 244.285 91.7016 244.091C91.3684 243.904 91.0695 243.649 90.8206 243.34C90.5706 243.026 90.3734 242.665 90.2384 242.273C90.1064 241.888 90.0423 241.479 90.0496 241.067Z" fill="white"/>
<path d="M99.4346 239.581C99.3724 239.515 99.3038 239.456 99.23 239.406C98.9702 239.234 98.6893 239.105 98.3962 239.022C98.2268 238.972 98.0521 238.949 97.877 238.952C97.6348 238.934 97.3934 238.998 97.1847 239.135C97.1102 239.199 97.0506 239.281 97.0109 239.375C96.9712 239.47 96.9525 239.573 96.9566 239.677C96.9537 239.793 96.984 239.906 97.0431 240.001C97.1125 240.097 97.198 240.177 97.2949 240.237C97.426 240.309 97.563 240.367 97.7039 240.411C97.8691 240.473 98.0658 240.525 98.2782 240.586C98.4906 240.647 98.821 240.761 99.0649 240.857C99.2787 240.942 99.4781 241.066 99.6549 241.224C99.8117 241.363 99.9381 241.539 100.025 241.74C100.119 241.976 100.164 242.233 100.158 242.492C100.163 242.795 100.101 243.095 99.9774 243.366C99.8631 243.601 99.7016 243.805 99.5054 243.96C99.2972 244.116 99.0653 244.228 98.821 244.292C98.5624 244.354 98.2988 244.386 98.0343 244.388C97.5974 244.388 97.1629 244.317 96.7442 244.178C96.3362 244.042 95.951 243.832 95.6035 243.558L96.0991 242.483C96.1837 242.56 96.2731 242.63 96.3666 242.693C96.6887 242.907 97.0353 243.071 97.3971 243.182C97.6106 243.242 97.83 243.271 98.05 243.269C98.6715 243.269 98.9783 243.051 98.9783 242.605C98.9833 242.479 98.947 242.355 98.8761 242.256C98.7921 242.147 98.6872 242.06 98.5693 242.002C98.4176 241.92 98.2596 241.852 98.0972 241.801L97.4758 241.6C97.2314 241.53 96.9921 241.439 96.7599 241.329C96.5733 241.241 96.4007 241.12 96.2486 240.971C96.1158 240.841 96.0109 240.68 95.9418 240.499C95.8722 240.295 95.8375 240.079 95.8395 239.861C95.8335 239.559 95.89 239.26 96.0047 238.987C96.1109 238.741 96.2639 238.523 96.4531 238.349C96.6559 238.176 96.8851 238.046 97.1297 237.964C97.3848 237.879 97.6498 237.834 97.9163 237.833C98.3002 237.829 98.6814 237.903 99.0413 238.052C99.3478 238.198 99.6382 238.382 99.9066 238.602L99.4346 239.581Z" fill="white"/>
<path d="M104.438 239.581C104.371 239.517 104.3 239.459 104.225 239.407C103.968 239.23 103.686 239.1 103.392 239.022C103.225 238.972 103.053 238.949 102.88 238.952C102.638 238.931 102.396 238.996 102.188 239.136C102.112 239.198 102.052 239.28 102.012 239.374C101.972 239.469 101.954 239.573 101.96 239.677C101.955 239.792 101.982 239.905 102.038 240.001C102.108 240.097 102.193 240.177 102.29 240.237C102.421 240.309 102.558 240.368 102.699 240.412C102.864 240.473 103.061 240.525 103.274 240.586C103.486 240.648 103.816 240.761 104.06 240.857C104.275 240.94 104.475 241.064 104.65 241.224C104.807 241.363 104.933 241.539 105.02 241.74C105.114 241.977 105.16 242.233 105.154 242.492C105.159 242.795 105.097 243.095 104.973 243.366C104.864 243.606 104.702 243.811 104.501 243.96C104.293 244.116 104.061 244.228 103.816 244.292C103.558 244.354 103.294 244.387 103.03 244.388C102.593 244.388 102.158 244.317 101.74 244.179C101.332 244.04 100.947 243.83 100.599 243.558L101.102 242.483C101.182 242.563 101.269 242.633 101.362 242.693C101.51 242.789 101.662 242.877 101.818 242.955C102.003 243.049 102.195 243.125 102.392 243.182C102.606 243.242 102.825 243.271 103.045 243.27C103.667 243.27 103.974 243.051 103.974 242.605C103.979 242.479 103.942 242.355 103.871 242.256C103.789 242.149 103.687 242.063 103.572 242.002C103.418 241.921 103.257 241.854 103.093 241.801L102.479 241.6C102.232 241.531 101.99 241.441 101.755 241.329C101.569 241.241 101.396 241.12 101.244 240.971C101.111 240.841 101.006 240.68 100.937 240.499C100.868 240.295 100.833 240.079 100.835 239.861C100.829 239.559 100.885 239.26 101 238.987C101.107 238.739 101.263 238.52 101.456 238.349C101.656 238.177 101.883 238.046 102.125 237.964C102.38 237.88 102.645 237.836 102.912 237.833C103.296 237.828 103.677 237.902 104.037 238.052C104.352 238.179 104.653 238.346 104.933 238.55L104.438 239.581Z" fill="white"/>
<path d="M89.2002 225.134H88.4136" stroke="#263238" stroke-width="0.75" stroke-miterlimit="10"/>
<path d="M86.9739 225.134H81.9392" stroke="#263238" stroke-width="0.75" stroke-miterlimit="10" stroke-dasharray="1.83 1.83"/>
<path d="M81.2234 225.134H80.4368V224.26" stroke="#263238" stroke-width="0.75" stroke-miterlimit="10"/>
<path d="M80.4368 222.529V147.234" stroke="#263238" stroke-width="0.75" stroke-miterlimit="10" stroke-dasharray="1.98 1.98"/>
<path d="M80.4368 146.369V145.495H81.2234" stroke="#263238" stroke-width="0.75" stroke-miterlimit="10"/>
<path d="M82.4897 145.495H86.9501" stroke="#263238" stroke-width="0.75" stroke-miterlimit="10" stroke-dasharray="1.62 1.62"/>
<path d="M87.5796 145.495H88.3663" stroke="#263238" stroke-width="0.75" stroke-miterlimit="10"/>
<path d="M89.1609 224.146C89.3367 224.146 89.5086 224.204 89.6548 224.313C89.801 224.421 89.9149 224.576 89.9822 224.756C90.0495 224.937 90.0671 225.135 90.0328 225.327C89.9985 225.518 89.9138 225.694 89.7895 225.832C89.6652 225.971 89.5068 226.065 89.3343 226.103C89.1619 226.141 88.9832 226.121 88.8207 226.047C88.6583 225.972 88.5195 225.845 88.4218 225.683C88.3241 225.52 88.272 225.329 88.272 225.134C88.274 224.873 88.3683 224.623 88.5346 224.438C88.7009 224.254 88.9258 224.149 89.1609 224.146Z" fill="#263238"/>
<path d="M88.3269 146.483C88.8179 146.483 89.2159 146.04 89.2159 145.495C89.2159 144.95 88.8179 144.507 88.3269 144.507C87.836 144.507 87.438 144.95 87.438 145.495C87.438 146.04 87.836 146.483 88.3269 146.483Z" fill="#263238"/>
<path d="M80.4367 185.262H70.8079V94.0776H173.72" stroke="#263238" stroke-width="0.75" stroke-miterlimit="10" stroke-dasharray="2 2"/>
<path d="M173.374 95.3799L175.411 94.0776L173.374 92.7666V95.3799Z" fill="#263238"/>
<path d="M541.03 68.8447H243.096V278.43H541.03V68.8447Z" fill="white"/>
<path d="M541.124 278.535H242.978V68.7749H541.124V278.535ZM243.19 278.316H540.928V68.9497H243.19V278.316Z" fill="#263238"/>
<path d="M541.03 68.8447H243.096V76.9117H541.03V68.8447Z" fill="#8B18FF"/>
<path d="M249.924 72.8739C249.925 73.1786 249.845 73.4769 249.693 73.7304C249.541 73.984 249.324 74.1812 249.07 74.297C248.816 74.4127 248.537 74.4416 248.269 74.3799C248 74.3182 247.754 74.1689 247.563 73.9509C247.371 73.733 247.242 73.4564 247.193 73.1566C247.144 72.8568 247.176 72.5476 247.286 72.2685C247.396 71.9893 247.579 71.7531 247.811 71.59C248.042 71.4269 248.312 71.3445 248.587 71.3532C248.944 71.3623 249.284 71.5265 249.534 71.8108C249.784 72.095 249.924 72.4766 249.924 72.8739Z" fill="#C7C7C7"/>
<path d="M255.533 72.8738C255.534 73.1771 255.455 73.474 255.304 73.7268C255.153 73.9797 254.939 74.1771 254.687 74.2939C254.435 74.4108 254.157 74.4418 253.89 74.3831C253.622 74.3243 253.376 74.1785 253.183 73.964C252.99 73.7496 252.858 73.4763 252.806 73.1788C252.753 72.8813 252.781 72.573 252.886 72.2932C252.991 72.0134 253.169 71.7746 253.396 71.6072C253.624 71.4398 253.891 71.3513 254.164 71.3531C254.527 71.3531 254.875 71.5133 255.132 71.7985C255.389 72.0837 255.533 72.4705 255.533 72.8738Z" fill="white"/>
<path d="M261.173 72.8738C261.175 73.1771 261.095 73.474 260.945 73.7268C260.794 73.9797 260.579 74.1771 260.327 74.2939C260.075 74.4108 259.798 74.4418 259.53 74.3831C259.262 74.3243 259.016 74.1785 258.823 73.964C258.63 73.7496 258.499 73.4763 258.446 73.1788C258.393 72.8813 258.421 72.573 258.526 72.2932C258.632 72.0134 258.809 71.7746 259.037 71.6072C259.264 71.4398 259.532 71.3513 259.805 71.3531C260.168 71.3531 260.516 71.5133 260.773 71.7985C261.029 72.0837 261.173 72.4705 261.173 72.8738Z" fill="#455A64"/>
<path d="M273.595 76.9033H251.568V185.62H273.595V76.9033Z" fill="#EBEBEB"/>
<path d="M522.551 90.3101H261.575V116.644H522.551V90.3101Z" fill="#8B18FF"/>
<path d="M279.605 100.501H273.595V101.585H279.605V100.501Z" fill="white"/>
<path d="M279.605 105.369H273.595V106.453H279.605V105.369Z" fill="white"/>
<path d="M279.605 102.966H273.595V104.05H279.605V102.966Z" fill="white"/>
<path d="M350.901 99.5225H293.049V107.441H350.901V99.5225Z" fill="white"/>
<path d="M350.971 107.502H292.978V99.4175H350.971V107.502Z" fill="white"/>
<path d="M350.971 99.4351H343.695V107.52H350.971V99.4351Z" fill="#455A64"/>
<path d="M349.595 105.701L348.934 106.252L347.715 104.504L347.274 103.848C347.364 103.805 347.449 103.749 347.526 103.682C347.675 103.558 347.792 103.392 347.864 103.202L348.336 103.892L349.595 105.701Z" fill="white"/>
<path d="M348.297 101.488C348.088 101.188 347.806 100.96 347.485 100.832C347.163 100.703 346.815 100.679 346.482 100.763C346.149 100.846 345.844 101.034 345.604 101.303C345.363 101.573 345.197 101.913 345.124 102.284C345.052 102.655 345.076 103.041 345.195 103.397C345.313 103.753 345.52 104.064 345.793 104.294C346.065 104.523 346.39 104.662 346.73 104.693C347.071 104.724 347.412 104.646 347.714 104.469C347.803 104.416 347.887 104.354 347.966 104.285C348.109 104.165 348.234 104.02 348.336 103.857C348.559 103.51 348.676 103.092 348.669 102.666C348.662 102.239 348.532 101.826 348.297 101.488ZM347.51 103.647C347.433 103.714 347.348 103.77 347.258 103.813C347.016 103.92 346.748 103.926 346.503 103.83C346.257 103.734 346.051 103.543 345.923 103.292C345.795 103.04 345.752 102.746 345.804 102.463C345.856 102.18 345.998 101.927 346.204 101.751C346.391 101.593 346.618 101.506 346.853 101.505C347.087 101.504 347.316 101.588 347.504 101.744C347.691 101.9 347.828 102.12 347.893 102.371C347.958 102.621 347.948 102.888 347.864 103.132C347.796 103.335 347.679 103.513 347.526 103.647H347.51Z" fill="white"/>
<path d="M294.929 101.078H294.544V105.885H294.929V101.078Z" fill="#C7C7C7"/>
<path d="M510.492 102.275H485.491V104.688H510.492V102.275Z" fill="white"/>
<path d="M472.126 102.275H447.126V104.688H472.126V102.275Z" fill="white"/>
<path opacity="0.1" d="M433.76 102.275H408.76V104.688H433.76V102.275Z" fill="black"/>
<path d="M395.395 102.275H370.394V104.688H395.395V102.275Z" fill="white"/>
<path d="M541.03 198.695H243.096V225.028H541.03V198.695Z" fill="#8B18FF"/>
<path d="M319.237 237.466H261.575V240.429H319.237V237.466Z" fill="#455A64"/>
<path d="M261.575 247.622L270.826 247.464L280.077 247.368L298.579 247.29L317.082 247.368L326.333 247.456L335.584 247.622L326.333 247.779L317.082 247.875L298.579 247.945L280.077 247.875L270.826 247.779L261.575 247.622Z" fill="#A6A6A6"/>
<path d="M261.575 251.659L270.826 251.502L280.077 251.415L298.579 251.336L317.082 251.406L326.333 251.502L335.584 251.659L326.333 251.825L317.082 251.913L298.579 251.991L280.077 251.913L270.826 251.825L261.575 251.659Z" fill="#A6A6A6"/>
<path d="M261.575 255.706L270.826 255.549L280.077 255.453L298.579 255.374L317.082 255.453L326.333 255.549L335.584 255.706L326.333 255.863L317.082 255.96L298.579 256.03L280.077 255.96L270.826 255.863L261.575 255.706Z" fill="#A6A6A6"/>
<path d="M261.575 259.744L270.826 259.586L280.077 259.499L298.579 259.42L317.082 259.499L326.333 259.586L335.584 259.744L326.333 259.91L317.082 259.997L298.579 260.076L280.077 259.997L270.826 259.91L261.575 259.744Z" fill="#A6A6A6"/>
<path d="M261.575 263.791C264.658 263.66 267.742 263.59 270.826 263.537L280.077 263.467L289.328 263.537C292.412 263.59 295.496 263.651 298.579 263.791C295.496 263.931 292.412 263.992 289.328 264.044L280.053 264.123L270.802 264.044C267.742 263.992 264.658 263.948 261.575 263.791Z" fill="#A6A6A6"/>
<path d="M412.717 237.466H355.054V240.429H412.717V237.466Z" fill="#455A64"/>
<path d="M355.054 247.622L364.305 247.464L373.557 247.368L392.059 247.29L410.561 247.368L419.813 247.456L429.064 247.622L419.813 247.779L410.561 247.875L392.059 247.945L373.557 247.875L364.305 247.779L355.054 247.622Z" fill="#A6A6A6"/>
<path d="M355.054 251.659L364.305 251.502L373.557 251.415L392.059 251.336L410.561 251.406L419.813 251.502L429.064 251.659L419.813 251.825L410.561 251.913L392.059 251.991L373.557 251.913L364.305 251.825L355.054 251.659Z" fill="#A6A6A6"/>
<path d="M355.054 255.706L364.305 255.549L373.557 255.453L392.059 255.374L410.561 255.453L419.813 255.549L429.064 255.706L419.813 255.863L410.561 255.96L392.059 256.03L373.557 255.96L364.305 255.863L355.054 255.706Z" fill="#A6A6A6"/>
<path d="M355.054 259.744L364.305 259.586L373.557 259.499L392.059 259.42L410.561 259.499L419.813 259.586L429.064 259.744L419.813 259.91L410.561 259.997L392.059 260.076L373.557 259.997L364.305 259.91L355.054 259.744Z" fill="#A6A6A6"/>
<path d="M355.054 263.791C358.138 263.66 361.222 263.59 364.305 263.537L373.557 263.467L382.808 263.537C385.892 263.59 388.975 263.651 392.059 263.791C388.975 263.931 385.892 263.992 382.808 264.044L373.557 264.123L364.305 264.044C361.222 263.992 358.138 263.948 355.054 263.791Z" fill="#A6A6A6"/>
<path d="M506.196 237.466H448.534V240.429H506.196V237.466Z" fill="#455A64"/>
<path d="M448.534 247.622L457.785 247.464L467.036 247.368L485.539 247.29L504.049 247.368L513.3 247.456L522.551 247.622L513.3 247.779L504.049 247.875L485.539 247.945L467.036 247.875L457.785 247.779L448.534 247.622Z" fill="#A6A6A6"/>
<path d="M448.534 251.659L457.785 251.502L467.036 251.415L485.539 251.336L504.049 251.406L513.3 251.502L522.551 251.659L513.3 251.825L504.049 251.913L485.539 251.991L467.036 251.913L457.785 251.825L448.534 251.659Z" fill="#A6A6A6"/>
<path d="M448.534 255.706L457.785 255.549L467.036 255.453L485.539 255.374L504.049 255.453L513.3 255.549L522.551 255.706L513.3 255.863L504.049 255.96L485.539 256.03L467.036 255.96L457.785 255.863L448.534 255.706Z" fill="#A6A6A6"/>
<path d="M448.534 259.744L457.785 259.586L467.036 259.499L485.539 259.42L504.049 259.499L513.3 259.586L522.551 259.744L513.3 259.91L504.049 259.997L485.539 260.076L467.036 259.997L457.785 259.91L448.534 259.744Z" fill="#A6A6A6"/>
<path d="M448.534 263.791C451.617 263.66 454.701 263.59 457.785 263.537L467.036 263.467L476.287 263.537C479.371 263.59 482.455 263.651 485.539 263.791C482.455 263.931 479.371 263.992 476.287 264.044L467.036 264.123L457.785 264.044C454.693 263.992 451.617 263.948 448.534 263.791Z" fill="#A6A6A6"/>
<path d="M294.386 188.915H344.812V132.892H294.386V188.915Z" fill="#EBEBEB"/>
<path d="M297.352 185.62H341.846V136.187H297.352V185.62Z" fill="#455A64"/>
<path d="M304.519 147.977C304.342 148.959 304.454 149.978 304.839 150.884C305.224 151.79 305.861 152.534 306.656 153.006C307.451 153.479 308.362 153.655 309.254 153.508C310.145 153.361 310.971 152.9 311.608 152.191C312.246 151.483 312.661 150.566 312.794 149.575C312.926 148.584 312.767 147.573 312.342 146.689C311.917 145.806 311.247 145.099 310.432 144.671C309.616 144.243 308.699 144.118 307.815 144.315C307.001 144.495 306.254 144.939 305.668 145.591C305.081 146.243 304.681 147.073 304.519 147.977Z" fill="#37474F"/>
<path d="M309.687 172.789H341.846L325.766 152.757L309.687 172.789Z" fill="#37474F"/>
<path d="M297.352 172.79H323.902L310.623 159.741L297.352 172.79Z" fill="#263238"/>
<path d="M341.846 172.79H297.352V185.62H341.846V172.79Z" fill="#263238"/>
<path d="M439.314 188.915H489.739V132.892H439.314V188.915Z" fill="#EBEBEB"/>
<path d="M442.28 185.62H486.774V136.187H442.28V185.62Z" fill="#455A64"/>
<path d="M449.446 147.977C449.271 148.957 449.384 149.974 449.769 150.877C450.154 151.78 450.79 152.522 451.583 152.993C452.376 153.464 453.285 153.639 454.175 153.492C455.064 153.345 455.888 152.885 456.524 152.178C457.16 151.471 457.574 150.556 457.706 149.568C457.838 148.58 457.681 147.57 457.257 146.689C456.833 145.807 456.166 145.101 455.353 144.673C454.54 144.246 453.625 144.12 452.742 144.315C451.928 144.494 451.181 144.938 450.594 145.59C450.007 146.242 449.608 147.073 449.446 147.977Z" fill="#37474F"/>
<path d="M454.615 172.789H486.774L470.694 152.757L454.615 172.789Z" fill="#37474F"/>
<path d="M442.272 172.79H468.822L455.551 159.741L442.272 172.79Z" fill="#263238"/>
<path d="M486.766 172.79H442.272V185.62H486.766V172.79Z" fill="#263238"/>
<path d="M366.839 188.915H417.272V132.892H366.839V188.915Z" fill="#EBEBEB"/>
<path d="M369.812 185.62H414.306V136.187H369.812V185.62Z" fill="#8B18FF"/>
<path opacity="0.1" d="M376.979 147.977C376.802 148.959 376.914 149.978 377.299 150.884C377.684 151.79 378.321 152.534 379.116 153.006C379.911 153.479 380.822 153.655 381.713 153.508C382.605 153.361 383.431 152.9 384.068 152.191C384.706 151.483 385.121 150.566 385.254 149.575C385.386 148.584 385.227 147.573 384.802 146.689C384.377 145.806 383.707 145.099 382.892 144.671C382.076 144.243 381.159 144.118 380.275 144.315C379.461 144.495 378.714 144.939 378.128 145.591C377.541 146.243 377.141 147.073 376.979 147.977Z" fill="black"/>
<path opacity="0.1" d="M382.147 172.789H414.306L398.226 152.757L382.147 172.789Z" fill="black"/>
<path d="M369.812 172.79H396.362L383.091 159.741L369.812 172.79Z" fill="#8B18FF"/>
<g opacity="0.2">
<path d="M369.812 172.79H396.362L383.091 159.741L369.812 172.79Z" fill="black"/>
</g>
<path d="M414.306 172.79H369.812V185.62H414.306V172.79Z" fill="#8B18FF"/>
<path opacity="0.2" d="M414.306 172.79H369.812V185.62H414.306V172.79Z" fill="black"/>
<path d="M297.352 205.801L309.663 205.644L321.975 205.547L346.605 205.469L371.228 205.547L383.539 205.635L395.858 205.801L383.539 205.958L371.228 206.054L346.605 206.124L321.975 206.054L309.663 205.958L297.352 205.801Z" fill="white"/>
<path d="M297.352 209.839L309.663 209.681L321.975 209.594L346.605 209.515L371.228 209.594L383.539 209.681L395.858 209.839L383.539 210.005L371.228 210.092L346.605 210.171L321.975 210.092L309.663 210.005L297.352 209.839Z" fill="white"/>
<path d="M297.352 213.885L309.663 213.728L321.975 213.631L346.605 213.562L371.228 213.631L383.539 213.728L395.858 213.885L383.539 214.042L371.228 214.138L346.605 214.208L321.975 214.138L309.663 214.042L297.352 213.885Z" fill="white"/>
<path d="M297.36 217.932C301.459 217.792 305.565 217.731 309.671 217.678L321.983 217.6L334.294 217.678C338.401 217.731 342.507 217.792 346.613 217.932C342.507 218.063 338.401 218.124 334.294 218.176L321.983 218.255L309.671 218.176C305.557 218.124 301.451 218.063 297.36 217.932Z" fill="white"/>
<path d="M265.17 215.878V207.854L261.661 211.578L265.17 215.878Z" fill="white"/>
<path d="M519.137 207.854V215.878L522.646 212.155L519.137 207.854Z" fill="white"/>
<path d="M197.98 88.4314C197.98 91.7939 198.878 95.0809 200.56 97.8766C202.241 100.672 204.631 102.851 207.428 104.138C210.224 105.424 213.301 105.76 216.269 105.103C219.237 104.447 221.964 102.827 224.103 100.449C226.243 98.0704 227.699 95.0406 228.289 91.7424C228.878 88.4443 228.574 85.0261 227.415 81.92C226.256 78.8139 224.293 76.1596 221.776 74.2928C219.259 72.4259 216.3 71.4304 213.273 71.4321C209.218 71.4391 205.331 73.2326 202.464 76.4193C199.597 79.606 197.985 83.9258 197.98 88.4314ZM201.237 88.4314C201.236 85.7842 201.941 83.1959 203.264 80.9941C204.587 78.7922 206.467 77.0758 208.668 76.062C210.87 75.0481 213.292 74.7824 215.629 75.2984C217.966 75.8144 220.113 77.089 221.797 78.9609C223.482 80.8328 224.629 83.2179 225.094 85.8143C225.558 88.4108 225.319 91.102 224.407 93.5474C223.494 95.9928 221.949 98.0825 219.967 99.5522C217.986 101.022 215.656 101.805 213.273 101.804C210.081 101.804 207.02 100.395 204.762 97.887C202.505 95.3792 201.237 91.9779 201.237 88.4314ZM197.98 88.4314C197.98 91.7939 198.878 95.0809 200.56 97.8766C202.241 100.672 204.631 102.851 207.428 104.138C210.224 105.424 213.301 105.76 216.269 105.103C219.237 104.447 221.964 102.827 224.103 100.449C226.243 98.0704 227.699 95.0406 228.289 91.7424C228.878 88.4443 228.574 85.0261 227.415 81.92C226.256 78.8139 224.293 76.1596 221.776 74.2928C219.259 72.4259 216.3 71.4304 213.273 71.4321C209.218 71.4391 205.331 73.2326 202.464 76.4193C199.597 79.606 197.985 83.9258 197.98 88.4314ZM201.237 88.4314C201.236 85.7842 201.941 83.1959 203.264 80.9941C204.587 78.7922 206.467 77.0758 208.668 76.062C210.87 75.0481 213.292 74.7824 215.629 75.2984C217.966 75.8144 220.113 77.089 221.797 78.9609C223.482 80.8328 224.629 83.2179 225.094 85.8143C225.558 88.4108 225.319 91.102 224.407 93.5474C223.494 95.9928 221.949 98.0825 219.967 99.5522C217.986 101.022 215.656 101.805 213.273 101.804C210.081 101.804 207.02 100.395 204.762 97.887C202.505 95.3792 201.237 91.9779 201.237 88.4314ZM187.494 88.4314C187.496 94.0978 189.01 99.6364 191.844 104.347C194.679 109.057 198.708 112.728 203.42 114.895C208.133 117.062 213.318 117.627 218.32 116.52C223.321 115.413 227.915 112.683 231.521 108.675C235.126 104.667 237.581 99.5612 238.574 94.0034C239.568 88.4455 239.055 82.6852 237.102 77.4508C235.149 72.2164 231.842 67.7431 227.601 64.5964C223.359 61.4498 218.373 59.7712 213.273 59.773C209.887 59.7729 206.533 60.5144 203.404 61.9548C200.276 63.3952 197.433 65.5065 195.039 68.1679C192.645 70.8293 190.747 73.9887 189.452 77.4656C188.157 80.9425 187.492 84.6688 187.494 88.4314ZM196.517 88.4314C196.517 84.7474 197.501 81.1461 199.343 78.083C201.185 75.02 203.804 72.6328 206.868 71.2234C209.931 69.814 213.302 69.4456 216.554 70.165C219.807 70.8843 222.794 72.6591 225.138 75.2647C227.482 77.8703 229.078 81.1898 229.724 84.8032C230.37 88.4167 230.037 92.1618 228.767 95.5649C227.497 98.968 225.347 101.876 222.589 103.922C219.831 105.967 216.589 107.058 213.273 107.056C208.83 107.047 204.572 105.082 201.431 101.59C198.291 98.0994 196.523 93.3674 196.517 88.4314ZM197.98 88.4314C197.98 91.7939 198.878 95.0809 200.56 97.8766C202.241 100.672 204.631 102.851 207.428 104.138C210.224 105.424 213.301 105.76 216.269 105.103C219.237 104.447 221.964 102.827 224.103 100.449C226.243 98.0704 227.699 95.0406 228.289 91.7424C228.878 88.4443 228.574 85.0261 227.415 81.92C226.256 78.8139 224.293 76.1596 221.776 74.2928C219.259 72.4259 216.3 71.4304 213.273 71.4321C209.218 71.4391 205.331 73.2326 202.464 76.4193C199.597 79.606 197.985 83.9258 197.98 88.4314ZM201.237 88.4314C201.236 85.7842 201.941 83.1959 203.264 80.9941C204.587 78.7922 206.467 77.0758 208.668 76.062C210.87 75.0481 213.292 74.7824 215.629 75.2984C217.966 75.8144 220.113 77.089 221.797 78.9609C223.482 80.8328 224.629 83.2179 225.094 85.8143C225.558 88.4108 225.319 91.102 224.407 93.5474C223.494 95.9928 221.949 98.0825 219.967 99.5522C217.986 101.022 215.656 101.805 213.273 101.804C210.081 101.804 207.02 100.395 204.762 97.887C202.505 95.3792 201.237 91.9779 201.237 88.4314Z" fill="#8B18FF"/>
<path d="M210.252 60.2972H216.152L215.562 53.751H210.835L210.252 60.2972Z" fill="#8B18FF"/>
<path d="M223.319 62.386L228.432 65.6635L230.863 59.6678L226.772 57.0371L223.319 62.386Z" fill="#8B18FF"/>
<path d="M233.695 71.4491L236.645 77.1301L241.452 73.2845L239.092 68.7397L233.695 71.4491Z" fill="#8B18FF"/>
<path d="M238.596 85.0576V91.6214L244.488 90.9659V85.7131L238.596 85.0576Z" fill="#8B18FF"/>
<path d="M236.724 99.5747L233.766 105.256L239.162 107.965L241.53 103.42L236.724 99.5747Z" fill="#8B18FF"/>
<path d="M228.558 111.103L223.445 114.389L226.906 119.729L230.997 117.098L228.558 111.103Z" fill="#8B18FF"/>
<path d="M216.31 116.557H210.402L210.992 123.103H215.72L216.31 116.557Z" fill="#8B18FF"/>
<path d="M203.243 114.467L198.13 111.19L195.691 117.186L199.79 119.816L203.243 114.467Z" fill="#8B18FF"/>
<path d="M192.867 105.404L189.909 99.7231L185.103 103.56L187.47 108.114L192.867 105.404Z" fill="#8B18FF"/>
<path d="M187.958 91.7874V85.2324L182.066 85.8879V91.1407L187.958 91.7874Z" fill="#8B18FF"/>
<path d="M189.838 77.2791L192.788 71.5981L187.392 68.8887L185.024 73.4335L189.838 77.2791Z" fill="#8B18FF"/>
<path d="M197.996 65.7422L203.109 62.4647L199.656 57.1245L195.557 59.7465L197.996 65.7422Z" fill="#8B18FF"/>
<path d="M148.924 62.4035C148.846 65.7008 149.649 68.9499 151.233 71.7398C152.817 74.5296 155.11 76.735 157.822 78.077C160.534 79.419 163.543 79.8372 166.469 79.2789C169.395 78.7206 172.106 77.2107 174.26 74.9403C176.413 72.6699 177.913 69.7409 178.568 66.5238C179.223 63.3066 179.005 59.9459 177.941 56.8666C176.877 53.7873 175.014 51.1278 172.59 49.2244C170.165 47.321 167.287 46.2592 164.319 46.1734C162.349 46.1152 160.388 46.489 158.547 47.2733C156.707 48.0576 155.024 49.2371 153.595 50.7443C152.165 52.2516 151.016 54.0571 150.215 56.0576C149.414 58.0582 148.975 60.2145 148.924 62.4035ZM156.916 62.6395C156.953 61.0997 157.399 59.6064 158.199 58.3486C159 57.0907 160.118 56.1248 161.412 55.5729C162.706 55.021 164.119 54.9081 165.471 55.2482C166.823 55.5884 168.054 56.3665 169.009 57.484C169.963 58.6015 170.597 60.0083 170.832 61.5265C171.066 63.0446 170.89 64.6059 170.326 66.0129C169.761 67.4199 168.834 68.6093 167.661 69.4308C166.489 70.2522 165.123 70.6688 163.737 70.6279C161.879 70.573 160.117 69.7006 158.838 68.2026C157.559 66.7046 156.868 64.7036 156.916 62.6395Z" fill="#EBEBEB"/>
<path d="M161.424 46.7763L167.19 46.9511L166.978 42.4063L161.849 42.249L161.424 46.7763Z" fill="#EBEBEB"/>
<path d="M172.351 49.2584L176.323 53.9168L179.069 50.5344L175.537 46.4004L172.351 49.2584Z" fill="#EBEBEB"/>
<path d="M178.503 59.6064L178.345 66.0129L182.436 65.7769L182.577 60.0784L178.503 59.6064Z" fill="#EBEBEB"/>
<path d="M176.268 71.7466L172.075 76.1603L175.12 79.2105L178.849 75.2863L176.268 71.7466Z" fill="#EBEBEB"/>
<path d="M166.954 78.5811L161.188 78.4062L161.4 82.9598L166.529 83.1084L166.954 78.5811Z" fill="#EBEBEB"/>
<path d="M156.027 76.0989L152.055 71.4404L149.309 74.8228L152.841 78.9656L156.027 76.0989Z" fill="#EBEBEB"/>
<path d="M149.876 65.7507L150.033 59.3442L145.942 59.5802L145.801 65.2787L149.876 65.7507Z" fill="#EBEBEB"/>
<path d="M152.11 53.6109L156.303 49.1972L153.258 46.147L149.53 50.08L152.11 53.6109Z" fill="#EBEBEB"/>
<path d="M167.914 58.7589L162.989 57.1333L159.269 61.0576L160.48 66.5987L165.397 68.2244L169.133 64.3001L167.914 58.7589ZM164.146 64.4836C163.823 64.4748 163.51 64.3596 163.247 64.1528C162.983 63.946 162.781 63.6569 162.665 63.3221C162.55 62.9873 162.527 62.622 162.599 62.2725C162.67 61.923 162.834 61.605 163.069 61.359C163.303 61.113 163.599 60.95 163.917 60.8907C164.235 60.8315 164.562 60.8785 164.856 61.026C165.15 61.1735 165.398 61.4148 165.569 61.7192C165.739 62.0235 165.824 62.3773 165.814 62.7356C165.799 63.2124 165.616 63.6636 165.304 63.991C164.991 64.3184 164.575 64.4954 164.146 64.4836Z" fill="#EBEBEB"/>
<path d="M213.202 49.136V44.5649H306.116V62.0012" stroke="#263238" stroke-width="0.75" stroke-miterlimit="10" stroke-dasharray="2 2"/>
<path d="M304.936 61.6255L306.116 63.8891L307.288 61.6255H304.936Z" fill="#263238"/>
<path d="M515.361 326.317C516.128 329.434 516.636 332.623 516.879 335.843C516.801 336.001 516.817 336.595 516.879 336.429C516.879 336.953 517.611 336.857 517.611 336.342C517.611 336.009 517.611 335.669 517.611 335.345C519.287 333.029 521.725 331.57 523.684 329.559C525.268 327.985 526.422 325.946 527.012 323.677C528.648 317.437 527.114 310.821 529.081 304.589C530.772 299.223 533.801 294.556 536.365 289.687C539.071 284.548 541.085 279.138 541.274 273.081C541.431 268.467 540.936 262.323 537.773 258.861C534.422 255.199 530.269 257.944 527.696 261.213C520.254 270.704 516.809 282.695 515.416 294.958C514.63 301.749 513.843 308.575 514.04 315.427C514.154 319.096 514.597 322.744 515.361 326.317Z" fill="#8B18FF"/>
<path d="M516.84 338.334C516.432 331.93 516.501 325.499 517.045 319.106C517.045 319.106 517.045 319.106 517.045 319.036C516.95 313.845 516.581 308.662 516.762 303.462C516.991 297.834 517.681 292.24 518.823 286.751C518.823 286.69 518.925 286.751 518.917 286.751C518.001 292.145 517.457 297.609 517.289 303.095C517.194 306.031 517.21 308.968 517.352 311.896C517.399 312.857 517.477 313.819 517.532 314.78C519.479 300.19 524.225 286.235 531.449 273.859C531.551 273.693 531.818 273.859 531.724 274.043C526.56 283.448 522.739 293.684 520.396 304.388C523.975 297.02 529.38 290.955 533.392 283.875C533.392 283.875 533.47 283.875 533.455 283.919C529.852 291.785 523.897 298.017 520.081 305.769C519.42 308.942 518.878 312.132 518.508 315.383C517.969 319.772 517.675 324.195 517.627 328.624C519.806 324.097 522.064 319.771 523.849 314.981C523.897 314.859 524.062 314.937 524.022 315.068C522.504 320.042 520.467 325.399 517.611 329.638C517.611 332.793 517.682 335.94 517.847 339.086C518.296 347.476 519.586 355.762 520.207 364.126C520.207 364.177 520.189 364.226 520.156 364.262C520.124 364.298 520.08 364.318 520.034 364.318C519.988 364.318 519.944 364.298 519.912 364.262C519.879 364.226 519.861 364.177 519.861 364.126C518.327 355.615 517.318 346.998 516.84 338.334Z" fill="#263238"/>
<path d="M524.872 273.562C524.872 273.501 524.974 273.562 524.951 273.562C523.574 277.801 522.795 282.101 521.804 286.445C521.798 286.487 521.777 286.524 521.746 286.549C521.715 286.573 521.676 286.583 521.639 286.576C521.601 286.569 521.568 286.546 521.546 286.512C521.523 286.477 521.514 286.434 521.521 286.393C521.914 282.058 523.338 277.661 524.872 273.562Z" fill="#263238"/>
<path d="M489.826 291.366C490.74 293.85 491.79 296.27 492.973 298.611C495.459 303.628 498.055 308.225 498.479 314.055C498.563 316.668 498.897 319.264 499.478 321.798C500.138 323.955 501.073 325.995 502.255 327.855C504.954 332.225 508.321 335.966 510.814 340.493C513.432 345.205 515.373 350.342 516.565 355.718C516.62 356.015 517.037 355.937 516.974 355.64C516.974 355.64 516.974 355.596 516.974 355.578C516.978 355.558 516.978 355.537 516.974 355.517C517.367 342.993 516.47 330.381 513.041 318.39C511.522 313.117 509.698 307.958 507.581 302.946C505.85 298.516 503.344 294.511 500.21 291.165C498.11 289.067 493.563 285.09 490.581 287.197C489.157 288.211 489.26 289.81 489.826 291.366Z" fill="#8B18FF"/>
<path d="M501.146 319.744C503.132 323.388 505.321 326.891 507.699 330.232C508.785 331.814 509.894 333.379 510.987 334.969C511.499 335.712 512.073 336.464 512.561 337.268C512.262 335.948 511.979 334.646 511.672 333.318C510.216 326.99 508.824 320.61 506.653 314.527C504.439 308.636 501.825 302.942 498.833 297.492C498.755 297.344 498.967 297.239 499.046 297.379C501.406 301.749 503.844 306.075 505.843 310.664C506.948 313.218 507.912 315.845 508.73 318.53C507.811 312.824 506.528 307.199 504.891 301.696C504.891 301.644 504.938 301.609 504.954 301.696C507.101 307.254 508.447 313.153 508.942 319.176C509.43 320.802 509.881 322.442 510.295 324.097C512.073 331.089 513.631 338.177 515.078 345.274C515.102 340.609 514.738 335.951 513.992 331.36C513.992 331.246 514.11 331.229 514.134 331.36C515.235 336.149 515.605 341.109 515.228 346.034C515.77 348.735 516.305 351.444 516.801 354.145C517.902 359.913 519.263 365.787 519.948 371.625C519.941 371.651 519.927 371.674 519.908 371.69C519.889 371.706 519.865 371.715 519.841 371.715C519.817 371.715 519.794 371.706 519.775 371.69C519.755 371.674 519.741 371.651 519.735 371.625C518.948 368.47 518.5 365.192 517.863 362.011C517.226 358.83 516.581 355.605 515.904 352.397C514.929 347.736 513.914 343.074 512.86 338.413C512.159 336.709 510.814 335.197 509.799 333.772C508.69 332.208 507.581 330.643 506.503 329.052C504.477 326.109 502.664 322.99 501.083 319.727C501.02 319.727 501.107 319.683 501.146 319.744Z" fill="#263238"/>
<path d="M500.666 314.395C503.148 317.91 505.296 321.7 507.078 325.705C507.078 325.757 507.03 325.81 506.999 325.757C504.843 322.008 502.719 318.223 500.572 314.465C500.533 314.404 500.627 314.334 500.666 314.395Z" fill="#263238"/>
<path d="M548.629 303.278C547.174 306.075 545.483 309.396 546.136 312.787C546.529 314.911 547.929 316.633 548.181 318.801C548.747 323.581 544.46 326.736 541.353 329C533.62 334.637 523.008 339.663 521.599 351.182C521.544 351.593 520.915 351.488 520.962 351.086C520.962 351.086 520.962 351.086 520.962 351.016C520.962 350.946 520.962 351.016 520.962 350.946C519.943 345.131 519.991 339.147 521.104 333.353C522.26 327.418 524.589 322.087 527.342 316.869C531.999 308.042 536.932 299.004 543.972 292.248C545.923 290.378 549.912 287.004 551.461 291.235C553.011 295.465 550.423 299.835 548.629 303.278Z" fill="#8B18FF"/>
<path d="M541.549 321.947C536.42 328.117 528.27 331.561 523.849 338.483C526.315 327.964 530.978 318.239 537.459 310.096C537.624 309.886 537.356 309.58 537.175 309.781C532.452 314.88 528.673 320.958 526.052 327.672C527.275 322.987 528.879 318.435 530.843 314.072C530.914 313.906 530.701 313.758 530.615 313.924C528.193 318.687 526.464 323.846 525.493 329.21C519.68 344.855 519.137 363.209 520.357 379.701C520.365 379.744 520.386 379.782 520.417 379.81C520.448 379.837 520.486 379.852 520.526 379.852C520.565 379.852 520.604 379.837 520.634 379.81C520.665 379.782 520.686 379.744 520.695 379.701C520.357 366.705 520.545 353.481 523.354 340.79C523.409 340.52 523.472 340.257 523.535 339.995C528.341 332.557 536.46 329.114 541.683 322.043C541.691 321.982 541.604 321.877 541.549 321.947Z" fill="#263238"/>
<path d="M542.737 316.65C540.047 319.395 537.396 322.2 534.698 324.945C534.698 324.945 534.698 325.023 534.698 324.997C537.752 322.714 540.501 319.963 542.863 316.825C542.87 316.804 542.872 316.781 542.869 316.759C542.865 316.737 542.857 316.716 542.844 316.699C542.832 316.681 542.815 316.667 542.796 316.659C542.778 316.651 542.757 316.648 542.737 316.65Z" fill="#263238"/>
<path d="M543.17 304.755C540.787 309.097 538.091 313.215 535.106 317.07C535.102 317.075 535.099 317.081 535.097 317.088C535.095 317.094 535.094 317.101 535.095 317.108C535.095 317.115 535.097 317.122 535.099 317.128C535.102 317.134 535.106 317.14 535.11 317.144C535.115 317.149 535.12 317.152 535.126 317.155C535.132 317.157 535.138 317.158 535.145 317.157C535.151 317.157 535.157 317.155 535.163 317.152C535.168 317.149 535.173 317.145 535.177 317.14C538.523 313.612 541.277 309.451 543.311 304.851C543.359 304.747 543.225 304.65 543.17 304.755Z" fill="#263238"/>
<path d="M531.039 391.334H507.455L510.633 356.077H527.413L531.039 391.334Z" fill="#455A64"/>
<path d="M528.003 361.81H510.114L510.633 356.077H527.413L528.003 361.81Z" fill="#263238"/>
<path d="M530.3 352.17H508.195V357.798H530.3V352.17Z" fill="#455A64"/>
</svg>
