<svg width="287" height="66" viewBox="0 0 287 66" fill="none" xmlns="http://www.w3.org/2000/svg">
<path fill-rule="evenodd" clip-rule="evenodd" d="M10.7235 5.80252C6.063 8.43252 1.744 11.145 1.125 11.8305C0.034 13.0385 0 13.392 0 23.5205C0 33.649 0.034 34.0025 1.125 35.2105C2.5705 36.8115 18.8615 46.0205 20.248 46.0205C20.826 46.0205 27.363 42.5125 34.7745 38.225C51.0335 28.819 51.6035 28.5205 53.3105 28.5205C55.258 28.5205 64.4415 33.958 65.3015 35.6205C66.1495 37.26 66.2725 47.376 65.4655 49.1465C64.7645 50.6845 55.0545 56.5205 53.196 56.5205C51.7535 56.5205 43.608 52.196 41.625 50.378C40.642 49.4765 40.5 48.852 40.5 45.4335C40.5 43.2815 40.2985 41.5205 40.0525 41.5205C39.8065 41.5205 38.121 42.3645 36.307 43.3955L33.0095 45.2705L33.0045 49.1175C33.0005 52.4085 33.1625 53.145 34.125 54.2105C35.5775 55.8195 51.865 65.0205 53.26 65.0205C54.9975 65.0205 72.1425 54.9615 72.8615 53.5205C73.734 51.772 73.734 33.2625 72.8615 31.538C72.106 30.045 54.9045 20.0205 53.098 20.0205C52.439 20.0205 45.098 23.958 36.785 28.7705C26.485 34.7335 21.1985 37.5205 20.189 37.5205C18.559 37.5205 10.531 33.189 8.5 31.2135C7.2945 30.041 7.25 29.7695 7.25 23.5615C7.25 17.8675 7.363 17.0005 8.2315 16.041C9.6445 14.4795 18.5965 9.52052 20.002 9.52052C21.6435 9.52052 30.312 14.403 31.7905 16.16C32.815 17.3775 33 18.127 33 21.059C33 22.963 33.149 24.5205 33.331 24.5205C33.513 24.5205 35.088 23.6865 36.831 22.6665L40 20.8125V16.754C40 13.1875 39.8635 12.568 38.875 11.65C37.0695 9.97252 21.368 1.02052 20.232 1.02052C19.663 1.02052 15.384 3.17252 10.7235 5.80252ZM154 23.2495V45.5205H158.005H162.01L161.88 23.3955L161.75 1.27052L157.875 1.12452L154 0.978516V23.2495ZM102.162 20.211C101.014 20.586 99.3045 21.369 98.364 21.95C96.5605 23.0645 96 22.943 96 21.437C96 20.6355 95.5605 20.5205 92.5 20.5205H89V39.0415V57.5625L92.875 57.4165L96.75 57.2705L96.8885 50.4785L97.027 43.687L99.475 44.8985C105.311 47.7865 113.152 45.5935 116.331 40.1845C117.621 37.9905 117.75 37.3375 117.75 33.0205C117.75 27.899 117.18 26.165 114.568 23.3495C111.643 20.1965 106.324 18.851 102.162 20.211ZM132.4 20.0355C125.108 21.2605 120.541 27.004 121.12 34.219C121.647 40.7805 125.531 44.884 132.205 45.931C141.585 47.4015 149 41.69 149 32.9945C149 24.515 141.339 18.534 132.4 20.0355ZM204.543 20.09C199.115 21.0895 194.495 26.7065 194.328 32.5075C194.176 37.824 197.613 43.4565 202.106 45.2545C206.188 46.888 212.071 46.0375 214.868 43.4095L216 42.346V44.822C216 46.302 215.672 47.7665 215.184 48.462C214.116 49.987 211.557 51.023 208.891 51.0095C206.729 50.9985 202.911 49.591 202.282 48.5725C201.705 47.639 201.235 47.928 198.988 50.5925L196.819 53.1645L198.029 54.145C198.695 54.6845 200.367 55.714 201.745 56.4335C203.925 57.572 204.865 57.7435 209 57.756C213.212 57.769 214.074 57.611 216.612 56.365C219.903 54.749 222.582 51.886 223.419 49.0915C223.796 47.836 224 42.558 224 34.0875V21.0205H220.43C217.617 21.0205 216.725 21.205 216.225 21.889C215.64 22.689 215.518 22.694 214.67 21.952C212.82 20.333 208.017 19.45 204.543 20.09ZM239.367 20.0355C234.987 21.1355 231.221 24.173 229.688 27.843C228.795 29.978 228.804 36.0825 229.702 38.2315C232.332 44.5265 240.184 47.545 247.939 45.2425C254.717 43.2295 258.467 35.3915 256.039 28.3125C255.154 25.731 251.768 22.0965 249.171 20.9405C246.662 19.8235 241.946 19.388 239.367 20.0355ZM276.5 19.987C274.188 20.4475 272.599 21.311 270.625 23.1785L269 24.7165V22.8685V21.0205H265.25H261.5V33.2705V45.5205H265.5H269.5L269.503 39.3955C269.506 32.3275 270.035 29.9085 272.009 27.935C273.753 26.1905 276.482 26.002 278 27.5205C278.922 28.442 279 29.187 279 37.0205V45.5205H283H287V35.3445C287 25.615 286.951 25.095 285.874 23.4965C283.92 20.5985 280.278 19.2345 276.5 19.987ZM167.457 26.127C168.782 28.956 171.336 34.2035 173.133 37.7885L176.4 44.3065L173.45 50.754C171.827 54.3 170.5 57.283 170.5 57.382C170.5 57.4815 172.203 57.497 174.285 57.4165L178.068 57.2705L185.969 39.2705L193.87 21.2705L190.863 21.12C189.209 21.037 187.606 21.065 187.301 21.182C186.996 21.299 185.397 24.4555 183.748 28.1965C182.099 31.9375 180.623 35.003 180.468 35.0095C180.313 35.0155 178.826 31.927 177.163 28.1455L174.138 21.2705L169.593 21.127L165.048 20.9835L167.457 26.127ZM138.344 27.2865C140.748 28.861 141.653 32.9905 140.303 36.221C139.347 38.5075 137.72 39.5205 135 39.5205C132.28 39.5205 130.653 38.5075 129.697 36.221C126.974 29.704 132.818 23.6655 138.344 27.2865ZM212.835 26.989C215.497 28.1975 216 29.1955 216 33.2615C216 36.1955 215.851 36.7065 214.676 37.795C210.236 41.91 203.185 39.4715 202.623 33.6265C202.307 30.335 203.428 28.232 206.158 26.992C208.79 25.7975 210.209 25.797 212.835 26.989ZM107.76 28.181C110.778 31.199 110.583 36.3235 107.363 38.6205C106.123 39.5045 105.076 39.7705 102.834 39.7705C100.172 39.7705 99.7905 39.628 98.459 38.1375C97.1495 36.6725 97 36.1555 97 33.1C97 30.204 97.168 29.5425 98.125 28.676C99.9825 26.994 101.129 26.5515 103.675 26.5355C105.765 26.5225 106.329 26.75 107.76 28.181ZM246.8 28.2205C248.36 29.78 248.5 30.171 248.5 32.953C248.5 35.632 248.319 36.1915 246.948 37.753C245.541 39.3555 245.151 39.5205 242.766 39.5205C240.592 39.5205 239.908 39.2925 238.82 38.2035C234.532 33.9155 237.075 26.5205 242.839 26.5205C244.744 26.5205 245.368 26.7885 246.8 28.2205Z" fill="white"/>
</svg>
